<?xml version="1.0" encoding="UTF-8" standalone="no"?>
<!DOCTYPE svg PUBLIC "-//W3C//DTD SVG 1.1//EN" "http://www.w3.org/Graphics/SVG/1.1/DTD/svg11.dtd">
<svg width="100%" height="100%" viewBox="0 0 1920 1613" version="1.1" xmlns="http://www.w3.org/2000/svg" xmlns:xlink="http://www.w3.org/1999/xlink" xml:space="preserve" xmlns:serif="http://www.serif.com/" style="fill-rule:evenodd;clip-rule:evenodd;stroke-linejoin:round;stroke-miterlimit:2;">
    <g transform="matrix(1,0,0,1,0,284.310153)">
        <g transform="matrix(1.87888,0,0,1.87888,-2.041441,-290.869342)">
            <g id="bering">
                <path d="M793.075,462.058C792.981,461.847 792.791,461.634 793.097,461.432C793.115,461.64 793.093,461.849 793.075,462.058ZM793.059,462.385C793.059,462.276 793.066,462.167 793.075,462.058C793.125,462.168 793.148,462.278 793.059,462.385ZM793.059,462.385C793.06,462.437 793.062,462.488 793.066,462.539C793.11,463.032 793.264,463.511 793.29,463.593C793.433,464.041 793.529,463.985 793.67,464.424C793.549,464.748 794.021,465.111 793.901,465.435C793.735,465.883 793.183,466.078 792.911,466.471C791.791,468.088 792.723,470.292 794.51,470.468C795.289,470.545 795.452,470.434 795.519,470.389C796.233,469.905 795.845,469.564 796.56,469.079C799.594,469.524 799.493,469.854 802.435,470.728C803.781,471.127 805.854,470.696 805.844,474.495C805.841,475.59 805.78,475.569 805.882,476.519C805.954,477.202 806.177,477.289 805.72,478.593C805.208,480.054 804.921,480.062 805.372,481.547C805.462,481.843 805.64,482.107 805.732,482.403C806.042,483.408 805.929,483.409 805.984,484.463C806.173,488.06 804.171,487.604 802.742,488.785C802.21,489.225 802.342,489.513 800.632,490.716C799.471,491.533 799.413,491.407 798.312,492.275C795.65,494.376 794.961,493.15 792.315,495.28C788.902,498.029 785.947,496.89 785.421,496.688C785.272,496.631 785.285,496.63 783.584,495.903C783.205,496.096 782.959,496.496 782.581,496.689C782.084,496.942 779.19,497.083 778.502,497.039C778.168,497.017 777.838,496.923 777.503,496.923C776.961,496.924 776.84,497.24 775.421,496.683C774.298,496.243 774.259,495.782 772.501,495.743C770.987,495.71 771.009,495.764 769.502,495.844C768.71,495.346 767.886,493.751 765.262,495.016C761.336,496.907 758.955,495.191 757.441,495.994C756.864,496.3 757.074,496.566 756.471,496.83C756.006,497.034 755.969,496.639 755.508,496.841C754.447,494.748 754.514,494.69 752.843,493.026C752.706,492.889 751.471,491.659 750.484,492.479C749.26,493.496 751.949,496.268 751.887,499.488C751.845,501.663 750.565,501.606 749.749,503.613C749.632,503.9 749.704,504.256 749.54,504.519C749.393,504.753 748.216,505.984 748.098,506.108C747.936,506.278 747.715,506.387 747.565,506.568C747.457,506.699 747.4,507.16 746.553,507.583C745.029,508.342 743.811,508.229 743.367,509.432C742.92,510.64 743.241,511.019 741.577,511.65C740.742,511.966 740.756,511.977 737.471,514.463C736.896,514.898 737.001,514.988 736.463,515.455C736.258,515.632 735.952,515.67 735.759,515.861C735.605,516.013 735.643,516.317 735.465,516.441C734.996,516.77 731.092,516.873 729.717,518.69C729.558,518.899 729.49,519.165 729.339,519.379C729.229,519.536 729.034,519.625 728.941,519.792C728.802,520.042 728.841,520.382 728.66,520.604C728.137,521.245 724.353,523.316 722.658,524.715C721.271,525.86 721.013,525.469 719.705,526.699C718.289,528.031 718.451,528.154 717.546,529.883C717.263,529.996 716.919,529.849 716.636,529.962C716.473,530.027 716.029,530.633 714.55,530.904C713.018,531.184 713.054,530.851 711.595,530.28C710.409,529.077 710.41,529.091 710.315,528.981C709.967,528.579 709.739,528.079 709.372,527.695C709.186,527.501 708.89,527.448 708.684,527.276C708.601,527.207 708.03,526.732 707.713,526.331C707.515,526.079 707.29,525.793 706.548,522.506C706.656,522.362 706.975,522.564 707.083,522.42C707.283,522.151 707.239,521.768 707.338,521.448C708.001,519.301 708.149,519.328 708.101,518.49C708.083,518.153 707.906,517.833 707.91,517.496C707.917,517.014 708.638,514.819 708.735,514.705C708.889,514.523 709.195,514.538 709.367,514.373C709.692,514.06 709.982,513.7 710.194,513.301C710.329,513.047 710.272,512.723 710.386,512.458C710.717,511.691 710.929,511.776 711.187,510.441C711.711,507.716 711.298,507.707 711.352,507.475C711.452,507.048 711.822,506.732 712.032,506.346C712.645,505.215 712.463,505.079 714.31,503.291C715.557,502.083 717.092,501.436 717.355,501.256C717.5,501.157 717.539,500.951 717.669,500.833C718.476,500.1 719.358,500.168 719.379,500.156C719.778,499.935 719.95,499.392 720.368,499.208C720.682,499.07 721.059,499.333 721.396,499.27C721.813,499.192 722.174,498.93 722.577,498.797C724.982,498.003 725.032,498.149 725.214,498.025C725.372,497.917 725.373,497.655 725.531,497.546C725.765,497.384 726.093,497.405 726.333,497.251C726.501,497.143 726.547,496.898 726.714,496.787C726.944,496.633 727.235,496.596 727.486,496.478C728.326,496.082 728.144,495.887 728.523,495.537C728.715,495.36 728.999,495.315 729.213,495.165C730.465,494.289 730.528,493.878 730.692,493.761C730.919,493.599 731.219,493.573 731.473,493.458C732.769,492.867 732.531,492.606 733.302,491.4C734.902,488.899 736.842,489.249 737.298,489.022C737.435,488.954 737.438,488.728 737.573,488.656C737.842,488.513 738.164,488.509 738.451,488.409C738.619,488.351 738.875,488.262 740.448,487.423C742.563,486.296 740.722,484.647 740.547,484.49C740.097,484.087 739.395,483.979 739.033,483.495C738.835,483.231 739.257,482.77 739.06,482.506L739.507,480.499C738.938,480.556 738.943,479.153 738.374,479.21C737.814,479.266 737.947,480.277 737.569,480.693C737.114,481.195 734.69,482.243 734.429,482.356C732.25,483.299 731.809,482.812 729.764,484.772C727.881,486.577 727.144,485.445 725.301,487.299C724.027,488.581 724.009,488.543 722.435,489.393C720.406,490.488 720.242,492.392 716.429,494.362C713.858,495.691 713.863,495.712 712.295,497.297C709.662,499.959 707.317,499.731 706.382,501.425C705.492,503.037 705.105,502.712 704.049,504.212C703.987,504.3 703.366,505.182 703.267,505.301C701.361,507.584 702.229,508.033 700.754,510.632C700.666,510.788 700.709,510.788 699.707,512.609C699.639,512.769 698.983,513.148 698.895,514.531C698.813,515.812 698.968,515.833 698.647,516.562C698.356,517.223 697.823,517.077 697.833,519.516C697.858,525.174 698.24,525.126 698.688,526.418C698.555,526.729 699.055,527.095 698.922,527.407C698.731,527.853 698.067,527.955 697.845,528.387C697.627,528.814 698.804,531.788 699.759,533.364C701.758,536.665 701.299,537.033 702.28,537.576C702.824,537.878 703.363,538.19 703.907,538.491L703.904,540.503C703.864,540.58 702.008,541.673 702.485,543.506C702.689,544.288 703.127,544.629 703.152,544.674C703.586,545.469 703.358,545.56 703.829,546.328C703.913,546.465 704.092,546.529 704.168,546.67C704.713,547.673 704.529,547.749 705.102,548.727C706.245,550.675 706.449,550.508 708.308,551.782C710.317,553.159 712.042,553.637 714.243,554.895C714.433,555.003 716.12,555.968 716.677,556.121C716.994,556.208 717.367,556.012 717.662,556.156C718.086,556.362 718.3,556.869 718.707,557.107C719.291,557.448 719.52,557.313 719.581,557.277C720.285,556.863 719.836,556.443 720.549,556.023C724.945,556.16 725.178,556.231 725.563,556.348C726.459,556.62 726.562,556.984 726.665,557.02C727.028,557.149 729.597,556.99 730.587,557.286C730.882,557.375 731.144,557.559 731.439,557.648C731.057,557.967 730.593,558.18 730.21,558.5C729.975,558.697 729.378,558.974 729.598,559.186C730.054,559.626 730.844,559.45 731.434,559.681C731.561,559.73 731.568,559.935 731.687,560C732.078,560.214 734.465,560.93 734.709,561.003C735.008,561.093 735.349,561.042 735.628,561.181C736.036,561.385 736.319,561.785 736.718,562.006C737.562,562.474 737.681,561.965 738.577,562.322C738.994,562.489 739.275,562.898 739.675,563.102C739.95,563.243 740.291,563.211 740.571,563.342C740.774,563.437 740.7,563.539 742.83,565.009C742.984,565.116 744.607,566.235 744.721,566.395C744.907,566.655 744.738,567.054 744.88,567.34C745.081,567.745 745.549,567.987 745.719,568.406C745.803,568.613 745.087,570.654 748.473,572.542C753.689,575.449 756.245,575.636 756.415,575.709C756.55,575.768 756.541,575.999 756.671,576.068C757.5,576.509 757.593,576.205 758.453,576.618C759.461,577.101 759.422,577.148 760.444,577.612C760.855,577.798 761.227,578.072 761.651,578.228C761.94,578.335 762.288,578.247 762.56,578.392C762.966,578.608 763.234,579.026 763.62,579.277C763.869,579.439 764.196,579.454 764.442,579.62C764.584,579.716 764.606,579.933 764.744,580.036C764.889,580.144 764.955,580.017 766.714,581.153C770.355,583.502 769.976,583.944 773.328,586.706C775.397,588.411 776.532,588.487 779.144,590.9C779.389,591.127 781.613,593.181 782.153,593.803C783.572,595.44 783.91,595.287 783.974,596.39C783.998,596.795 783.416,598.731 785.408,600.602C786.78,601.892 788.661,602.095 789.467,602.571C789.714,602.717 789.637,602.812 792.486,604.52C792.639,604.612 793.701,605.248 794.343,605.755C795.43,606.613 795.39,606.636 796.581,607.379C799.743,609.354 799.247,610.191 801.56,611.404C806.814,614.16 806.929,616.364 810.388,617.779C812.303,618.562 814.213,619.27 814.547,619.395C814.817,619.495 817.028,620.622 818.618,621.257C818.899,621.369 819.211,621.405 819.481,621.543C819.873,621.743 820.187,622.084 820.59,622.264C820.731,622.328 821.71,622.766 822.527,622.226C822.944,621.951 823.116,621.392 823.532,621.117L825.508,620.986C825.765,621.191 826.232,620.878 826.489,621.083C826.956,621.455 827.205,622.043 827.493,622.566C827.569,622.704 827.428,622.953 827.564,623.032C827.676,623.097 830.206,623.441 830.535,623.239C830.965,622.976 831.106,622.369 831.536,622.106C833.354,622.175 833.342,622.179 833.499,622.18C835.156,622.189 835.128,622.009 835.51,621.996C835.838,621.984 836.161,622.113 836.489,622.101C836.542,622.149 837.469,624.088 839.59,624.124C839.921,624.13 840.25,624.058 840.58,624.063C840.902,624.121 841.238,623.971 841.56,624.029C841.573,624.031 843.319,624.577 843.472,624.624C843.853,624.744 844.205,625.164 844.589,625.056C845.059,624.924 845.154,624.152 845.623,624.021L847.5,624.189C848.981,623.821 848.968,623.82 850.403,623.277C853.418,622.136 858.093,624.168 859.419,624.683C861.516,625.499 861.841,624.72 863.597,625.263C863.822,625.333 864.367,626.415 871.507,625.986C871.755,626.199 872.236,625.864 872.484,626.077C872.963,626.488 873.185,627.129 873.484,627.684C873.544,627.797 873.435,628.006 873.55,628.061C873.595,628.083 875.368,628.342 875.526,628.365C877.671,628.679 877.894,628.118 879.473,628.688C879.602,628.734 880.279,629.149 881.542,629.339C882.652,629.506 882.599,629.632 883.665,630.004C883.814,630.055 884.882,630.427 885.629,630.107C886.006,629.946 886.207,629.495 886.584,629.333L888.544,630.12C888.866,630.106 889.175,629.971 889.497,629.957C892.171,629.841 893.059,630.544 893.303,630.737C894.743,631.878 894.839,631.689 896.594,632.269C898.185,632.795 900.187,634.372 900.538,634.388C901.074,634.414 901.598,634.151 902.134,634.177C902.336,634.029 902.324,633.685 902.526,633.538C902.688,633.418 902.682,633.213 907.517,633.157C907.901,633.556 908.117,634.098 908.501,634.498C910.737,636.822 913.231,633.434 913.486,633.196C916.503,633.263 916.482,633.297 919.501,633.148C919.9,633.517 920.122,634.049 920.521,634.418C920.757,634.637 921.109,634.691 921.371,634.879C921.963,635.303 921.884,635.726 922.531,635.427C923.042,635.191 923.211,634.464 923.723,634.228L924.66,635.005C925.024,635.316 925.259,635.759 925.623,636.07C925.874,636.285 926.241,636.337 926.481,636.564C926.608,636.684 926.512,636.969 926.664,637.056C927.882,637.752 928.045,637.304 929.294,637.937C929.592,638.088 930.992,639.679 933.519,639.321C934.03,639.248 934.16,638.886 936.485,639.636C936.647,639.689 938.221,640.197 938.577,640.034C939.004,639.838 939.185,639.272 939.612,639.076C943.19,639.177 943.376,638.781 946.399,640.724C946.515,640.799 946.56,640.958 946.677,641.032C947.866,643.518 947.787,644.009 950.538,644.292C952.619,644.506 952.511,643.966 952.704,643.907C952.878,643.853 953.062,644.048 953.241,644.012C953.349,643.99 953.187,643.673 954.459,643.359C955.637,643.069 957.385,643.671 957.429,643.692C957.553,643.754 957.572,643.951 957.698,644.01C958.257,644.272 958.852,644.452 959.442,644.636C959.737,644.728 960.059,644.725 960.347,644.837C960.49,644.893 960.564,645.068 960.706,645.127C961.542,645.479 963.163,645.208 963.909,645.385C964.003,645.407 963.956,645.614 964.049,645.636C964.443,646.025 963.971,647.123 966.507,647.133C966.841,647.134 967.176,647.119 967.511,647.122C969.647,647.142 969.51,647.713 971.577,648.171C972.99,648.485 973.479,649.004 973.624,649.057C973.951,649.176 975.945,648.803 978.267,649.998C981.574,651.7 981.99,650.865 984.298,652.741C985.711,653.89 985.888,653.6 987.31,654.736C987.841,655.16 987.694,655.406 989.589,656.006C991.476,656.604 991.408,656.813 992.291,658.59C992.767,659.547 992.9,659.439 993.159,659.777C993.664,660.435 993.368,660.568 993.799,661.258C993.923,661.456 994.171,661.543 994.339,661.705C994.823,662.173 994.871,662.166 995.512,661.982C997.317,661.462 997.107,661.004 997.384,660.426C997.698,659.77 997.76,659.835 998.268,659.291C999.707,657.75 1003.43,654.811 1012.622,659.252C1013.904,659.871 1018.078,661.208 1018.557,661.362C1019.525,661.672 1019.44,661.894 1019.666,662.029C1020.065,662.686 1020.242,662.534 1020.647,663.201C1021.07,663.895 1020.823,663.972 1020.874,664.016L1022.849,664.456C1022.406,681.111 1023.438,681.402 1022.421,682.418C1022.204,682.635 1021.798,682.579 1021.581,682.796C1021.062,682.582 1021.038,683.092 1020.513,682.875C1020.402,682.829 1020.179,682.737 1019.384,681.888C1019.028,681.509 1018.825,680.992 1018.431,680.652C1017.449,679.806 1015.716,680.405 1015.493,680.482C1013.927,681.024 1014.315,681.47 1013.506,682.912C1010.463,682.803 1010.416,682.626 1007.564,683.665C1006.207,684.16 1006.18,683.879 1005.505,683.848C1004.824,683.817 1004.14,683.904 1003.459,683.864C1003.111,683.843 1002.78,683.687 1002.432,683.666C1001.704,682.271 1001.794,682.231 1000.793,681.037C999.432,679.413 999.707,677.52 998.502,677.467C997.458,677.421 996.876,678.743 996.479,679.484C995.47,681.362 993.18,683.747 992.349,684.098C990.591,684.842 990.326,684.449 988.449,686.451C988.292,686.619 988.082,686.734 987.935,686.91C987.775,687.1 987.717,687.369 987.535,687.538C987.338,687.722 987.048,687.776 986.83,687.935C986.668,688.054 986.577,688.255 986.408,688.364C986.164,688.521 985.865,688.576 985.612,688.718C982.851,690.267 982.774,690.368 982.603,690.594C982.435,690.815 982.577,691.191 982.395,691.401C982.227,691.594 981.87,691.501 981.673,691.664C981.322,691.954 981.071,692.35 980.801,692.716C979.791,694.084 978.243,695.538 978.88,698.449C979.822,702.754 979.84,702.748 979.943,703.423C980.096,704.428 980.046,704.418 980.073,704.5C980.256,705.048 980.447,704.929 980.629,705.475C980.746,705.79 980.454,706.166 980.57,706.481C980.725,706.901 981.13,707.18 981.392,707.542C982.104,708.526 982.099,708.511 982.823,709.503C982.813,711.008 982.81,710.986 982.874,712.5C982.943,714.134 982.733,714.137 982.695,714.581C982.29,714.599 981.905,714.786 981.5,714.803C981.264,714.813 981.006,714.535 980.807,714.661C980.558,714.82 980.623,715.234 980.449,715.473C980.338,715.625 980.091,715.638 979.983,715.792C979.376,716.647 979.702,716.857 977.893,718.811C973.53,723.521 974.282,724.662 970.57,725.613C970.397,725.658 970.414,725.669 968.466,726.367C962.105,729.141 961.683,728.111 955.48,731.467C951.386,733.681 952.57,735.328 953.512,735.373C954.617,735.425 958.805,731.719 964.5,730.554C966.778,730.089 966.683,729.864 968.732,728.792C968.973,728.667 969.294,728.654 969.469,728.446C969.675,728.203 969.581,727.788 969.787,727.544C970.015,727.778 970.365,727.867 970.593,728.101C971.08,728.601 971.875,729.029 971.915,729.726C971.964,730.561 968.856,731.582 968.561,731.679C967.675,731.97 967.775,732.13 967.32,732.366C967.124,732.468 966.796,732.35 966.679,732.538C966.324,733.113 966.923,734.247 966.993,734.379L968.933,735.548C968.903,738.899 968.995,739.775 967.465,740.048C966.951,740.14 964.773,739.442 964.545,739.369C962.309,738.652 961.59,739.744 957.415,740.308L956.581,740.684C956.127,740.509 956.362,739.868 954.573,739.906C954.418,739.909 952.645,739.946 952.639,739.948C952.228,740.135 952.028,740.645 951.621,740.84C951.412,740.941 950.05,740.62 948.568,741.872C948.192,742.19 947.944,742.68 947.501,742.896C947.431,742.93 947.44,742.74 946.528,742.866C946.464,742.875 946.507,743.034 946.442,743.043C945.51,743.364 945.515,743.32 944.581,743.684C943.091,744.264 943.063,744.024 941.49,743.931C940.884,743.668 940.115,744.189 939.508,743.926C939.004,743.708 938.879,743.018 938.489,742.632C938.174,742.32 937.806,742.056 937.412,741.852C937.338,741.814 935.566,741.363 935.544,741.374C934.987,741.672 934.819,742.473 934.262,742.77L933.319,741.936C932.935,741.709 932.784,741.189 932.4,740.962C932.125,740.8 931.734,740.982 931.452,740.832C931.042,740.614 930.83,740.109 930.413,739.905C930.252,739.826 928.683,739.896 928.5,739.996C928.09,740.219 927.868,740.71 927.458,740.933C925.981,740.778 925.957,740.912 924.583,740.328C923.807,739.997 923.825,739.855 920.44,739.87C920.394,737.977 920.512,737.949 920.39,737.842C920.147,737.627 919.727,737.75 919.456,737.573C919.254,737.441 919.211,737.154 919.055,736.969C918.9,736.787 918.663,736.678 918.531,736.479C918.232,736.033 917.649,734.017 916.512,733.481C916.242,733.354 915.924,733.336 915.666,733.184C915.524,733.1 915.499,732.878 915.354,732.797C914.571,732.358 914.503,732.519 913.348,731.784C912.279,731.105 911.627,731.484 911.545,731.436C911.324,731.308 911.558,730.882 911.396,730.685C911.206,730.455 910.864,730.413 910.596,730.283C910.371,730.174 908.569,729.298 907.551,729.61C907.335,729.676 907.193,729.9 906.979,729.974L904.238,730.696C903.64,729.629 903.384,729.69 903.461,728.485C903.481,728.158 903.659,727.856 903.691,727.531C903.725,727.177 903.733,726.813 903.659,726.466C903.128,723.952 902.483,724.075 902.201,723.501C902.472,723.051 903.159,722.964 903.43,722.515C903.777,721.939 903.087,720.948 903.008,720.834C902.897,720.675 902.692,720.601 902.577,720.445C902.414,720.224 902.337,719.95 902.186,719.721C901.162,718.164 900.04,717.63 900.731,713.511C900.891,712.552 902.836,704.862 903,704.323C905.004,697.745 904.563,695.606 906.763,692.751C908.439,690.577 912.276,688.357 912.363,688.288C912.506,688.174 912.539,687.958 912.679,687.842C913.89,686.839 914.099,687.152 914.141,687.024C914.21,686.814 913.815,686.706 913.733,686.5C913.614,686.203 913.675,685.853 913.556,685.556C913.645,685.396 913.967,685.491 914.056,685.332L914.151,682.489C914.503,682.151 914.759,681.721 915.111,681.382C916.1,680.432 916.418,680.608 916.542,679.505C916.675,678.323 915.778,676.522 915.91,675.492C915.955,675.137 916.109,674.805 916.184,674.456C916.806,671.577 914.367,671.999 912.864,673.866C912.423,674.414 910.828,676.395 908.448,681.47C908.257,681.877 908.003,682.262 907.891,682.697C907.809,683.016 908.012,683.383 907.878,683.683C907.69,684.106 907.204,684.337 906.981,684.743C906.835,685.009 906.951,685.369 906.807,685.635C906.478,686.239 906.291,686.083 905.934,686.666C905.683,687.076 905.886,687.14 905.636,687.549C902.929,694.418 902.572,694.308 901.505,699.501C899.416,709.665 896.495,716.477 897.677,721.486C898.081,723.2 897.867,723.217 897.917,723.359C898.057,723.764 898.404,724.073 898.561,724.472C898.674,724.761 898.576,725.113 898.714,725.392C898.799,725.562 899.1,725.547 899.181,725.719C899.31,725.993 899.181,726.339 899.292,726.621C900.081,728.631 901.814,731.386 902.063,731.783C903.38,733.876 903.106,734.05 905.178,736.613C905.662,737.14 905.607,737.169 906.124,737.641C906.362,737.859 906.486,738.227 906.786,738.349C907.123,738.485 907.539,738.214 907.876,738.351L908.709,739.325C908.666,739.743 907.92,739.854 907.877,740.271C907.83,740.728 908.3,741.088 908.486,741.508C908.605,741.777 908.6,742.114 908.792,742.337C908.931,742.498 909.272,742.382 909.392,742.558C909.899,743.306 909.391,743.484 909.89,744.253C909.993,744.411 910.207,744.473 910.313,744.63C910.372,744.717 911.341,746.397 911.43,746.551C911.966,747.481 912.581,748.227 912.693,748.364C912.819,748.517 913.022,748.595 913.144,748.751C913.458,749.155 913.641,749.658 913.99,750.032C914.156,750.21 914.469,750.188 914.641,750.358C914.814,750.53 914.798,750.84 914.975,751.007C915.341,751.354 915.836,751.538 916.226,751.856C916.388,751.989 916.457,752.212 916.617,752.348C916.978,752.654 922.075,756.33 923.703,757.12C924.087,757.306 926.805,758.625 928.41,759.643C928.998,760.016 928.931,760.104 929.579,760.375C929.839,760.483 930.141,760.51 930.369,760.676C930.543,760.802 930.556,761.084 930.73,761.21C930.951,761.372 931.284,761.33 931.5,761.5C931.677,761.639 931.674,761.932 931.841,762.084C932.468,762.653 932.698,762.225 933.31,762.789C933.473,762.94 933.424,763.237 933.576,763.399C933.757,763.591 934.055,763.631 934.26,763.798C934.426,763.934 934.505,764.157 934.671,764.292C934.872,764.455 935.149,764.509 935.345,764.679C935.516,764.828 935.576,765.08 935.748,765.229C935.938,765.393 936.225,765.422 936.405,765.597C936.581,765.767 936.61,766.054 936.782,766.229C936.949,766.399 937.228,766.428 937.393,766.6C937.567,766.783 937.566,767.106 937.767,767.26C937.978,767.421 938.346,767.286 938.534,767.473C938.732,767.669 938.653,768.025 938.787,768.27C939.011,768.683 939.345,769.026 939.596,769.423C939.743,769.656 939.799,769.946 939.976,770.157C940.111,770.317 940.369,770.337 940.501,770.499C940.528,770.532 943.318,776.117 942.681,779.534C942.439,780.832 941.828,782.718 941.795,783.583C941.751,784.754 941.958,784.8 941.528,785.508C940.982,786.406 939.117,786.897 941.731,790.367C942.999,792.049 942.205,793.048 944.495,794.507C945.665,795.253 945.818,795.883 951.738,799.086C953.709,800.153 953.514,800.453 955.527,801.452C956.752,802.061 966.125,808.954 966.707,809.235C966.983,809.368 967.392,809.138 967.618,809.344C967.827,809.536 967.595,809.947 967.748,810.187C967.889,810.41 968.217,810.435 968.418,810.606C968.579,810.743 968.653,810.968 968.82,811.1C969.028,811.264 969.317,811.306 969.523,811.474C969.701,811.619 969.75,811.897 969.945,812.019C970.186,812.169 970.529,812.09 970.765,812.248C971.48,812.726 972.625,814.038 972.772,814.207C973.495,815.036 973.274,815.175 973.977,816.013C974.131,816.197 974.368,816.293 974.537,816.462C977.7,819.618 978.956,821.204 979.305,821.646C979.473,821.858 979.58,822.118 979.77,822.309C979.913,822.454 980.148,822.485 980.285,822.635C980.471,822.839 980.544,823.126 980.712,823.346C980.996,823.716 981.377,824.01 981.633,824.399C981.788,824.634 981.765,824.958 981.925,825.189C982.043,825.36 982.308,825.384 982.431,825.551C982.597,825.776 982.567,826.119 982.759,826.322C982.915,826.487 983.251,826.394 983.394,826.57C983.954,827.258 983.439,827.486 983.968,828.194C984.088,828.354 984.36,828.353 984.472,828.519C984.635,828.759 984.558,829.126 984.749,829.345C984.897,829.514 985.258,829.382 985.387,829.567C985.923,830.33 985.286,830.575 985.874,831.305C985.996,831.456 986.3,831.381 986.403,831.545C986.567,831.806 986.5,832.155 986.591,832.45C986.933,833.559 987.338,833.203 987.551,833.468C987.735,833.697 987.656,834.055 987.791,834.317C988.003,834.726 988.373,835.041 988.577,835.455C988.713,835.734 988.636,836.094 988.795,836.36C988.887,836.513 989.193,836.45 989.268,836.611C989.365,836.82 989.268,836.843 989.846,839.43C989.925,839.782 989.762,840.238 990.01,840.5C990.477,840.994 991.328,840.996 991.795,841.491C991.767,843.227 991.789,850.006 991.736,856.512C991.322,856.965 990.596,857.047 990.182,857.5C989.92,857.787 989.95,858.242 989.819,858.609C989.714,858.906 989.544,859.182 989.475,859.489C989.406,859.795 989.515,860.132 989.41,860.428L988.555,861.697C986.101,861.852 986.098,861.836 508.5,861.836L31.5,861.937C2.31,861.937 2.141,862.013 1.604,861.406C0.94,860.658 1.274,860.471 1.203,778.473C1.521,778.105 1.752,777.667 2.07,777.298C2.277,777.058 2.51,776.838 2.77,776.657C2.948,776.533 3.203,776.537 3.368,776.395C3.928,775.914 3.696,775.717 9.536,769.534C10.825,768.17 11.081,767.156 11.155,767.088C11.248,767.002 11.45,767.696 12.68,766.669C13.642,765.865 14.222,765.129 15.502,762.501C16.034,761.407 16.58,761.457 16.11,760.342C15.952,759.967 15.482,759.783 15.324,759.408L16.175,757.488C16.751,756.839 17.594,757.376 18.218,754.441C18.631,752.5 19.931,749.533 17.204,744.661C13.844,738.659 13.494,738.234 13.083,737.737C12.647,737.208 10.217,734.265 8.423,730.541C6.979,727.544 6.785,727.659 6.641,727.432C6.481,727.181 6.447,726.866 6.301,726.606C6.078,726.212 5.738,725.888 5.539,725.48C5.405,725.208 5.436,724.876 5.318,724.597C5.248,724.432 5.245,724.439 3.669,721.415C2.839,719.821 2.383,719.974 2.045,719.637C1.713,719.304 1.521,718.849 1.188,718.516C1.385,706.875 1.239,675.247 1.222,671.484C1.035,631.014 1.28,631.015 1.138,627.499C1.581,627.04 2.057,626.613 2.5,626.154C3.518,625.101 3.222,624.942 3.582,623.528C3.659,623.223 3.715,622.903 3.867,622.627C3.933,622.506 4.14,622.513 4.207,622.392C4.672,621.55 4.283,621.438 4.66,620.564C4.717,620.431 4.94,620.431 5.006,620.303C5.148,620.027 5.177,619.705 5.257,619.405C5.707,617.724 5.606,617.696 5.679,617.564C5.758,617.422 6.035,617.494 6.121,617.356C6.285,617.091 6.296,616.756 6.368,616.452C6.441,616.144 6.441,615.815 6.556,615.52C6.712,615.118 7.023,614.787 7.173,614.383C7.391,613.797 7.404,613.145 7.653,612.572C7.721,612.415 7.982,612.43 8.083,612.291C8.258,612.049 8.342,611.753 8.448,611.473C8.554,611.193 8.583,610.883 8.719,610.616C8.789,610.478 8.984,610.429 9.049,610.288C9.811,608.66 9.285,608.562 9.364,608.434C9.481,608.245 9.855,608.409 10.002,608.242C10.633,607.523 9.938,607.269 10.466,606.482C10.581,606.311 10.924,606.427 11.042,606.258L11.374,604.44C11.589,604.203 11.531,603.794 11.745,603.557C12.067,603.202 12.553,603.037 12.922,602.731C13.05,602.625 13.133,602.472 13.223,602.333C15.213,599.25 16.071,596.191 16.356,595.447C16.47,595.147 17.599,592.19 17.875,591.733C17.984,591.551 18.224,591.472 18.334,591.289C18.469,591.346 19.067,592.531 22.479,592.205C26,591.868 25.992,592.082 29.463,592.666C31.232,592.963 31.246,592.698 34.554,593.287C36.516,593.637 36.496,593.631 38.453,593.882C42.277,594.371 42.259,593.979 43.437,593.791C44.301,593.702 44.288,593.725 46.54,593.63C46.889,593.627 47.215,593.854 47.565,593.851C51.673,593.81 60.372,590.272 60.429,590.259C61.742,589.96 64.667,589.708 73.499,586.497C73.974,586.324 73.954,586.289 79.329,584.071C79.492,584.003 80.663,583.52 81.33,583.135C81.912,582.799 81.884,582.782 82.526,582.562C85.074,581.688 84.96,581.42 87.537,580.615C88.153,580.422 88.817,580.376 89.409,580.12C89.53,580.067 89.481,579.862 89.544,579.746C89.846,579.186 90.01,578.499 90.5,578.094C90.56,578.044 90.571,578.23 91.483,578.144C91.532,578.139 91.46,578.003 91.509,577.998C91.829,578.007 92.137,578.149 92.457,578.158C92.761,578.166 93.081,578.162 93.362,578.048C93.758,577.888 94.05,577.53 94.439,577.355C94.603,577.282 94.658,577.46 96.576,576.684C97.983,576.115 97.99,576.187 99.501,576.111C101.504,576.01 101.487,576.226 103.497,576.267C103.785,576.272 106.101,576.286 106.5,576.283C107.96,576.274 107.937,576.195 109.41,576.105C109.838,576.307 110.039,576.851 110.466,577.052C110.691,577.158 112.992,576.764 113.495,576.441C114.227,575.969 113.813,575.602 114.511,575.095C114.935,574.787 115.063,575.302 115.488,574.993C117.802,575.155 118.286,575.544 123.36,575.004C124.073,575.374 123.708,575.762 124.423,576.133C124.493,576.169 124.629,576.239 125.402,576.063C125.794,575.974 126.144,575.747 126.534,575.651C126.852,575.572 127.188,575.599 127.51,575.539C128.698,575.319 128.68,575.282 132.459,574.333C134.859,573.73 135.004,572.37 135.49,572.09L138.503,572.188C140.086,572.165 140.125,572.338 141.579,571.678C143.379,570.861 143.431,571.051 145.47,571.081C148.948,569.719 149.031,570.136 149.467,570.087C149.86,570.293 150.013,570.825 150.406,571.031C150.764,571.219 153.249,571.059 153.495,571.043C155.537,570.912 155.513,571.234 157.558,571.157C159.238,571.094 159.109,571.554 160.552,572.4C164.454,574.688 162.631,576.775 164.527,577.445C164.676,577.497 165.838,577.908 166.501,577.493C166.952,577.212 167.127,576.601 167.578,576.319L168.68,578.035C168.997,578.163 169.435,577.859 169.705,578.068C169.792,578.135 170.303,579.54 171.533,580.465C171.713,580.601 171.92,580.704 172.083,580.86C172.267,581.035 172.329,581.357 172.566,581.449C172.726,581.51 172.721,581.446 174.705,581.417C174.456,581.916 175.161,581.912 174.91,582.415C174.53,583.177 174.162,582.8 173.677,583.479C172.8,584.704 174.088,585.717 174.24,585.838C175.247,586.631 176.392,587.209 176.591,587.309C177.859,587.95 178.42,587.18 180.504,587.463C182.069,587.675 182.119,587.943 182.628,588.153C184.361,588.871 184.232,589.069 185.708,590.223C188.224,592.191 188.059,592.36 188.83,593.193C190.804,595.327 193.745,596.228 195.578,595.79C196.041,595.679 200.25,593.445 201.676,590.586C204.327,585.267 205.444,585.252 205.471,584.481C205.477,584.305 205.439,584.322 205.037,582.324C205.203,578.401 205.236,578.414 205.116,574.489C205.035,571.831 205.766,571.745 206.048,570.448C206.115,570.136 206.033,569.805 206.101,569.493C206.414,569.05 205.782,568.949 206.09,568.512C206.17,568.398 206.343,568.154 207.507,567.501C207.661,567.414 207.935,567.569 208.033,567.421C208.219,567.142 208.16,566.762 208.219,566.431C208.78,563.281 207.729,563.201 207.328,562.426L208.069,561.381C208.28,560.969 207.969,560.906 208.179,560.495C208.479,559.909 208.716,560.102 209.016,559.529C209.435,558.727 208.714,556.685 208.631,556.451C208.036,554.766 208.166,554.72 208.074,554.596C207.968,554.452 207.704,554.58 207.548,554.492C207.036,554.205 206.612,553.776 206.099,553.489C206.179,550.979 206.158,551.002 206.138,548.503C206.407,548.05 205.831,547.984 206.1,547.53C206.517,546.828 206.847,547.186 207.317,546.515C207.846,545.762 207.199,542.854 205.508,542.479C204.501,542.255 204.496,542.726 203.499,542.514C203.11,542.432 202.82,542.077 202.435,541.977C201.764,541.801 201.008,541.975 200.373,541.695C200.118,541.583 200.202,541.157 200.046,540.925C199.921,540.738 199.665,540.661 199.55,540.467C199.395,540.208 199.402,539.876 199.262,539.607C199.068,539.232 198.37,538.99 197.937,534.463C197.413,528.985 194.513,529.968 192.655,528.276C191.486,527.212 191.643,526.961 189.598,526.206C186.53,525.072 186.634,524.843 186.367,524.747C186.07,524.641 185.714,524.789 185.423,524.666C185.017,524.494 184.748,524.082 184.349,523.893C184.218,523.832 183.557,523.969 182.681,523.128C182.192,522.657 182.22,522.644 181.671,522.252C179.255,520.525 178.06,520.797 177.472,520.692C177.365,520.673 176.785,520.459 175.527,520.262C173.526,519.948 173.591,519.637 173.423,519.683C172.921,519.82 172.797,520.624 172.295,520.761L171.347,519.972L170.5,518.164C169.451,518.074 169.469,518.019 168.412,517.985C165.676,517.897 165.679,517.96 165.442,517.938C164.652,517.866 164.691,517.734 162.074,516.548L162.016,515.685C161.942,514.985 162.42,514.298 162.345,513.597C162.322,513.382 162.098,513.497 160.963,511.281C160.818,510.998 159.217,507.872 159.109,507.765C158.952,507.611 158.636,507.674 158.504,507.498C158.325,507.259 158.416,506.891 158.263,506.635C158.025,506.235 157.58,505.982 157.359,505.573C157.215,505.305 157.329,504.95 157.206,504.672C156.678,503.482 155.788,502.534 155.636,502.371C153.383,499.969 151.584,501.168 151.283,500.985C149.652,499.994 150.403,498.684 150.506,498.504C150.783,498.021 153.914,497.822 151.143,494.79C149.367,492.848 149.473,492.767 149.267,492.672C149.211,492.646 149.216,492.779 148.5,492.737C147.795,492.696 147.829,492.588 147.116,492.546C147.104,490.642 146.992,490.624 147.103,490.503C147.54,490.025 148.266,489.932 148.84,489.631C149.465,489.304 150.152,487.938 151.538,488.136C152.489,488.273 156.547,491.783 157.607,492.028C157.807,492.074 159.844,492.544 159.656,490.483C159.546,489.281 157.873,488.944 155.275,486.771C152.364,484.336 152.131,484.727 148.705,483.096C146.785,482.183 146.687,482.53 146.523,482.45C146.357,482.37 146.38,482.093 146.236,481.977C146.005,481.792 145.696,481.731 145.439,481.583C144.557,481.076 144.565,480.741 144.417,480.597C143.479,479.681 142.184,479.52 138.571,476.417C137.706,475.675 137.744,475.651 137.06,474.736C136.758,474.332 136.232,474.062 136.083,473.58C135.968,473.204 136.472,472.876 135.732,470.404C134.461,466.153 134.595,466.048 132.992,464.157C132.233,463.263 132.249,462.26 131.5,463.166C131.173,463.561 130.97,464.049 130.643,464.445L129.983,461.48C130.182,461.023 129.91,460.986 130.105,460.538C130.365,459.939 130.561,460.076 130.845,459.5C130.979,459.228 131.11,458.911 131.051,458.614C130.969,458.201 130.541,457.916 130.447,457.506C130.179,456.338 130.664,456.435 131.197,455.377C131.711,454.358 131.78,454.419 132.378,453.436C133.264,451.98 132.673,450.324 132.126,449.926C131.642,449.574 129.715,449.599 129.503,449.602C127.185,449.631 126.86,448.333 126.37,447.592C125.802,446.734 123.424,445.464 124.537,443.521C124.658,443.31 124.763,443.399 126.494,441.195L129.509,441.132C129.925,441.855 130.14,441.677 130.55,442.391C130.783,442.796 130.484,442.882 130.736,443.267C130.86,443.455 131.188,443.411 131.333,443.583C131.528,443.816 131.471,444.217 131.7,444.415C132.06,444.725 132.632,444.705 132.994,445.014C133.304,445.279 133.303,445.813 133.628,446.061C133.887,446.259 134.33,446.04 134.592,446.235C134.782,446.376 134.719,446.409 136.384,448.591C138.769,451.72 138.662,451.812 141.649,454.357C142.151,454.784 142.253,454.708 142.551,455.473C142.665,455.765 142.729,456.076 142.853,456.365C142.929,456.542 143.663,458.253 144.549,458.072C145.021,457.976 145.15,457.2 145.622,457.103L146.554,457.162C146.808,457.651 147.231,458.038 147.484,458.526C147.608,458.764 147.525,459.082 147.668,459.309C147.759,459.455 147.847,459.359 149.324,460.692C149.494,460.846 149.563,461.107 149.76,461.226C149.996,461.37 150.343,461.272 150.56,461.444C150.75,461.595 150.628,462.152 150.867,462.106C151.341,462.017 151.501,461.266 151.975,461.176L152.716,462.034C152.867,462.33 152.578,462.736 152.73,463.033C152.867,463.302 153.277,463.315 153.484,463.535C153.632,463.692 153.616,463.959 153.757,464.123C153.932,464.327 154.213,464.416 154.402,464.607C156.296,466.519 154.92,468.324 157.478,468.587C157.807,468.622 158.141,468.579 158.472,468.601C159.61,468.675 159.518,468.914 160.441,469.606C161.124,470.118 161.273,469.894 162.731,471.251C163.503,471.97 166.031,474.828 166.866,475.311C166.968,475.37 166.973,475.331 168.312,475.583L168.695,476.398C168.37,477.084 167.99,476.751 167.664,477.439C167.631,477.509 167.5,477.784 167.747,478.395C167.915,478.808 168.326,479.09 168.498,479.501C168.525,479.564 168.502,480.109 168.834,481.405C169.108,482.473 169.012,482.478 169.236,483.566C169.552,485.096 169.885,484.915 171.126,485.871C171.279,485.989 172.632,487.373 172.659,487.432C172.803,487.743 172.582,488.117 172.622,488.456C172.727,489.336 173.212,489.523 173.261,489.612C173.706,490.427 173.314,490.579 173.854,491.348C173.947,491.481 174.2,491.438 174.282,491.578C174.441,491.85 174.448,492.186 174.524,492.492C174.583,492.729 175.057,494.633 174.646,495.549C174.502,495.869 174.187,496.09 174.029,496.403C173.657,497.142 173.569,497.288 174.224,497.788C174.721,498.168 174.78,497.955 175.186,497.988C175.346,498.001 175.471,498.138 175.624,498.184C177.255,498.681 177.265,498.605 177.387,498.686C177.552,498.793 177.569,499.05 177.725,499.17C178.343,499.641 179.496,500.088 179.658,500.151C179.946,500.263 180.277,500.228 180.568,500.331C181.425,500.636 181.563,501.106 181.647,501.163C181.901,501.334 182.208,501.406 182.496,501.511C184.267,502.153 186.21,502.293 186.539,502.316C188.569,502.463 188.437,503.061 188.617,503.172C188.885,503.338 189.208,503.389 189.511,503.473C189.813,503.556 190.145,503.541 190.43,503.671C190.558,503.729 190.557,503.949 190.685,504.007C190.967,504.133 191.286,504.153 191.592,504.192C193.448,504.426 193.453,504.132 193.598,504.2C194.038,504.405 194.245,504.936 194.644,505.213C194.891,505.384 195.219,505.393 195.494,505.513C195.787,505.641 196.061,505.808 196.344,505.955C198.935,507.299 199.333,506.501 201.632,508.317C203.746,509.986 204.585,509.442 204.78,509.5C205.116,509.6 205.337,509.931 205.648,510.094C205.925,510.24 206.263,510.253 206.528,510.419C206.861,510.626 206.795,510.908 208.394,511.692C211.067,513.004 211.17,512.685 211.399,512.799C211.525,512.861 211.492,513.094 211.615,513.162C212.454,513.623 212.599,513.127 213.438,513.62C213.602,513.715 213.562,514.005 213.715,514.115C213.955,514.289 214.283,514.288 214.547,514.421C214.95,514.625 215.278,514.981 215.707,515.124C216.016,515.226 216.386,515.001 216.684,515.133C217.093,515.314 217.292,515.827 217.701,516.009C217.994,516.138 218.376,516.154 218.662,516.01C219.045,515.816 219.164,515.268 219.547,515.075L220.607,517.123C221.416,517.688 221.763,517.018 224.743,519.17C227.075,520.855 226.761,521.203 228.997,523.009C229.417,523.349 229.575,523.383 229.633,523.396C229.794,523.43 229.785,523.398 231.685,523.428C231.706,523.779 231.85,524.116 231.872,524.467C232.124,528.617 230.283,528.996 231.404,529.591C233.306,530.6 233.469,529.689 239.502,530.016C243.433,530.229 243.314,531.4 245.431,532.609C246.323,533.118 246.364,533.046 247.043,533.838C247.579,534.462 247.544,534.488 248.217,534.965C248.357,535.064 248.468,535.202 248.608,535.302L250.539,536.127C250.932,536.185 250.911,535.767 255.507,536.036C257.514,536.153 257.495,536.113 259.506,536.116C259.934,536.888 260.047,536.8 260.478,537.576C260.769,538.099 260.618,538.144 260.652,538.181C260.852,538.397 261.185,538.435 261.427,538.601C261.591,538.712 261.69,538.904 261.86,539.004C262.96,539.651 263.036,539.309 264.507,539.294C265.641,539.282 267.329,539.989 269.514,539.595C272.338,539.086 272.254,538.803 272.552,538.744C272.881,538.679 273.217,538.849 273.553,538.853C276.374,538.892 277.739,536.853 281.502,531.501C282.83,529.612 284.215,528.912 284.125,527.499C284.104,527.168 283.912,526.862 283.894,526.53C283.874,526.172 284.139,525.796 284.012,525.46C283.847,525.022 283.256,524.837 283.091,524.398L283.172,523.473L284.729,521.608C284.891,521.473 285.159,521.515 285.318,521.376C285.513,521.206 285.563,520.914 285.739,520.725C285.908,520.543 286.179,520.473 286.338,520.282C286.474,520.119 286.402,519.785 286.596,519.699C287.165,519.448 287.831,519.521 288.431,519.356C288.795,519.256 288.985,519.07 289.023,519.032C289.277,518.783 289.112,518.687 289.362,518.443C289.377,518.124 289.53,517.822 289.545,517.503C289.654,515.327 288.993,515.512 287.076,514.497C287.089,512.078 287.24,512.096 287.311,511.419C289.238,512.35 289.203,512.465 289.381,512.419C289.579,512.367 291.827,508.94 290.327,507.708C289.881,507.341 288.718,507.538 288.32,506.675C288.144,506.293 288.163,505.794 287.862,505.5C287.377,505.026 286.577,504.971 286.091,504.497C287.674,502.945 287.864,503.104 288.682,501.615C290.597,498.13 288.532,498.024 288.296,495.513C288.166,494.127 289.002,493.419 289.032,493.354C289.119,493.172 289.377,491.809 289.369,491.475C289.336,490.01 289.171,490.041 289.17,488.57C289.167,484.961 284.475,483.92 284.123,483.515C283.902,483.261 284.388,482.76 284.167,482.506L284.173,479.488C284.542,479.049 285.211,478.938 285.58,478.5C285.858,478.17 285.849,477.679 286.026,477.286C286.888,475.366 287.96,475.33 286.832,473.355C285.978,471.859 286.18,471.765 286.085,471.65C285.97,471.511 285.727,471.57 285.57,471.48C285.063,471.187 284.449,470.983 284.107,470.508C283.911,470.236 284.344,469.775 284.148,469.503L284.12,467.486C284.876,467.053 284.794,466.951 285.555,466.516C286.056,466.229 286.086,466.377 286.118,466.343C286.214,466.239 285.997,466.13 286.871,464.748C288.673,461.895 288.34,461.742 288.5,461.5C288.617,461.324 288.914,461.36 289.066,461.213C289.265,461.02 289.336,460.724 289.518,460.515C289.671,460.339 289.892,460.234 290.06,460.073C291.347,458.838 291.35,458.866 292.636,457.647C295.633,454.807 293.453,454.173 293.141,453.467C293.01,453.172 293.329,452.795 293.198,452.5L293.093,450.61C293.038,450.481 292.812,450.512 292.729,450.399C292.45,450.019 292.611,449.951 292.334,449.573C292.423,449.372 293.252,449.134 293.219,447.573C293.192,446.291 292.626,445.519 292.609,445.461C292.336,444.519 292.777,443.891 290.646,439.438C290.52,439.174 289.5,437.042 288.541,436.445C286.045,434.89 285.85,435.564 285.518,435.451C285.356,435.396 285.417,435.09 285.271,434.999C284.992,434.824 284.628,434.572 284.327,434.708C283.831,434.931 283.728,435.694 283.232,435.917C283.224,435.908 282.384,435.593 282.17,434.585C281.77,432.705 282.224,431.648 282.324,431.414C282.908,430.053 284.765,430.091 285.615,428.574C286.496,426.999 286.709,427.202 288.223,426.229L289.291,423.417C289.981,423.478 290.499,424.204 291.189,424.265C291.427,424.286 292.427,422.663 292.52,422.513C292.663,422.281 292.783,422.035 292.938,421.811C294.705,419.24 294.887,419.392 295.036,419.166C295.343,418.699 295.523,418.156 295.82,417.682C296.396,416.766 299.472,413.739 299.605,413.622C300.136,413.152 300.121,413.164 300.66,412.678C301.47,411.947 301.547,412.065 302.348,411.321C302.507,411.174 302.572,410.944 302.733,410.801C302.929,410.627 303.202,410.558 303.4,410.387C304.395,409.529 304.678,408.751 304.746,408.664C304.866,408.509 305.098,408.465 305.213,408.307C305.378,408.08 305.4,407.771 305.561,407.543C305.682,407.372 305.903,407.296 306.04,407.138C306.213,406.939 306.297,406.67 306.482,406.482C306.66,406.301 306.941,406.242 307.109,406.052C307.269,405.871 307.263,405.574 307.435,405.404C307.632,405.21 308.011,405.24 308.165,405.01C308.323,404.774 308.034,404.326 308.267,404.163C308.548,403.966 308.99,404.374 309.295,404.217C309.512,404.105 309.32,403.666 309.516,403.519C309.622,403.439 309.775,403.977 311.111,403.023C311.284,402.899 311.383,402.69 311.554,402.564C312.644,401.757 312.694,401.85 313.733,400.972C314.568,400.266 315.265,400.253 315.368,400.212C317.286,399.451 318.155,398.122 319.465,397.44C320.561,396.87 320.469,396.749 320.567,396.709C320.864,396.589 321.2,396.612 321.514,396.554C321.663,396.527 323.107,396.263 323.341,396.084C323.489,395.972 323.427,395.719 323.517,395.557C323.8,395.049 324.171,394.594 324.454,394.086C325.073,393.842 325.071,393.858 327.413,393.076C328.101,393.456 327.728,393.829 328.417,394.21C328.48,394.245 328.769,394.405 329.305,394.122C329.677,393.925 329.925,393.552 330.226,393.256C331.651,391.854 331.468,391.702 331.599,391.591C331.799,391.422 332.108,391.441 332.329,391.302C332.51,391.187 332.614,390.978 332.781,390.844C334.226,389.686 334.249,389.735 334.45,389.448C334.602,389.23 334.534,388.898 334.7,388.69C334.844,388.509 335.151,388.531 335.313,388.366C335.684,387.988 336.433,386.665 336.521,386.511C336.602,386.367 337.067,385.546 337.783,384.881C338.414,384.295 338.569,384.564 339.216,384.027C339.366,383.903 339.351,383.631 339.514,383.525C339.761,383.365 340.102,383.419 340.364,383.285C340.774,383.075 341.13,382.773 341.504,382.505C343.203,381.288 344.47,376.679 344.483,376.495C344.507,376.156 344.302,375.8 344.409,375.477C344.556,375.032 345.016,374.747 345.203,374.318C345.336,374.01 345.143,373.59 345.345,373.322C345.512,373.101 345.948,373.278 346.138,373.077C346.321,372.883 346.101,372.459 346.313,372.296C346.56,372.105 346.963,372.35 347.248,372.221C347.464,372.124 347.505,371.808 347.698,371.671C347.904,371.524 348.191,371.53 348.406,371.396C348.437,371.376 348.788,370.926 349.524,370.543C351.358,369.591 351.322,369.531 351.488,369.462C351.774,369.344 352.105,369.393 352.406,369.316C353.354,369.073 353.378,368.705 353.554,368.574C353.773,368.41 354.075,368.377 354.286,368.202C354.443,368.072 354.454,367.809 354.619,367.69C355.352,367.162 355.527,367.551 356.253,367.031C356.398,366.927 356.386,366.669 356.54,366.581C356.808,366.431 357.141,366.452 357.436,366.365C358.372,366.087 358.308,365.967 358.649,365.806C358.681,365.791 363.103,364.148 364.235,363.179C365.248,362.312 365.267,362.361 365.35,362.282C365.492,362.148 365.494,361.901 365.642,361.773C365.93,361.526 367.188,361.129 367.327,361.085C369.463,360.412 369.448,360.413 371.561,359.666C373.176,359.094 373.548,359.529 374.364,358.012C374.511,357.738 374.304,357.358 374.451,357.084L376.398,356.305C377.064,356.628 376.76,356.977 377.424,357.299C377.496,357.334 377.835,357.498 378.42,357.286C378.835,357.135 379.1,356.694 379.514,356.538C380.109,356.315 380.877,356.551 381.387,356.171C381.608,356.008 381.042,355.741 380.911,355.5C380.766,355.234 380.71,354.926 380.565,354.66C380.862,354.572 381.123,354.388 381.42,354.3C382.298,354.04 383.445,354.175 387.474,354.069C388.133,354.47 387.784,354.802 388.445,355.204C388.513,355.246 388.62,355.311 389.441,355.265C390.131,355.227 390.809,355.044 391.5,355.034C392.849,355.013 393.792,356.054 394.5,356.5C396.416,357.704 396.316,357.911 396.726,358.315C398.441,360.004 399.741,360.258 399.765,360.27C399.557,360.757 398.87,360.927 398.662,361.414C398.635,361.477 400.281,366.154 402.466,367.54C402.864,367.792 403.299,367.986 403.682,368.26C404.064,368.534 404.347,368.939 404.751,369.177C404.997,369.322 405.369,369.19 405.583,369.379C405.763,369.538 405.603,369.901 405.768,370.076C405.961,370.281 406.284,370.303 406.547,370.404C406.834,370.515 407.148,370.566 407.42,370.712C407.537,370.775 407.564,370.952 407.683,371.014C407.736,371.042 409.378,371.581 409.469,371.599C409.787,371.664 410.121,371.629 410.439,371.697C412.17,372.069 412.185,372.215 412.6,372.003C412.987,371.805 413.139,371.283 413.526,371.085C413.933,371.327 414.12,371.851 414.526,372.093C414.749,372.226 415.619,372.23 417.463,372.27C419.538,372.315 419.459,371.857 421.5,371.498C423.334,371.175 423.566,370.233 423.906,369.729C424.552,368.774 424.401,368.714 424.899,367.694C424.964,367.561 425.129,367.493 425.188,367.357C425.506,366.629 425.463,366.537 425.432,366.47C425.065,365.67 424.595,366.065 424.232,365.275L425.028,364.346C426.752,362.669 427.11,362.871 427.41,361.482C428.151,358.057 427.837,357.847 430.108,355.163C432.505,352.331 432.177,351.661 432.027,351.354C431.734,350.755 431.332,351.08 431.128,350.444C431.032,350.144 431.128,350.156 431.12,346.504C431.617,346.001 432.491,346.003 432.988,345.5C433.243,345.242 433.089,344.78 433.174,344.428C433.511,343.027 435.048,340.504 435.108,340.356C435.76,338.754 434.398,335.664 433.913,335.406C433.309,335.084 432.565,334.965 432.079,334.484C431.848,334.256 432.23,333.742 431.999,333.514C432.136,332.012 432.167,332.036 432.139,330.51C432.501,330.042 433.24,329.971 433.602,329.503C433.936,329.069 433.383,326.976 433.114,326.664C432.988,326.519 432.737,326.57 432.569,326.477C432.064,326.198 431.611,325.832 431.106,325.552L430.317,323.579C430.285,323.232 430.113,322.909 430.082,322.562C430.02,321.89 430.139,321.205 430.039,320.537C429.82,319.076 428.753,318.488 428.571,318.387C427.006,317.524 426.981,317.572 425.697,316.3C423.957,314.575 423.26,315.332 421.99,313.252C420.723,311.178 420.906,310.829 418.588,310.117C415.72,309.237 413.523,307.143 410.455,308.41C409.693,308.725 408.338,310.4 407.606,310.702C407.275,310.839 407.218,310.679 403.405,312.251C402.062,312.805 402.027,312.633 400.56,312.845C400.181,312.643 399.985,312.182 399.607,311.98C399.155,311.74 395.033,311.587 394.443,311.934C394.053,312.163 393.862,312.653 393.472,312.882C392.485,312.908 392.505,312.979 391.503,312.933C390.515,312.888 390.524,312.942 390.439,312.931C388.936,312.742 388.416,311.739 387.303,310.877C387.155,310.588 387.391,310.194 387.243,309.904L385.5,308.27L384.5,307.919C378.687,308.085 378.758,307.482 375.577,306.324C374.935,306.091 374.968,306.062 374.382,305.741C371.872,304.367 371.817,304.473 371.62,304.322C371.442,304.184 371.389,303.932 371.246,303.757C371.011,303.473 370.734,303.464 370.534,302.487C370.301,301.342 370.605,300.986 369.481,300.713C369.386,300.69 367.702,301.424 367.506,301.597C367.099,301.956 366.875,302.493 366.468,302.853C366.09,302.42 365.877,303.337 365.502,302.907C365.427,302.821 365.423,302.817 365.287,301.5C365.268,301.315 365.414,301.088 365.299,300.942C365.112,300.702 364.771,300.639 364.504,300.495C362.963,299.661 362.443,298.89 362.168,298.898C361.757,298.91 361.676,299.727 361.265,299.739L360.357,298.953C360.07,299.028 359.756,298.93 359.469,299.005C357.846,299.432 357.986,299.813 357.917,301.495L357.793,304.519C357.299,304.743 356.981,305.266 356.487,305.49C356.196,305.622 355.838,305.461 355.53,305.545C353.851,306.002 353.538,309.785 353.238,310.363C352.056,312.643 351.679,312.377 351.608,312.586C351.507,312.887 351.664,313.248 351.527,313.535C351.292,314.03 350.769,314.349 350.534,314.843L347.462,314.846L346.268,312.891C345.541,312.334 343.567,312.976 341.638,311.352C341.454,311.197 340.654,310.496 340.569,310.422C340.341,310.222 340.326,309.815 338.538,309.388C338.228,309.314 337.89,309.337 337.6,309.205C337.471,309.146 337.484,308.925 337.362,308.851C337.096,308.689 336.773,308.648 336.486,308.527C335.916,308.288 333.826,306.867 334.121,304.34C334.159,304.019 334.124,303.632 334.344,303.395C334.533,303.192 334.937,303.392 335.159,303.224C335.371,303.064 335.334,302.707 335.513,302.511C335.628,302.384 335.709,302.479 337.149,301.116C337.596,300.693 337.491,300.58 338.329,300.19C338.715,300.011 339.188,299.971 339.5,299.682C339.939,299.275 340.054,298.592 340.493,298.184L343.536,298.14C343.712,299.992 343.633,300.003 343.725,300.134C343.765,300.189 343.758,300.18 344.452,300.574C345.914,301.403 345.805,301.759 347.492,301.821C349.802,301.905 353.412,299.469 353.452,299.423L354.458,297.07C354.879,296.614 355.098,296.977 355.521,296.518C355.58,296.454 355.908,296.099 355.911,295.495C355.92,293.681 354.353,294.384 354.079,292.582L354.169,290.502L354.081,288.492C356.189,288.425 356.399,287.984 359.681,290.204C363.282,292.64 367.372,293.47 368.656,294.242C369.624,294.823 369.629,294.78 370.588,295.346C371.722,296.016 379.755,298.781 380.619,299.026C384.686,300.179 389.704,302.412 393.541,303.112C395.94,303.549 396.493,304.124 398.5,304.504C401.009,304.978 400.985,305.024 403.435,305.705C406.219,306.479 406.086,306.751 407.17,307.476L409.56,305.199C406.637,304.031 406.66,304.012 405.466,303.6C403.175,302.811 378.678,296.59 370.583,292.314C367.345,290.604 364.933,290.445 362.303,288.846C357.039,285.647 356.919,285.846 356.523,285.485C356.29,285.273 356.259,284.902 356.049,284.667L354.076,283.525C354.363,283.094 354.979,282.958 355.266,282.527C355.379,282.358 355.412,281.025 355.218,280.599C355.036,280.2 354.674,279.902 354.489,279.504C354.359,279.226 354.374,278.9 354.29,278.605C354.005,277.607 353.562,277.315 351.064,274.905C349.554,273.448 349.722,272.583 349.68,272.43C349.601,272.138 349.536,271.814 349.328,271.595C348.97,271.218 348.441,271.044 348.044,270.708C347.673,270.395 347.405,269.971 347.034,269.657L346.014,267.704C346.234,267.181 347.037,267.063 347.257,266.539C347.265,266.52 346.861,264.571 346.826,264.4C346.358,262.14 345.72,262.171 344.53,260.476C344.375,260.255 344.235,260.022 344.075,259.804C341.043,255.686 341.455,255.438 340.294,253.614C338.618,250.98 336.296,251.631 334.695,250.11C332.415,247.943 332.223,248.229 329.365,246.825C325.121,244.741 322.243,243.534 321.614,243.271C318.067,241.783 317.876,242.358 314.387,240.779C310.07,238.826 309.976,239.14 305.459,237.605C304.996,237.442 304.979,237.588 304.529,237.429C303.889,237.204 303.961,237.102 303.346,236.861C301.737,236.229 301.666,236.474 301.541,236.394C301.389,236.296 301.485,235.989 301.331,235.895C301.063,235.73 300.698,235.577 300.409,235.699C299.935,235.899 299.761,236.558 299.288,236.758L298.327,235.97C298.051,235.871 297.726,236 297.45,235.901C296.425,234.02 296.489,233.989 296.345,233.874C296.287,233.827 296.279,233.821 295.491,233.521C295.209,233.414 294.909,233.352 294.636,233.224C292.726,232.326 292.633,232.643 292.469,232.565C292.057,232.37 291.798,231.931 291.393,231.721C291.117,231.579 290.757,231.679 290.481,231.538C290.075,231.332 289.802,230.913 289.396,230.705C289.122,230.565 288.768,230.653 288.49,230.52C288.083,230.326 287.782,229.955 287.384,229.743C287.116,229.6 286.782,229.612 286.514,229.468C286.117,229.253 285.801,228.911 285.413,228.68C284.992,228.429 283.234,227.914 281.376,226.729C278.617,224.97 276.58,224.539 276.283,221.512C276.129,219.941 276.107,219.955 275.581,218.463C275.23,217.465 274.99,217.635 274.779,217.334C274.614,217.1 274.57,216.799 274.44,216.543C273.995,215.669 273.622,215.641 273.494,215.506C273.327,215.329 273.273,215.063 273.1,214.892C272.93,214.723 272.653,214.685 272.489,214.51C272.303,214.311 272.301,213.964 272.082,213.803C271.86,213.64 271.427,213.852 271.277,213.621C271.088,213.329 271.316,212.925 271.289,212.578C271.261,212.216 270.795,210.174 269.766,208.368C268.769,206.616 268.627,206.744 266.58,204.427C265.228,202.896 265.35,202.803 265.223,202.68C265.083,202.544 264.858,202.527 264.712,202.399C263.782,201.587 264.097,200.78 264.072,200.658C264.049,200.548 263.318,198.739 263.261,198.651C263.164,198.501 262.95,198.448 262.863,198.291C262.521,197.677 261.634,195.709 261.532,195.482C261.183,194.708 260.656,194.447 260.606,194.396C260.442,194.231 260.358,193.993 260.183,193.839C259.997,193.674 259.721,193.629 259.543,193.456C259.37,193.287 259.327,193.014 259.157,192.841C258.989,192.67 258.721,192.62 258.554,192.447C258.383,192.271 258.334,192.002 258.169,191.82C258.012,191.647 257.766,191.572 257.607,191.401C257.437,191.218 257.359,190.963 257.197,190.772C257.053,190.602 256.1,189.476 255.281,188.739C253.802,187.408 253.725,187.517 253.601,187.398C253.428,187.23 253.358,186.976 253.192,186.802C253.029,186.632 252.79,186.549 252.628,186.379C251.486,185.184 250.771,183.751 247.62,181.329C245.339,179.575 243.931,179.218 243.797,179.127C243.62,179.007 243.559,178.768 243.404,178.621C241.928,177.227 241.756,177.463 241.631,177.34C241.461,177.174 241.433,176.903 241.283,176.718C240.819,176.148 240.749,176.226 240.361,175.594C239.072,173.496 239.092,173.465 237.165,171.948C236.521,171.441 236.445,171.583 235.794,171.06C232.789,168.648 232.69,168.786 232.441,168.563C232.261,168.402 232.236,168.113 232.059,167.948C231.953,167.849 230.754,167.288 229.303,165.72C227.1,163.339 227.402,163.14 225.679,160.391C225.017,159.335 224.443,157.526 223.427,156.58C223.234,156.4 222.953,156.337 222.754,156.164C222.597,156.026 222.537,155.798 222.379,155.661C221.87,155.22 217.254,152.313 216.804,152.029C213.987,150.256 213.887,150.433 213.657,150.258C213.496,150.136 213.48,149.884 213.333,149.745C212.431,148.893 209.779,147.86 208.614,145.44C207.189,142.48 202.432,139.962 198.547,137.426C195.846,135.662 196.085,135.324 194.502,134.497C193.497,133.971 193.573,133.89 192.6,133.335C190.786,132.299 190.729,132.455 190.574,132.364C190.423,132.276 190.374,132.065 190.226,131.971C189.742,131.664 189.183,131.485 188.7,131.176C188.543,131.075 188.482,130.865 188.331,130.757C188.103,130.595 187.811,130.54 187.581,130.381C187.578,130.379 183.671,127.03 183.331,126.739C181.6,125.255 181.285,125.524 180.26,123.611C179.851,122.848 180.118,122.686 178.763,121.248C175.634,117.928 175.672,117.895 175.379,117.629C172.995,115.467 173.229,115.23 170.693,113.243C170.428,113.035 167.982,111.118 167.502,110.499C167.344,110.295 167.385,109.478 164.171,106.901C162.205,105.327 162.667,104.923 160.913,103.099C160.439,102.605 160.402,102.671 159.907,102.173C159.364,101.627 159.585,101.471 159.04,100.943C158.869,100.778 158.605,100.732 158.437,100.565C158.273,100.404 158.229,100.147 158.069,99.982C157.53,99.423 157.406,99.601 156.833,99.07C152.074,94.663 151.842,94.959 151.43,94.576C151.251,94.408 151.208,94.133 151.048,93.946C150.895,93.767 150.664,93.669 150.505,93.495C150.187,93.15 150.111,92.696 148.501,91.499C148.367,91.399 147.781,90.964 146.92,90.14C145.612,88.889 145.667,88.865 144.54,87.467C144.369,87.255 144.308,86.956 144.103,86.777L142.024,85.665L141.324,84.591C141.604,83.966 141.924,84.223 142.204,83.598C142.236,83.525 142.419,83.118 142.215,82.601C141.997,82.047 141.528,82.254 141.26,80.588C141.082,79.481 141.015,79.514 140.677,78.43C140.269,77.12 140.551,76.904 139.731,76.454C139.177,76.15 138.506,75.975 138.096,75.495C137.887,75.251 138.297,74.777 138.088,74.533C138.427,74.081 139.096,73.956 139.434,73.504C139.997,72.754 138.735,68.534 138.705,68.5C138.296,68.045 137.568,67.967 137.16,67.513L137.163,65.494C137.531,65.074 136.733,64.923 137.109,64.494C137.76,63.752 137.947,64.074 138.819,63.606C139.191,63.407 139.445,63.049 140.001,61.353C140.118,60.998 141.072,58.087 142.452,57.377C142.748,57.224 143.118,57.38 143.45,57.352C145.558,57.17 146.344,55.738 146.481,55.488C148.135,52.475 146.512,51.601 146.2,50.551C145.916,49.594 146.362,49.574 146.152,48.618C146.092,48.346 145.764,46.861 144.394,45.618C141.655,43.132 137.049,43.643 136.482,43.971C136.104,44.189 135.864,44.604 135.485,44.823L134.503,44.888C133.463,42.89 133.529,42.861 133.381,42.734C133.158,42.542 132.828,42.526 132.57,42.383C130.76,41.375 130.763,41.408 130.616,41.306C130.463,41.199 130.443,40.954 130.287,40.851C129.802,40.53 129.235,40.352 128.732,40.06C127.915,39.586 128.022,39.448 127.205,38.978C124.059,37.167 124.014,37.257 123.744,37.095C123.59,37.003 123.513,36.814 123.363,36.715C121.854,35.716 121.747,35.923 120.297,34.825C119.709,34.38 116.433,32.671 110.147,27.987C105.897,24.819 105.796,24.969 103.284,22.765C100.79,20.578 100.655,20.749 100.457,20.54C100.276,20.348 100.243,20.05 100.081,19.842C99.95,19.673 99.725,19.593 99.593,19.425C99.524,19.337 99.558,19.327 98.749,18.299C97.913,17.235 97.634,16.624 97.562,16.465C96.785,14.765 95.948,14.232 94.022,11.986L95.5,10C96.012,9.929 96,10.07 96.5,10C97.027,9.926 96.981,9.811 97.498,9.721C98.059,9.624 101.843,9.653 102.5,9.653C204.377,9.653 204.394,9.673 204.922,9.5C205.181,9.415 205.267,9.063 205.5,8.922C205.808,8.736 206.179,8.681 206.51,8.54C208.405,7.731 208.361,7.632 208.536,7.594C209.46,7.392 209.814,8.264 211.563,6.567C211.694,6.439 213.344,5.11 213.5,4.985L213.985,3.5L214.5,3.491L215.5,3.5L1020.5,3.5L1020.5,281.5L1019.5,281.5L1018.5,282.5L1019.699,283.907L1022.827,282.538C1023.234,287.872 1022.636,289.897 1022.803,298.517C1022.816,299.211 1022.916,299.907 1022.854,300.599C1022.797,301.239 1022.587,301.473 1022.534,301.532C1022.192,301.912 1021.993,301.557 1021.653,301.935C1021.137,301.599 1021.014,300.828 1020.497,300.491C1019.608,299.912 1012.266,303.527 1011.722,303.878C1011.565,303.979 1011.564,304.238 1011.41,304.342C1010.688,304.825 1010.554,304.51 1009.812,304.996C1009.659,305.097 1009.585,305.293 1009.432,305.395C1009.197,305.553 1008.898,305.602 1008.666,305.766C1008.515,305.873 1008.459,306.085 1008.306,306.191C1008.159,306.292 1008.067,306.12 1006.359,307.29C1004.66,308.455 1004.686,308.46 1004.533,308.549C1004.293,308.689 1004.003,308.758 1003.802,308.951C1003.648,309.099 1003.685,309.394 1003.516,309.525C1003.234,309.742 1003.053,309.42 999.66,311.747C997.358,313.326 997.278,313.198 996.642,313.709C996.493,313.828 996.424,314.032 996.266,314.138C995.804,314.449 995.27,314.641 994.803,314.944C994.643,315.049 994.555,315.242 994.399,315.353C994.165,315.519 991.621,317.323 991.446,317.38C989.578,317.99 989.434,317.183 987.599,317.915C987.211,318.07 986.902,318.388 986.513,318.54C986.22,318.654 985.888,318.627 985.581,318.699C985.291,318.767 984.966,318.784 984.725,318.96C984.569,319.074 984.656,319.383 984.496,319.492C984.251,319.658 983.894,319.563 983.632,319.701C982.117,320.499 975.37,325.927 972.432,327.371C970.77,328.187 969.075,329.283 968.52,329.538C968.254,329.66 967.956,329.722 967.718,329.892C967.572,329.996 967.557,330.234 967.405,330.33C966.667,330.799 966.553,330.519 965.794,330.982C962.061,333.257 961.842,332.807 959.69,333.941C959.562,334.008 959.536,334.206 959.405,334.268C958.854,334.526 958.236,334.621 957.686,334.882C957.542,334.951 957.505,335.162 957.364,335.237C956.433,335.734 956.224,335.376 954.183,337.13C953.637,337.599 953.658,337.599 953.127,338.079C951.087,339.924 950.947,339.742 950.779,339.911C950.629,340.062 950.658,340.352 950.486,340.476C950.247,340.648 949.904,340.603 949.64,340.733C947.351,341.869 945.905,343.343 945.627,343.626C942.848,346.458 943.1,346.745 939.751,348.891C939.658,348.951 939.046,349.343 938.624,349.688C938.077,350.135 938.122,350.171 937.506,350.509C937.26,350.644 936.036,351.317 934.813,352.77C934.351,353.319 934.373,353.32 933.89,353.838C932.423,355.411 932.492,355.452 930.963,356.937C929.408,358.447 929.633,358.63 928.123,360.184C926.642,361.708 926.698,361.747 925.639,363.577C924.21,366.045 925.323,366.462 925.847,367.351C926.062,367.717 926.466,368.081 926.398,368.5C926.375,368.644 924.414,370.035 923.695,372.625C923.615,372.913 923.705,373.284 923.496,373.497C923.299,373.699 922.924,373.552 922.669,373.673C922.663,373.676 921.935,374.542 920.549,374.685C920.202,374.721 919.85,374.654 919.503,374.689C919.41,374.698 915.792,375.601 919.147,376.989C920.918,377.721 920.928,377.698 921.048,377.812C921.069,377.832 921.585,378.663 922.566,379.419C922.764,379.572 923.032,379.624 923.219,379.79C923.337,379.895 923.178,380.026 924.5,381.276C924.958,381.709 925.629,381.965 925.917,382.525C926.083,382.848 925.526,383.269 925.692,383.592L924.744,384.746C924.252,384.514 924.069,383.839 923.577,383.607C923.427,383.536 923.416,383.72 921.495,383.643C919.418,383.558 919.475,383.889 917.504,384.563C916.077,385.051 915.57,385.858 915.487,385.897C915.184,386.037 914.787,385.757 914.484,385.898C913.979,385.358 913.875,384.518 913.369,383.978C913.145,383.738 912.734,383.81 912.426,383.698C910.412,382.965 910.562,382.675 910.381,382.639C910.089,382.582 909.797,382.794 909.5,382.782C909.029,382.762 908.577,382.566 908.106,382.546L908.144,380.504C907.978,379.956 908.104,376.463 904.212,379.037C903.507,379.503 903.427,379.464 903.094,380.369C902.781,381.22 902.87,382.157 900.632,383.716C899.572,384.453 899.199,384.396 898.72,384.776C897.915,385.415 898.043,385.978 895.504,385.824C895.356,385.815 893.92,385.728 893.653,385.869C893.611,385.891 893.75,385.958 893.348,386.369C893.155,386.565 893.093,386.439 892.888,386.648C892.579,387.014 892.089,387.196 891.78,387.563C890.957,388.537 891.244,390.489 892.369,390.784C892.73,390.879 893.192,391.051 893.488,390.823C894.313,390.185 893.739,389.763 894.544,389.105C894.968,388.757 895.087,389.514 895.51,389.168L896.5,390.795C896.875,390.844 897.125,391.283 897.5,391.332C897.653,391.352 898.213,390.864 899.559,391.317C901.692,392.036 901.545,392.295 903.108,393.918C904.328,395.186 904.32,395.173 905.633,396.366C905.845,396.558 907.875,398.401 908.252,398.788C908.414,398.955 908.484,399.198 908.646,399.364C908.794,399.515 909.036,399.559 909.165,399.725C909.452,400.096 910.143,402.268 909.986,403.623C909.787,405.34 909.22,405.006 907.711,405.828C907.094,406.164 907.167,406.24 906.565,406.592C906.158,406.829 905.408,407.267 902.534,410.884C902.255,410.995 901.918,410.863 901.639,410.973C901.508,411.025 901.515,411.235 901.409,411.329C901.098,411.605 901.042,411.504 900.738,411.774C900.197,411.516 900.03,410.738 899.488,410.48C898.741,410.123 898.917,410.719 898.301,411.265C898.116,411.428 897.854,411.509 897.707,411.707C897.554,411.914 897.611,412.241 897.436,412.43C897.252,412.63 896.925,412.629 896.707,412.791C896.314,413.082 896.057,413.558 895.619,413.776C895.329,413.92 894.948,413.69 894.648,413.812C894.23,413.983 893.967,414.426 893.558,414.618C893.118,414.824 890.656,414.426 887.687,419.631C887.548,419.875 887.515,420.177 887.348,420.403C887.233,420.559 886.979,420.575 886.871,420.736C886.481,421.32 886.555,421.485 886.583,421.548C886.934,422.332 887.408,421.938 887.763,422.733L887.073,424.444C884.586,424.546 884.729,425.006 884.396,425.418C881.706,428.747 879.8,428.323 878.664,428.942C878.522,429.019 878.6,429.296 878.464,429.384C877.511,430.003 874.564,429.253 870.268,432.171C868.087,433.653 865.108,434.198 863.806,435.747C863.345,436.295 863.429,436.347 862.945,436.876C862.776,437.062 862.66,437.298 862.468,437.461C862.237,437.657 861.904,437.721 861.694,437.94C861.562,438.079 861.662,438.388 861.493,438.479C861.21,438.633 860.845,438.5 860.531,438.569C859.672,438.76 859.645,438.824 859.615,438.895C859.216,439.843 859.957,439.932 859.552,440.893C859.204,440.885 858.862,441.017 858.514,441.009C855.403,440.935 856.158,439.606 856.258,436.501C855.705,435.947 855.911,435.736 854.779,435.021C851.744,433.103 850.488,434.18 849.994,431.462C849.936,431.143 850.029,430.808 849.971,430.488C850.245,430.042 849.8,429.953 850.072,429.511C850.479,428.847 850.755,429.133 851.194,428.497C852.022,427.297 850.057,424.259 849.474,424.54C848.953,424.792 848.777,425.526 848.256,425.778L846.45,424.884C846.292,424.862 846.298,425.015 844.452,424.915C843.909,424.885 843.947,424.747 843.416,424.718C841.397,423.734 841.314,423.869 840.735,423.265C840.072,422.576 840.584,422.116 839.786,421.219C839.295,420.666 839.305,420.412 838.613,420.671C838.36,420.765 838.829,421.249 836.221,423.048C835.546,423.513 835.575,423.521 835.043,424.155C834.581,424.707 833.234,425.315 831.78,426.775C828.542,430.026 828.668,430.404 826.419,431.105C823.809,431.92 824.379,432.833 822.252,434.009C820.281,435.098 820.439,435.328 818.423,436.351C815.619,437.776 815.426,437.882 814.387,439.431C813.649,440.531 813.757,440.746 812.458,441.068C811.647,441.269 811.055,440.486 808.759,442.763C807.339,444.17 807.365,444.173 807.191,444.285C806.991,444.413 806.718,444.392 806.518,444.52C806.303,444.73 805.847,444.475 805.631,444.685C805.552,444.762 805.493,446.275 805.564,446.338C805.802,446.551 806.201,446.419 806.52,446.404C806.873,446.387 807.214,446.258 807.566,446.241C807.89,446.344 808.255,446.256 808.579,446.359C809.855,446.762 810.081,448.899 811.426,449.617C811.68,449.753 811.677,449.744 814.616,451.297C816.942,452.527 816.764,452.902 816.907,455.514C816.182,455.566 816.236,455.791 815.5,455.844C814.753,455.897 814.797,455.641 814.741,455.67C814.26,455.916 814.089,456.599 813.595,456.818C813.27,456.962 812.899,456.644 812.543,456.645C811.578,456.648 811.69,456.954 809.499,458.874C807.48,458.836 807.504,458.826 805.505,458.837C805.199,458.708 804.816,459.008 804.51,458.879C804.083,458.698 803.834,458.239 803.458,457.969C802.9,457.568 802.878,457.652 801.587,457.176C798.562,456.062 798.707,455.776 798.442,455.69C797.27,455.306 795.518,457.29 794.71,457.947C793.645,458.811 793.845,459.653 793.781,459.778C793.271,459.551 793.075,458.853 792.565,458.626C792.403,458.555 786.62,459.759 789.364,461.636C789.505,461.732 790.859,462.658 791.217,462.671C792.582,462.721 792.838,462.552 792.955,462.475C793,462.445 793.034,462.415 793.059,462.385ZM562.106,475.487L562.148,474.5C562.457,474.12 562.908,473.873 563.217,473.493C564.167,472.326 565,467.092 558.55,470.583C557.716,471.034 557.784,471.106 556.369,472.353C555.293,473.301 554.951,473.121 554.71,474.544C554.533,475.591 555.082,476.566 555.31,477.561C555.757,479.509 555.428,479.721 556.897,481.061C558.285,482.325 560.985,482.379 561.499,482.43C565.58,482.836 564.546,478.657 564.332,477.538C564.271,477.216 564.287,476.864 564.134,476.573C564.075,476.461 563.882,476.523 563.77,476.463C562.91,476.003 562.96,475.944 562.106,475.487ZM1012.554,290.538L1012.436,291.499C1012.469,292.155 1011.617,291.679 1011.649,292.326C1011.675,292.844 1011.998,292.335 1012.487,292.519C1012.866,292.663 1013.193,292.926 1013.577,293.054C1013.849,293.145 1014.158,293.078 1014.43,293.169C1014.588,292.923 1015.409,291.709 1015.131,290.573C1015.087,290.393 1014.704,288.83 1013.619,288.811C1013.457,288.808 1013.595,288.949 1012.554,290.538ZM709.735,798.501C709.808,795.77 710.17,791.658 706.37,793.167C704.261,794.005 704.361,796.23 704.273,796.405C704.194,796.564 703.939,796.555 703.823,796.689C703.64,796.898 703.591,797.206 703.398,797.406C702.647,798.182 702.397,797.85 701.653,798.638C700.682,799.666 701.432,802.457 704.494,802.368C708.221,802.259 708.196,802.655 708.517,802.622C710.053,802.466 710.023,800.694 710.019,800.485C710.008,799.817 709.747,799.169 709.735,798.501ZM708.079,798.457C707.763,798.708 707.86,799.292 707.543,799.543C706.485,800.38 704.062,800.809 703.859,800.385C703.561,799.762 704.531,798.707 704.637,798.592C704.764,798.454 704.98,798.422 705.106,798.283C705.837,797.476 705.899,795.709 705.908,795.688C705.989,795.507 706.225,795.447 706.367,795.308C706.478,795.202 706.511,794.952 706.664,794.956C706.904,794.963 707.989,795.574 708.034,795.693C708.112,795.9 707.966,795.911 708.079,798.457ZM153.531,475.781C152.488,476.107 152.339,475.852 151.663,476.629C150.962,477.435 150.743,479.8 153.48,479.343C156.186,478.891 156.601,475.905 154.47,475.726C154.158,475.7 153.843,475.807 153.531,475.781ZM771.093,479.473C770.783,479.768 771.133,480.875 768.529,481.024C768.302,481.037 766.087,481.163 765.69,481.01C765.531,480.949 765.466,480.751 765.345,480.63C764.066,479.34 766.097,479.763 768.74,476.742C769.026,476.414 770.426,474.813 769.851,471.421C769.618,470.045 769.123,470.401 767.467,469.543C766.815,469.206 767.066,468.941 766.459,468.525C766.245,468.378 765.912,468.464 765.715,468.295C765.471,468.084 765.273,467.779 765.225,467.46C765.169,467.086 765.106,466.549 765.423,466.343C765.765,466.122 767.473,467.958 770.75,464.751C772.373,463.164 773.331,462.173 773.927,464.355C774.658,467.035 771.716,466.534 771.965,469.532C772.022,470.215 772.197,470.884 772.302,471.561C772.593,473.43 771.952,476.127 771.77,476.612C771.607,477.048 771.539,477.003 771.374,477.449C770.981,478.508 771.095,479.461 771.093,479.473C771.828,479.061 771.676,478.869 772.398,478.464C773.027,478.111 773.08,478.373 773.123,478.333C773.348,478.126 773.353,477.767 773.462,477.482C774.702,474.237 774.443,474.171 774.587,473.525C774.833,472.421 775.005,472.512 775.8,471.687C775.955,471.615 777.455,470.922 777.604,470.553C777.994,469.588 778.089,469.409 777.237,468.815C777.019,468.664 776.734,468.634 776.514,468.487C776.028,468.162 775.616,467.734 775.13,467.41C775.217,465.275 775.163,465.229 776.245,463.397C776.425,463.092 776.086,462.408 782.581,459.738C783.941,459.179 786.211,458.98 787.062,458.141C787.246,457.959 787.339,457.699 787.522,457.517C789.919,455.122 791.954,456.541 794.978,453.843C795.136,453.702 796.151,452.797 795.961,451.396C795.762,449.922 794.712,449.906 794.548,449.903C793.947,449.894 788.486,453.403 778.39,458.27C773.954,460.408 774.15,460.752 769.672,462.819C769.412,462.939 767.54,463.803 766.593,464.648C766.426,464.797 766.436,465.171 765.5,465.501C765.383,465.542 764.337,465.675 762.478,466.449C760.957,467.083 755.001,469.868 754.353,470.171C752.948,470.828 752.922,470.773 752.387,471.177C751.418,471.907 750.88,471.901 750.718,471.979C750.511,472.399 750.582,472.921 750.375,473.341C750.257,473.58 749.943,473.664 749.781,473.875C749.644,474.056 749.651,474.328 749.496,474.493C749.163,474.849 747.759,475.608 747.601,475.693C744.998,477.1 745.156,477.484 744.925,480.436C743.371,482.427 743.305,482.371 743.25,482.582C743.231,482.654 743.151,482.958 743.529,483.472C743.787,483.823 744.123,484.149 744.525,484.316C745.164,484.583 746.449,483.811 746.596,483.722C747.398,483.241 747.479,483.466 748.305,483.042C748.434,482.976 748.469,482.786 748.599,482.723C749.373,482.344 749.535,482.653 750.624,481.632C753.265,479.153 752.806,478.837 753.325,477.438C753.679,476.483 754.286,476.17 755.722,474.715C756.1,474.333 758.702,471.699 761.457,471.216C766.244,470.378 766.535,471.206 766.644,471.255C768.981,472.302 767.058,475.829 765.568,476.608C765.304,476.746 765.006,476.819 764.751,476.973C763.318,477.842 762.224,479.357 762.468,480.509C762.709,481.642 766.13,483.499 766.457,483.608C768.828,484.401 769.54,482.581 770.43,482.295C770.727,482.2 771.084,482.335 771.36,482.189C771.496,482.117 772.776,481.442 772.2,480.458C771.95,480.032 771.343,479.899 771.093,479.473ZM890.486,379.58C890.855,379.458 891.247,379.992 891.617,379.87C892.151,379.693 892.684,379.296 892.907,378.779C893.123,378.275 892.906,377.673 892.791,377.137C892.636,376.413 892.35,376.951 891.445,377.261C890.501,377.586 890.201,377.474 890.187,378.483C890.182,378.862 890.491,379.201 890.486,379.58ZM989.727,306.95L990.525,306.588L992.581,304.789C992.833,304.579 993.151,304.459 993.404,304.249C993.507,304.163 993.513,303.982 993.631,303.917C994.585,303.395 994.655,303.554 995.726,302.84C995.956,302.687 996.238,302.618 996.454,302.446C996.638,302.301 996.709,302.035 996.904,301.906C997.046,301.813 997.087,301.887 998.751,300.861C1000.113,300.02 1000.234,300.4 1000.341,300.319C1000.556,300.157 1000.512,299.794 1000.687,299.589C1001.012,299.206 1001.52,298.996 1001.813,298.589C1001.875,298.503 1002.668,297.398 1001.761,297.263C1001.293,297.193 1000.764,297.014 1000.341,297.227C999.909,297.444 999.863,298.095 999.491,298.405C999.126,298.709 998.286,298.528 997.311,299.152C997.071,299.305 996.79,299.395 996.567,299.573C996.379,299.722 996.295,299.982 996.097,300.118C995.237,300.704 994.472,301.074 994.325,301.146C992.974,301.799 992.844,301.6 991.81,302.693C991.607,302.908 991.48,303.2 991.242,303.376C991.056,303.512 990.763,303.446 990.586,303.593C989.162,304.775 989.853,305.106 989.727,306.95ZM539.299,471.396L539.68,470.574C540.985,470.382 541.026,470.471 541.075,470.369C541.351,469.792 541.248,469.093 541.456,468.489C541.598,468.077 541.95,467.762 542.11,467.357C542.232,467.049 542.092,466.646 542.289,466.38C542.451,466.161 542.828,466.241 543.052,466.086C543.252,465.947 543.335,465.683 543.52,465.525C543.72,465.356 543.995,465.291 544.192,465.118C544.359,464.972 544.436,464.745 544.591,464.587C544.906,464.268 545.296,464.357 545.609,462.53C545.799,461.424 545.884,461.46 546.288,460.418C546.401,460.126 546.466,459.817 546.529,459.511C546.932,457.539 547.17,457.628 547.202,457.458C547.265,457.136 547.097,456.81 547.07,456.483C546.923,454.714 547.148,454.733 547.126,454.583C546.842,452.642 544.835,451.307 544.522,451.457C543.974,451.72 543.799,452.503 543.251,452.766L542.329,451.989C542.112,451.929 542.104,452.088 539.515,451.9C537.343,449.668 537.591,448.996 534.481,448.713C531.262,448.422 531.377,451.076 531.263,451.431C531.135,451.836 530.902,452.201 530.757,452.6C530.464,453.408 530.478,453.437 530.51,453.504C530.909,454.331 531.389,453.912 531.783,454.727C531.68,454.981 531.451,455.171 531.349,455.425C530.654,457.145 531.624,457.397 530.289,460.408C529.436,462.332 529.831,462.4 529.853,464.517C529.414,465.011 528.569,465.006 528.13,465.5C527.884,465.777 528.065,466.24 527.999,466.605C527.709,468.208 527.587,468.159 526.928,469.665C525.596,472.705 525.412,473.145 527.993,476.099C529.491,477.815 532.289,482.825 536.297,479.223C536.448,479.088 536.504,478.864 536.662,478.737C536.876,478.566 537.17,478.516 537.39,478.351C538.495,477.522 538.654,476.882 538.799,476.683C538.976,476.441 539.241,476.51 539.537,475.515C539.626,475.213 539.597,474.878 539.722,474.589C539.777,474.461 539.988,474.455 540.05,474.33C540.159,474.112 540.473,472.543 540.441,472.478C540.208,472.008 539.532,471.866 539.299,471.396ZM964.881,323.904C964.318,323.63 964.065,322.903 963.502,322.629C963.188,322.476 962.797,322.806 962.458,322.723C962.063,322.626 961.803,322.052 961.402,322.115C960.891,322.195 960.395,322.606 960.187,323.08C959.935,323.658 959.831,324.429 960.153,324.971C960.261,325.154 960.326,325.024 962.694,325.743C963.815,324.838 963.801,324.849 964.881,323.904ZM866.497,398.528C866.666,398.158 866.988,397.87 867.157,397.5C867.199,397.408 867.869,395.941 866.498,396.426C866.351,396.478 864.68,397.068 865.905,398.285C866.056,398.435 866.346,398.378 866.497,398.528ZM923.538,643.293C922.094,644.859 921.766,644.761 921.886,645.5C922.435,648.856 923.977,646.206 924.068,646.051C924.164,645.885 924.083,645.635 924.213,645.495C924.658,645.017 925.289,644.738 925.734,644.26C925.442,644.073 925.532,644.001 925.259,643.828C925.204,643.792 924.906,643.603 924.509,643.479C924.194,643.382 923.852,643.391 923.538,643.293ZM3.472,566.075C4.539,567.059 5.632,570.478 10.778,564.75C13.962,561.205 14.771,560.833 16.448,560.365C17.527,560.064 19.343,558.623 24.53,559.206C26.938,559.476 29.306,561.089 29.634,561.31C32.525,563.249 32.788,563.203 34.005,565.743C35.852,569.598 36.536,569.743 37.131,570.705C38.119,572.303 37.571,573.588 41.529,574.323C41.766,574.367 44.69,575.206 45.462,574.445C46.043,573.872 45.765,573.691 46.321,573.074C46.811,572.53 46.984,572.756 47.477,572.208C47.765,572.091 48.116,572.234 48.404,572.117C48.541,572.062 48.421,571.471 50.441,571.082C52.396,570.706 52.887,571.813 54.445,571.928C56.477,572.077 56.473,571.752 58.491,571.971C60.494,572.188 60.478,572.188 62.499,572.125C62.881,572.426 63.216,572.783 63.598,573.084C65.649,574.704 65.897,574.058 68.518,574.324C73.273,574.809 76.146,575.282 76.417,577.509C77.177,583.749 73.672,583.459 69.385,585.262C66.666,586.406 66.531,585.887 63.529,586.774C63.184,586.876 62.844,587.19 62.496,587.095C60.991,586.686 62.12,585.044 60.546,585.023C59.232,585.006 58.505,587.407 56.519,588.525C52.787,590.626 49.79,590.701 49.423,589.546C49.118,588.587 49.701,588.513 49.308,587.588C49.193,587.316 48.074,586.835 47.683,586.967C47.519,587.022 45.335,589.018 44.495,589.492C43.106,590.275 43.108,590.422 41.514,590.309C40.827,590.261 39.442,589.747 38.52,589.798C35.658,589.957 35.663,590.375 27.495,589.571C26.034,589.427 24.429,589.192 22.489,589.43C21.528,589.547 21.534,589.586 20.516,589.407C19.329,589.198 19.499,588.793 19.247,588.642C18.869,588.103 17.867,585.996 15.944,588.801C14.335,591.148 14.04,594.258 10.064,599.124C9.908,599.315 7.461,602.108 7.288,602.252C7.089,602.418 6.798,602.457 6.615,602.639C6.457,602.797 6.466,603.079 6.303,603.231C5.997,603.516 5.904,603.332 5.58,603.601C5.025,604.064 5.159,604.182 4.605,604.643L3.533,605.577L1.087,605.559C1.395,595.01 1.099,567.899 1.196,567.399C1.48,565.938 2.027,566.424 3.472,566.075ZM303.472,240.462L305.492,241.456C306.088,241.461 310.679,241.501 312.706,243.302C314.27,244.692 314.412,244.522 316.504,244.522C319.075,244.522 324.609,247.172 324.81,247.487C325.466,248.513 324.867,248.589 323.708,248.972C323.299,249.107 322.929,249.427 322.499,249.427C322.147,249.426 321.899,248.994 321.549,248.968C320.148,248.864 320.297,249.309 319.323,250.322C319.142,250.51 318.722,250.539 318.703,250.799C318.682,251.092 319.02,251.302 319.237,251.5C319.561,251.795 319.984,251.966 320.307,252.261C320.048,252.36 319.855,252.592 319.596,252.691C318.429,253.136 316.141,253.149 314.706,252.173C313.199,251.148 313.029,251.535 311.422,252.373C310.275,252.971 310.476,253.185 310.104,254.417C309.47,256.514 309.212,256.469 307.591,256.967C303.826,258.122 303.956,261.249 302.598,262.598C301.908,263.282 298.687,264.138 297.388,266.432C297.248,266.68 297.168,266.962 297.007,267.196C296.36,268.137 295.281,267.476 294.05,269.201C293.632,269.787 293.696,269.8 293.309,270.378C292.142,272.124 291.827,271.756 289.889,272.58L289.869,274.526C289.274,274.774 288.586,274.738 287.991,274.986C287.803,275.064 287.015,275.893 286.935,275.977C286.853,276.063 286.961,276.11 286.108,277.216C285.974,277.389 285.591,277.473 285.648,277.685C285.704,277.894 285.785,277.82 287.576,279.591C287.23,279.654 286.931,279.894 286.585,279.956C286.228,280.02 285.86,279.949 285.498,279.965C285.177,279.979 284.856,280.092 284.539,280.045C283.415,279.877 282.334,278.741 281.518,278.716C280.596,278.686 280.627,279.018 280.365,279.276C280.175,279.464 279.907,279.562 279.716,279.75C279.17,279.483 279.009,278.693 278.463,278.426C278.203,278.3 277.891,278.575 277.658,278.744C277.497,278.86 277.511,279.154 277.334,279.243C277.306,279.258 276.039,279.389 275.514,279.404C275.18,279.414 274.78,279.202 274.512,279.401C273.722,279.987 274.234,280.414 273.422,280.957C272.943,281.277 272.889,280.485 272.412,280.804C271.313,280.299 270.997,280.603 270.556,279.469C270.174,278.491 270.235,277.635 270.246,277.474C270.316,276.475 270.589,276.546 270.728,275.559C270.943,274.034 269.593,272.982 270.349,270.446C271.001,268.258 271.209,268.022 273.491,267.95C273.728,267.942 275.85,267.875 276.462,267.969C277.913,268.191 278.001,269.792 279.432,270.606C282.202,272.182 281.405,273.003 281.667,273.034C282.625,273.145 283.589,271.799 283.704,271.639C284.049,271.158 283.952,271.133 283.948,270.578C283.946,270.25 283.938,269.175 284.18,266.49L284.132,264.485C284.568,264.06 285.234,263.925 285.669,263.5C285.971,263.205 286.064,262.754 286.278,262.39C286.969,261.214 288.794,259.835 288.729,258.484C288.666,257.176 286.553,256.502 286.471,256.543C285.894,256.835 285.691,257.638 285.114,257.93C284.958,257.721 284.588,257.757 284.432,257.548C283.911,256.851 284.182,256.78 284.108,255.511C284.099,255.353 284.097,255.365 283.96,253.54C284.024,253.548 284.021,253.385 284.084,253.393C285.997,253.625 285.851,254.134 286.005,254.08C286.261,253.99 286.212,253.536 286.443,253.394C286.708,253.231 287.084,253.383 287.364,253.247C287.773,253.048 288.052,252.64 288.45,252.419C288.699,252.28 289.032,252.337 289.272,252.185C289.844,251.822 289.765,251.747 290.646,250.607C290.65,250.601 291.2,250.2 291.432,249.446C291.691,248.603 291.353,248.282 292.208,248.075C293.844,247.68 294.491,247.841 294.197,249.502C293.926,251.036 293.67,250.964 293.418,252.496C292.983,255.135 295.233,255.213 296.212,254.202C296.98,253.409 297.3,251.177 297.425,250.483C297.752,248.675 297.487,248.07 297.536,247.504C297.695,245.688 300.816,244.093 301.366,243.345C301.508,243.152 301.438,242.841 301.601,242.665C301.799,242.451 302.256,242.523 302.373,242.256C302.54,241.874 302.161,241.388 302.328,241.006L303.472,240.462ZM207.521,379.988C211.251,380.388 211.243,380.07 211.565,380.109C212.512,380.226 212.461,380.388 212.99,381.175C213.393,381.772 213.343,381.779 213.714,382.413C213.507,382.697 214.148,383.159 213.941,383.443C213.547,383.983 212.802,384.143 212.217,384.468C211.518,384.856 211.669,385.416 211.185,386.316C210.659,387.294 210.718,387.357 209.771,387.94C209.378,388.182 209.017,388.481 208.6,388.678C208.316,388.811 207.98,388.8 207.69,388.918C207.279,389.086 206.927,389.383 206.509,389.529C206.208,389.634 205.87,389.581 205.562,389.66C203.612,390.165 202.574,392.158 202.418,392.456C200.73,395.694 199.992,394.926 197.595,395.79C194.011,397.082 194.329,398.22 193.883,398.5C193.497,398.741 192.932,398.537 192.547,398.778C192.218,398.812 191.886,398.687 191.558,398.721C190.429,398.838 190.673,399.426 190.504,399.508C190.366,399.575 190.279,399.057 188.621,399.843C188.119,400.081 188.12,400.54 186.499,400.48C186.267,400.471 183.984,400.386 183.624,400.887L184.594,402.732L182.504,403.082C182.465,403.077 182.53,402.972 182.492,402.967C182.161,402.927 181.768,403.145 181.493,402.958C181.241,402.787 180.741,400.494 177.484,401.454C175.323,402.09 174.817,401.902 174.449,404.11C172.47,404.76 172.499,404.837 170.448,405.129C169.719,405.233 169.749,405.295 168.58,405.703C167.451,406.098 167.432,405.975 166.507,405.902C163.493,405.664 163.504,405.759 160.482,405.908C157.668,406.047 157.983,404.765 158.096,403.534C158.109,403.392 158.104,403.398 158.119,401.489C158.138,399.09 158.425,399.151 158.556,398.553C158.838,398.68 159.099,398.005 159.381,398.131C159.951,398.388 160.211,399.066 160.661,399.5C161.728,400.529 162.123,400.314 162.511,400.469C162.998,400.665 163.757,401.665 165.538,400.728C165.843,400.568 166.083,400.289 166.404,400.165L168.5,399.905C169.104,399.69 168.897,399.378 169.5,399.163C169.958,399 169.969,399.37 170.443,399.213C170.846,399.079 171.093,398.624 171.5,398.499C171.828,398.398 172.185,398.606 172.526,398.572C172.833,398.541 173.162,398.486 173.414,398.308C173.695,398.111 173.744,397.652 174.051,397.5C174.485,397.286 175.052,397.501 175.486,397.287C175.832,397.322 176.156,397.489 176.502,397.524C176.832,397.557 177.104,397.584 180.572,396.734C182.56,396.247 182.357,395.829 182.527,395.792C183.174,395.651 183.855,395.834 184.513,395.763C184.67,395.746 184.648,395.652 186.439,395.333C187.849,395.082 188.246,394.296 188.363,394.237C188.649,394.091 189.026,394.257 189.321,394.129C189.62,394 189.762,393.607 190.07,393.5C190.249,393.438 192.631,393.423 193.327,393.085C193.456,393.022 193.498,392.84 193.625,392.773C193.754,392.706 193.808,392.884 195.311,392.101C197.594,390.913 198.072,391.533 199.469,389.474C199.731,389.088 200.036,388.734 200.307,388.354C201.645,386.474 201.147,386.097 201.83,385.728C202.675,385.272 204.662,385.493 206.319,383.334C206.475,383.131 206.496,382.836 206.677,382.656C206.85,382.484 207.198,382.531 207.329,382.326C207.362,382.274 207.508,380.175 207.521,379.988Z" style="fill:rgb(190,197,195);fill-opacity:1;"/>
            </g>
        </g>
    </g>
</svg>
