<?xml version="1.0" encoding="UTF-8" standalone="no"?>
<!DOCTYPE svg PUBLIC "-//W3C//DTD SVG 1.1//EN" "http://www.w3.org/Graphics/SVG/1.1/DTD/svg11.dtd">
<svg width="100%" height="100%" viewBox="0 0 1920 1395" version="1.1" xmlns="http://www.w3.org/2000/svg" xmlns:xlink="http://www.w3.org/1999/xlink" xml:space="preserve" xmlns:serif="http://www.serif.com/" style="fill-rule:evenodd;clip-rule:evenodd;stroke-linejoin:round;stroke-miterlimit:2;">
    <g transform="matrix(1,0,0,1,0,-196.436684)">
        <g id="hurmus" transform="matrix(1.879005,0,0,1.879005,-2.046602,189.64918)">
            <path d="M614.49,4.955L615.507,5.073C617.867,9.533 619.203,7.299 631.504,7.086C633.356,7.054 634.69,9.863 638.604,8.984C648.218,6.825 651.326,11.142 655.478,10.938C660.49,10.693 660.396,11.755 665.472,11.374C670.542,10.992 669.458,15.56 674.56,14.798C676.731,14.474 679.846,16.566 680.505,16.488C683.634,16.122 680.738,18.847 682.813,21.242C685.605,24.464 691.573,27.67 691.84,29.416C692.602,34.411 696.95,38.442 697.986,42.306C699.298,47.204 713.516,38.607 709.775,46.611C708.453,49.437 712.711,55.022 709.498,53.484C708.793,53.146 708.282,52.478 707.577,52.14C704.755,49.723 703.35,48.306 703.614,50.507C703.635,50.681 703.687,50.652 704.593,52.467C708.984,56.586 708.246,57.049 709.163,60.644C709.951,63.73 718.828,70.745 722.142,78.657C726.244,88.452 724.709,88.939 729.412,98.531C730.919,101.606 732.646,111.301 732.847,112.429C733.2,114.412 734.773,113.507 735.03,115.507C734.892,118.043 735.091,117.971 735.895,120.446C735.655,121.1 734.108,120.79 734.699,127.453C735.364,135.134 734.853,137.673 734.809,140.571C734.792,140.899 734.714,142.51 736.05,144.489C731.38,147.617 735.02,150.098 730.874,153.938C729.621,155.099 729.393,157.257 731.821,158.033C734.881,159.01 728.41,168.007 734.741,176.38C736.893,179.226 735.04,180.368 737.804,182.269C738.073,182.454 741.891,187.911 741.92,189.44C742.106,199.231 747.597,200.825 749.196,201.935C753.055,204.613 754.261,203.348 756.203,207.657C757.286,210.06 757.111,210.231 759.491,211.516C760.992,212.327 760.45,212.669 761.627,216.504C760.545,219.264 760.518,219.226 760.45,219.472C754.895,228.305 753.484,229.634 754.962,233.396C755.996,236.029 756.024,236.112 754.826,238.577C754.023,240.23 755.154,240.055 756.829,244.44C758.288,248.26 761.053,245.217 763.169,248.723C774.067,266.781 772.401,272.627 773.346,274.583C776.253,280.596 772.397,282.264 777.24,286.78C779.423,288.815 779.096,288.947 782.255,291.78C785.053,294.288 791.771,293.375 794.624,295.185C794.932,295.38 796.372,295.487 796.515,295.387C796.981,295.06 796.985,294.145 797.54,294.021C799.154,293.66 800.887,294.411 802.501,294.051C802.599,294.144 802.67,296.179 806.497,296.276C812.049,296.416 812.033,296.245 812.513,296.285C814.521,296.455 813.65,297.911 815.492,298.517C823.78,301.243 823.855,300.132 832.486,300.561C834.331,300.652 834.384,304.318 836.808,301.892C839.815,298.882 844.747,299.82 846.313,299.08C850.981,296.877 850.515,300.392 852.487,300.57C853.519,300.663 860.113,301.259 863.384,307.569C866.09,312.789 868.499,308.612 869.364,309.681C873.084,314.276 869.594,314.647 869.442,315.454L867.496,315.717L866.329,316.065C863.953,314.646 862.116,312.858 862.821,315.548C862.867,315.721 862.888,315.7 863.727,317.595C862.569,319.972 862.51,319.789 860.891,321.724C852.45,331.815 871.19,313.926 887.444,310.062C891.635,310.09 891.567,309.909 894.568,310.317C901.049,311.966 899.674,317.623 903.748,320.055C907.808,322.48 904.608,332.022 922.462,337.643C926.188,338.816 926.119,338.729 934.487,338.355C938.819,338.161 932.936,331.039 936.484,330.459C941.045,329.713 941.861,327.788 944.378,330.61C945.266,331.605 950.276,333.573 951.361,332.35C951.891,331.753 954.803,328.471 960.497,328.325C961.867,328.29 963.195,327.39 963.4,327.251C966.733,324.993 968.939,328.287 970.202,324.397C970.335,323.988 971.209,321.297 975.375,322.963C976.278,323.324 977.754,327.667 980.671,328.141C983.524,328.605 979.644,332.183 982.491,332.527C989.4,333.364 991.981,334.111 992.298,331.402C992.534,329.389 994.083,330.536 994.407,329.387C994.836,327.865 994.309,326.415 995.509,327.476C996.585,328.427 996.138,329.871 999.119,329.028C1000.936,327.589 1000.814,327.6 1002.462,326.029C1003.901,327.13 1003.808,327.298 1006.492,327.752C1007.154,327.864 1010.401,326.675 1008.94,329.607C1007.77,331.955 1009.012,332.895 1014.541,332.107L1017.523,333.377C1019.866,333.964 1019.799,333.891 1022.907,334.488C1022.691,357.177 1022.753,735.471 1022.885,745.587C1018.768,744.06 1017.67,745.304 1015.922,741.293C1014.266,737.491 1014.211,736.962 1014.17,736.561C1013.344,728.536 1000.714,732.702 998.368,730.692C993.34,726.382 993.721,736.002 981.521,736.807C974.39,737.278 973.907,734.923 969.463,737.931C967.907,737.408 967.971,737.488 966.487,736.931C965.932,736.724 960.033,734.512 959.516,734.452C949.39,733.281 945.122,719.394 922.543,715.287L914.469,714.851C911.76,714.943 911.777,714.947 911.543,714.951C910.531,714.968 910.62,714.861 909.521,714.879L903.518,714.938C899.803,715.638 899.848,715.651 899.527,715.7L896.504,715.802C884.518,715.891 884.541,715.209 883.514,715.37C880.233,715.884 871.559,709.608 871.455,709.57C867.762,708.216 864.841,701.416 863.549,701.74C854.279,704.063 854.231,703.637 853.437,703.868C852.97,704.004 852.926,704.817 852.458,704.953L849.492,703.626L846.447,702.688C844.909,702.578 844.984,702.572 843.472,702.781L840.484,701.584C815.906,695.051 810.983,688.962 804.576,688.22C803.648,688.113 766.966,676.233 765.399,675.97C765.08,675.791 761.706,673.902 761.389,673.776C754.293,670.967 754.099,671.495 747.637,667.281C739.411,661.916 730.67,652.341 726.275,648.769C716.314,640.67 711.838,641.736 696.894,618.251C691.407,609.627 690.768,610.179 685.137,601.735C669.397,578.134 670.145,577.514 659.358,567.648C649.13,558.293 650.698,556.977 649.812,556.177C644.983,551.814 633.397,530.966 632.126,528.68C617.75,502.812 622.162,500.915 616.162,490.671C611.997,483.559 610.859,482.559 605.214,464.585C603.083,457.8 603.524,457.765 603.174,456.55L602.478,452.502C602.28,448.82 602.335,448.836 602.265,448.525C600.321,439.996 602.589,439.164 599.066,435.51C599.089,431.139 599.078,431.176 599.065,416.499C603.574,412.042 601.08,410.851 602.729,397.545C602.778,396.897 603.062,396.933 603.204,391.45L603.507,388.501L604.004,385.581C603.964,385.5 604.556,383.942 599.493,380.505C599.168,378.965 599.171,379.061 599.356,377.419C600.118,376.376 600.68,374.829 600.767,374.592C603.809,366.221 600.326,366.624 599.06,364.503L599.054,362.497C602.267,360.763 601.882,360.122 601.315,356.512C600.265,349.826 604.738,349.344 601.29,343.615C598.56,339.078 599.27,338.855 599.568,333.486C599.786,329.553 587.386,329.817 586.915,329.176C583.977,325.174 584.913,324.832 584.664,324.5C584.292,324.004 583.444,324.034 583.071,323.538C583.553,322.063 584.319,322.307 584.035,320.587C583.69,318.5 584.152,318.576 584.318,316.451C584.444,314.851 586.009,314.723 585.896,313.515C585.35,307.629 585.014,307.146 591.152,300.123C592.946,300.844 592.828,301.288 594.622,300.753C596.705,298.415 596.333,298.296 597.22,295.354C598.124,292.355 597.234,292.212 598.462,289.412L599.033,290.5C600.134,291.006 600.287,290.838 600.763,289.742C602.064,286.615 603.045,286.577 601.511,283.496C600.034,280.531 604.821,282.968 605.269,281.416C605.658,280.068 598.88,277.539 604.481,277.329C608.966,277.161 609.555,271.38 607.74,269.298C606.32,267.67 606.626,262.166 608.491,262.381C608.89,262.427 608.857,262.446 613.438,263.258C615.141,263.452 615.29,263.771 616.253,262.46C616.312,261.981 617.259,261.957 617.318,261.478C617.492,260.056 616.739,261.56 615.327,261.762L613.649,261.436C612.28,258.901 613.367,257.833 610.644,257.147C604.896,255.699 618.491,245.851 609.5,244.502C609.103,244.443 609.235,244.475 607.561,244.778C605.138,245.218 605.698,242.546 605.686,242.5C607.062,239.237 607.501,238.779 611.521,239.334C615.762,239.92 615.184,235.957 615.308,235.428C615.69,233.802 619.08,233.344 619.175,233.13C620.82,229.436 612.968,232.155 612.456,232.332C609.821,233.245 608.901,227.156 606.341,230.307C606.022,230.7 600.731,232.826 603.802,224.509C606.856,216.236 598.805,228.067 598.507,228.506C594.602,234.244 596.371,224.847 596.438,224.492C597.008,221.462 593.48,216.033 596.357,215.177C599.355,214.285 599.368,214.206 600.687,211.483C602.484,207.773 609.909,206.424 605.415,205.907C600.354,205.324 598.657,211.883 597.461,211.737C590.979,210.945 591.072,211.53 590.531,211.407C587.618,210.743 589.075,209.413 588.415,208.542C585.65,204.893 584.721,204.155 581.335,207.221C580.938,207.581 578.173,205.374 577.518,206.522C572.504,215.307 576.845,195.275 573.369,197.107C567.113,200.404 569.857,217.384 561.519,219.539C560.148,219.894 557.898,226.187 557.162,227.196C556.418,228.216 548.651,238.863 550.455,241.492C550.803,241.999 551.619,242.068 551.931,242.598C552.102,242.888 551.513,243.287 551.684,243.577L551.095,245.449C550.662,248.278 549.533,247.621 547.809,250.686C546.712,252.638 546.563,252.455 545.572,254.539C545.381,254.94 544.781,255.109 544.699,255.545C544.632,255.899 545.271,256.146 545.204,256.5C544.468,257.504 542.783,259.803 538.385,270.489L539.647,271.281C541.793,268.671 545.11,262.86 544.988,268.518C544.928,271.261 540.071,273.467 539.522,273.716C534.887,273.676 536.497,277.524 536.251,278.408C536.193,278.619 536.05,278.48 534.38,280.4C533.57,281.332 533.753,281.31 533.086,282.209C529.642,286.854 527.49,284.999 526.488,288.496C525.362,292.422 523.787,291.217 519.929,295.84C511.285,306.196 510.733,306.232 497.448,308.278C493.851,308.832 496.646,311.323 496.169,312.376C495.429,314.01 492.776,313.788 492.754,313.798C490.069,314.977 491.306,320.117 481.677,323.934C479.973,324.609 478.287,327.122 478.266,327.136C474.109,330.069 474.359,330.224 470.709,333.724C470.409,334.012 469.717,339.997 469.817,340.196C471.76,344.044 469.07,343.372 465.674,345.885C463.693,344.31 463.546,343.833 460.564,345.24C454.655,346.446 451.16,347.037 453.15,341.388C453.97,339.058 454.184,339.22 454.563,336.49C455.28,335.385 458.896,332.415 456.425,331.949C454.498,331.586 452.641,335.074 452.441,335.448C443.663,353.13 443.078,352.883 442.771,354.569C442.733,354.777 443.793,358.2 440.528,357.751C439.697,357.637 434.694,364.423 434.252,365.522L435.849,367.692C435.841,367.924 435.749,370.523 435.726,370.589C435.056,372.556 436.4,372.048 436.662,372.613C435.286,373.887 435.245,373.667 433.457,373.884C429.638,372.653 429.982,374.453 426.742,376.795C425.044,378.023 421.232,382.232 420.78,382.731C417.246,386.633 422.845,394.866 415.496,394.871C409.725,394.876 410.672,397.303 405.417,399.339C403.611,400.039 394.113,418.053 390.743,420.776C389.97,421.401 383.188,431.791 382.545,432.544C381.465,433.807 365.325,449.372 366.842,452.278C369.997,458.321 365.223,457.21 361.997,460.914C358.187,465.289 357.019,455.98 354.904,458.855C353.073,461.344 345.67,461.734 344.771,462.774C340.788,467.38 339.448,466.096 336.312,471.398C336.14,471.689 325.479,478.072 322.405,479.341C321.881,479.557 322.535,480.235 317.28,484.228C314.992,485.967 312.428,484.359 313.017,488.528C314.231,497.124 302.069,511.946 300.903,498.442C300.606,495.006 294.801,493.309 292.925,504.565C292.913,504.636 288.183,512.31 290.362,517.573C290.548,518.025 295.494,520.243 293.66,524.584C292.705,526.845 290.059,524.836 288.945,527.615C287.637,530.878 284.308,530.19 286.203,532.69C290.338,538.148 282.197,541.994 283.007,552.514C283.351,556.973 271.58,554.232 276.782,557.07C281.461,559.622 281.59,560.475 279.916,565.605C272.162,567.646 272.205,567.383 271.572,567.65C263.342,571.125 260.122,563.059 258.23,565.283C256.528,567.284 256.087,566.461 253.742,567.633L252.318,569.743C248.871,566.826 246.4,566.682 249.237,563.195C249.839,562.455 255.192,566.574 253.19,562.628C252.728,561.717 250.021,558.616 249.729,558.281C248.057,556.365 244.847,558.643 244.504,558.887C244.065,558.476 244.774,557.554 242.319,556.845C239.476,556.023 239.32,556.051 238.358,553.555C237.735,551.443 238.281,550.707 235.558,550.185C235.658,541.934 232.54,550.257 232.453,550.491C232.106,550.735 232.326,551.428 231.98,551.672C231.809,551.791 231.805,551.753 229.622,552.776C227.723,554.943 227.828,554.941 226.676,557.506L224.552,558.814C224.329,559.093 221.796,559.643 224.5,562.499L223.497,562.52C221.934,562.538 221.555,562.586 221.799,564.214C218.602,563.54 216.689,566.37 219.5,566.501C219.772,566.513 220.244,566.535 222.409,564.734C224.016,564.75 223.912,564.812 225.503,564.478L226.565,564.292L226.246,562.347C228.609,560.329 228.395,560.195 230.922,558.53C231.09,565.249 231.666,566.302 238.453,566.996C241.638,567.321 243.425,571.076 248.452,572.106C248.701,572.283 251.393,574.197 251.424,574.5C251.615,576.351 252.385,575.447 253.337,575.198L255.375,576.572C256.049,576.844 255.989,577.18 259.452,576.692C263.597,576.109 259.761,580.718 259.542,580.982C256.446,578.937 256.299,579.703 252.606,579.86C252.306,580.049 251.848,579.567 251.548,579.756L251.896,581.529L251.5,582.621C250.689,585.271 251.076,586.315 248.26,586.065C245.317,585.804 246.669,589.29 249.043,591.667C252.198,593.671 252.412,592.573 254.559,591.025C256.47,591.463 256.542,591.561 256.91,593.476C253.805,596.089 253.535,595.458 249.533,595.769C247.894,595.896 240.932,604.111 235.402,605.197C231.83,605.898 231.023,609.015 229.333,605.763C229.18,605.469 225.774,598.915 225.388,604.493C225.25,606.501 226.622,607.199 224.694,607.922C222.066,608.908 221.952,608.449 219.501,609.95C218.139,607.435 217.561,606.534 215.477,608.475C213.363,610.445 213.242,610.245 210.48,609.96L207.467,609.598C206.283,609.402 202.714,608.811 196.282,599.6C193.692,595.891 193.628,595.988 192.144,591.687C191.816,590.735 178.629,595.678 185.559,602.443C186.704,603.561 195.968,606.979 192.559,608.598C192.394,608.677 184.264,604.559 184.312,607.487C184.377,611.426 189.111,607.59 190.773,612.432C192.517,617.516 199.672,616.872 197.08,619.185C196.528,619.678 196.161,619.044 189.628,624.65C186.127,627.654 181.215,627.57 178.4,628.206C177.94,627.898 169.352,622.149 171.732,626.348C172.886,628.385 177.181,628.776 177.695,628.823C175.489,632.935 173.629,629.148 169.434,631.349C168.472,631.854 163.011,634.72 156.493,635.479C156.151,635.56 156.184,635.563 153.495,636.467C150.282,637.021 149.792,637.174 149.638,640.507C149.471,644.106 143.995,642.466 140.494,644.472C138.977,645.342 134.963,644.637 134.489,644.554C133.504,644.381 132.525,643.63 131.561,643.899C130.63,644.158 130.436,645.684 129.505,645.943C127.023,644.217 126.808,645.129 118.524,645.716C114.847,645.976 113.085,643.032 109.643,644.8C103.651,647.877 89.152,650.661 85.686,645.394C79.741,636.357 70.026,636.685 68.486,636.737C66.7,636.798 63.827,629.306 59.625,632.72C58.144,633.925 58.111,633.615 56.522,634.554C53.404,635.152 53.51,634.818 51.434,634.83C46.531,634.879 46.386,638.597 42.315,635.788C40.825,634.76 40.227,636.602 36.369,639.293C32.288,642.14 29.754,638.642 26.433,637.788C22.319,636.73 22.28,636.646 19.807,633.276C17.101,629.587 18.828,628.024 14.566,626.374C11.427,625.159 11.855,624.133 8.474,623.789C6.449,623.584 4.832,623.136 5.678,626.5C6.385,629.309 4.599,630.132 7.573,632.369C7.825,632.559 7.802,632.453 10.891,634.507C10.682,634.76 11.096,635.239 10.887,635.492C10.699,635.719 9.097,637.66 8.255,638.079C4.756,639.818 4.826,634.027 1.089,631.499C1.537,589.367 0.775,37.452 1.467,21.469C5.539,25.527 6.113,24.68 26.61,33.179C28.367,33.907 47.342,41.776 48.455,42.568C48.785,42.803 49.535,43.336 53.496,42.081L56.502,42.069C60.623,44.883 60.487,45.064 62.406,45.748C70.751,48.72 71.103,52.225 70.619,66.506C70.256,77.204 75.296,74.538 83.283,81.744C101.77,98.421 106.813,91.889 110.936,99.279C113.813,104.436 116.427,101.521 118.433,100.335C119.007,100.242 118.943,100.23 121.5,99.48C135.741,103.42 136.627,102.733 142.446,100.304C143.132,100.236 143.061,100.219 146.5,99.482L147.5,99.481C150.028,99.847 149.915,99.909 152.531,99.737C155.928,99.078 155.662,98.571 158.124,96.067C158.688,95.494 160.462,93.691 167.488,92.407C170.387,91.877 183.213,101.249 187.476,100.686C197.665,99.338 200.648,106.868 207.463,100.058C212.145,102.682 214.172,95.95 219.429,99.604C234.787,110.28 234.553,125.598 241.562,126.329C243.674,126.549 243.727,126.27 245.542,127.405C245.605,127.445 245.765,128.92 258.458,125.175L262.474,124.749C269.364,128.096 271.463,126.59 275.417,137.532C278.365,145.686 280.211,146.099 288.381,143.241C288.608,143.161 288.537,143.081 290.491,141.09C293.598,140.897 293.466,140.995 296.482,141.088C296.955,141.229 297.031,142.017 297.503,142.157C301.636,143.387 302.065,141.69 306.59,144.323C312.35,147.673 312.536,143.498 316.423,141.276C316.667,141.255 316.567,141.199 319.451,140.85C323.104,141.855 321.816,138.362 325.444,137.412C326.651,137.097 325.987,136.13 337.637,127.695C342.61,124.095 341.876,121.258 350.443,119.16C355.363,117.955 355.479,115.086 355.489,115.065L357.458,115.066C358.368,115.64 360.088,118.126 363.363,111.441C363.923,110.299 364.455,107.675 369.485,104.462C371.612,104.242 371.495,104.098 373.549,103.865C375.347,103.52 375.419,103.785 376.057,103.075C379.319,99.441 379.608,99.575 384.52,99.613C392.671,99.676 387.41,89.455 397.487,87.251L401.506,87.059L406.438,87.021C411.088,86.395 411.638,85.757 414.73,89.293C420.78,96.213 424.95,92.21 428.18,93.991C434.259,97.344 447.32,85.907 448.674,84.721C450.228,83.36 450.637,84.338 452.173,83.048C455.143,80.552 454.532,79.365 451.088,77.548C452.327,65.219 454.358,65.558 454.354,59.5C454.351,55.424 453.926,54.447 462.593,49.646C463.144,49.341 462.83,49.121 467.473,43.473C467.513,43.573 466.613,44.605 468.148,45.191C468.291,45.245 469.883,45.198 470.416,45.049C476.184,43.441 481.491,45.401 481.51,45.403C485.93,45.892 486.369,48.796 489.691,45.709C490.062,45.364 490.013,45.523 494.529,41.624C496.748,42.174 496.637,42.2 497.54,42.298L498.485,42.34L501.501,41.535C511.746,41.526 513.922,38.012 514.501,37.077L517.461,37.057C520.139,38.762 520.345,37.326 523.513,37.639C526.675,37.95 526.101,36.63 526.72,33.5C527.995,32.306 527.741,31.921 529.572,31.876C529.76,31.871 531.334,31.832 531.477,30.497C532.346,22.404 540.229,26.161 542.399,23.419C545.562,19.424 550.679,20.594 551.258,17.358C551.539,15.784 552.021,16.234 553.131,15.155C553.979,14.331 554.723,13.405 555.575,12.586C557.31,10.919 558.428,10.964 559.463,10.411C562.149,9.902 562.074,10.128 566.577,10.098C568.731,10.328 568.736,10.17 570.478,11.552C571.544,11.906 571.373,12.384 572.503,12.225C573.07,12.146 572.977,12.344 573.563,12.261C577.746,10.355 577.207,9.383 585.441,6.24C587.247,6.162 587.26,6.241 587.391,6.156C589.176,4.991 589.313,5.777 591.389,5.119C607.134,0.131 608.475,9.514 614.49,4.955ZM609.373,208.438L608.585,209.522C601.167,214.266 606.605,216.232 606.748,215.818C607.891,212.532 608.09,212.726 610.518,210.317L611.625,210.319C612.974,213.237 611.113,213.327 611.547,216.495C612.347,222.335 614.557,220.636 620.483,220.343C623.77,214.696 617.272,218.05 615.977,216.193C614.763,214.452 614.287,206.329 619.481,204.406C626.049,201.976 620.804,200.31 620.477,200.37C618.527,200.733 616.766,206.689 612.528,199.485C612.133,198.814 606.684,196.749 607.951,194.731C609.008,193.046 609.053,192.862 607.861,191.298C606.269,189.208 608.089,189.472 610.443,188.322C612.335,186.384 611.714,185.426 614.419,185.136C617.782,184.776 617.913,185.034 619.492,183.497C618.689,180.447 615.708,182.759 615.167,179.639C614.508,175.84 611.336,180.102 610.474,179.546L610.151,176.573C610.228,176.464 613.918,170.196 609.617,174.986C608.631,176.084 607.49,175.937 607.431,175.963C605.718,175.218 605.795,175.319 604.481,174.044L604.976,172.5L604.157,171.5C603.817,171.364 600.508,170.033 599.585,171.554C599.418,171.828 599.381,172.226 599.521,172.515C599.862,173.223 600.292,172.748 600.5,173.453C600.718,174.192 599.972,174.049 600.203,174.834C596.835,174.774 596.978,180.665 599.618,179.756C601.322,179.658 601.284,179.645 602.647,178.554C602.885,180.229 603.013,180.055 603.937,181.504C600.967,184.654 600.933,184.98 596.563,184.801C592.709,184.642 596.017,186.583 598.604,189.395C600.945,191.94 603.228,190.358 603.003,192.643L603.506,194.497C603.537,194.707 605.632,198.31 599.525,197.395C598.005,197.168 593.195,183.734 593.757,195.503C593.929,199.111 588.633,205.31 592.586,207.229C594.435,208.127 596.482,204.598 597.752,203.975C602.821,201.488 604.015,197.449 607.703,200.246C608.23,200.646 614.6,203.218 609.373,208.438ZM603.939,182.502C604.518,179.397 604.636,178.104 607.574,179.358C608.47,179.741 609.049,182.255 611.506,181.699C611.84,181.624 612.142,181.437 612.475,181.362C618.142,180.09 605.192,189.761 602.605,189.145C598.251,188.108 598.758,187.2 598.998,186.963C600.645,185.336 604.172,188.131 603.939,182.502ZM593.861,200.727C595.385,199.609 595.353,199.573 595.507,199.519C597.116,198.955 600.041,200.695 596.543,201.564C595.166,201.906 595.25,204.831 594.342,205.054C594.004,205.137 592.142,205.382 593.861,200.727ZM604.719,193.5C604.854,193.424 607.569,191.892 606.664,193.515C606.122,194.488 605.622,194.484 605.501,194.483C604.684,194.476 605.442,193.506 604.719,193.5ZM260.876,533.273C261.311,533.367 264.956,534.159 265.726,530.541C266.135,528.615 263.056,527.115 260.876,533.273ZM247.262,576.95C238.254,574.317 228.951,568.571 227.462,567.651C225.537,566.462 225.067,570.912 227.36,571.853C236.762,575.71 236.677,575.636 245.68,580.155C245.935,580.283 254.224,581.885 247.262,576.95ZM128.477,592.953C126.434,593.871 125.49,594.431 127.241,595.852C127.437,596.011 132.661,597.502 128.477,592.953ZM620.51,35.163C630.86,33.372 625.664,24.5 622.529,24.362C620.911,24.292 620.974,24.431 619.493,23.519C617.997,22.598 613.21,26.013 613.453,29.492C613.812,34.639 615.57,33.605 620.51,35.163ZM620.462,25.994C630.561,29.777 620.893,32.378 620.5,32.354C615.654,32.065 613.041,30.898 616.474,27.474C617.462,26.489 620.126,26.049 620.462,25.994ZM54.532,612.682C47.554,615.316 56.701,618.287 57.831,615.686C59.144,612.665 54.889,612.681 54.532,612.682ZM133.501,598.504C127.818,602.383 138.083,599.771 138.209,598.52C138.298,597.637 137.257,597.294 133.501,598.504ZM292.949,498.601L293.242,497.5L293.631,496.5C292.827,495.096 292.911,494.47 291.335,495.076C291.161,495.142 285.177,494.838 285.31,493.506C285.391,492.694 288.053,490.864 288.359,490.396C291.251,485.964 280.233,490.25 283.844,495.265C284.298,495.894 284.362,495.983 292.949,498.601ZM348.753,453.958C348.737,454.013 346.682,454.494 350.483,458.45L352.546,457.57L351.5,457.277C350.556,455.2 350.884,454.862 348.753,453.958ZM240.456,595.27C239.998,595.287 231.801,594.266 237.613,597.34C240.031,598.62 246.053,596.329 240.456,595.27ZM955.519,336.594C961.535,334.478 964.965,334.736 965.887,333.88C966.147,333.638 966.848,330.948 961.598,332.733C954.513,335.141 954.36,334.659 953.8,334.987C946.737,339.13 955.341,336.657 955.519,336.594ZM358.902,274.409C358.605,272.821 358.278,268.469 353.627,272.642C350.171,275.743 359.631,280.903 358.902,274.409ZM357.736,273.421C357.181,274.973 357.533,275.724 356.501,275.294C354.939,274.644 355.841,272.643 356.502,272.614C356.993,272.592 357.245,273.443 357.736,273.421ZM263.41,193.461C267.39,184.184 258.277,182.282 255.871,186.693C254.346,189.488 260.671,199.91 262.51,195.507C262.579,195.342 263.266,193.697 263.41,193.461ZM262.193,192.397C259.244,194.077 259.245,192.434 257.824,189.295C257.177,187.864 258.922,185.97 260.556,186.35C263.52,187.04 262.314,191.91 262.193,192.397ZM378.748,432.81C376.888,429.788 375.992,429.912 375.659,429.958C373.599,430.243 377.536,433.512 377.803,433.734L378.748,432.81ZM199.623,588.921C190.451,593.593 201.356,594.509 203.236,598.622C203.489,599.176 207.129,607.141 210.327,601.396C212.374,597.722 221.475,604.565 218.421,599.536C218.134,599.063 207.715,586.813 206.569,586.363C202.812,584.888 203.254,587.328 199.623,588.921ZM211.443,598.183C208.802,599.079 205.947,602.34 205.096,597.561C204.074,591.814 200.756,594.677 199.51,592.497C199.162,591.887 205.308,587.082 207.223,589.74C209.958,593.537 210.067,593.362 213.355,596.603C214.661,597.891 213.123,597.622 211.443,598.183ZM185.573,613.396C179.936,609.518 179.27,610.895 179.245,611.425C179.208,612.194 186.183,617.349 186.48,617.356C189.95,617.44 185.812,613.617 185.573,613.396ZM1005.542,331.439C1004.068,331.396 1004.061,331.1 1002.764,331.786C1001.75,332.323 1002.135,332.578 1001.476,333.408C1005.207,333.354 1005.114,333.264 1005.43,333.277L1005.542,331.439ZM971.507,330.57C967.599,332.824 972.07,333.192 973.311,332.277C973.471,332.159 974.903,330.748 971.507,330.57ZM398.614,397.893L397.602,398.544C397.93,401.229 398.97,400.768 399.548,403.517L401.89,399.966L399.368,397.681C399.158,397.526 398.825,398.048 398.614,397.893ZM489.276,73.438C483.163,77.257 487.253,81.069 488.055,80.129C489.552,78.375 488.646,77.823 490.54,76.395C489.82,74.924 490.011,74.967 489.276,73.438ZM264.521,551.599L263.634,552.468C263.853,552.647 265.436,554.539 269.527,555.434C270.762,555.704 270.629,555.834 271.885,556.29L272.509,554.513C268.504,552.903 268.642,552.719 264.521,551.599ZM274.878,561.767C271.709,562.381 271.71,562.318 271.455,562.43C267.207,564.298 267.219,562.615 259.541,560.366C256.626,559.512 256.521,562.001 258.46,562.545C262.196,563.592 267.685,565.369 268.483,565.627L269.547,565.553C272.551,564.564 272.669,564.847 274.742,562.569L274.878,561.767ZM36.511,593.97C35.429,594.159 21.495,596.596 23.849,599.281C27.547,603.498 28.864,601.524 29.113,601.153C31.945,596.911 32.848,597.177 37.591,599.289C38.707,599.786 41.412,603.942 41.299,600.458C41.25,598.954 40.747,598.661 41.845,595.547C42.81,592.808 40.86,593.797 36.511,593.97ZM37.499,595.408C38.736,595.849 39.428,595.528 38.969,596.511C38.356,597.822 34.923,597.318 37.499,595.408ZM15.714,597.299C22.187,600.621 18.032,594.165 16.536,594.065C14.167,593.906 14.938,595.101 15.714,597.299ZM404.273,193.304C403.248,194.727 402.692,194.86 403.836,196.274C405.029,197.749 407.153,197.275 407.444,197.211C409.769,196.692 409.921,187.979 404.273,193.304ZM404.273,193.304C408.528,193.715 407.6,195.249 407.335,195.381C407.097,195.499 405.226,196.426 404.15,194.465C403.962,194.124 404.46,193.645 404.273,193.304ZM515.51,109.484C514.626,108.878 514.682,108.917 513.577,108.767C509.844,112.512 503.448,122.088 509.445,121.91L512.516,121.549C517.072,120.272 515.657,118.784 517.57,114.52C518.814,111.748 515.869,109.73 515.51,109.484ZM285.49,509.522C287.641,509.42 287.762,509.495 288.757,511.479C288.66,506.809 290.769,507.098 290.39,502.475C284.897,505.711 286.193,507.325 285.949,507.655C285.594,508.135 284.687,507.943 284.331,508.423C282.663,510.967 285.068,509.665 285.49,509.522ZM605.461,67.953L602.49,68.051C601.479,67.363 601.563,67.431 600.527,66.714C599.245,65.826 590.16,73.25 594.29,77.694C597.572,81.226 605.646,75.157 606.592,74.645C610.844,72.344 611.673,64.251 605.461,67.953ZM203.71,580.313C207.465,581.626 220.08,589.361 211.686,581.366C207.193,577.086 213.082,574.816 212.374,573.554C210.614,570.415 210.499,575.131 204.57,578.593C202.668,579.623 201.13,579.68 200.751,580.536C199.963,582.319 203.501,580.425 203.71,580.313ZM121.54,629.054C123.003,631.648 123.565,631.06 126.489,630.205C127.192,630.011 127.086,629.47 130.541,629.708C134.376,628.697 133.055,627.427 133.875,624.588C135.015,620.638 135.559,618.791 138.831,621.243L137.314,623.295C137.081,623.918 134.941,624.7 138.416,626.588C145.446,629.276 145.523,627.037 146.498,625.063C146.889,625.523 150.381,629.646 152.502,629.641C158.084,629.629 160.122,628.55 157.661,623.511C157.371,622.916 160.829,620.942 156.465,616.535C151.368,611.389 146.307,617.875 139.034,607.737C142.027,604.775 143.159,603.35 139.371,601.648C133.459,601.345 133.839,610.152 133.086,611.168C132.677,611.719 131.928,611.921 131.432,612.396C130.4,613.385 130.501,614.318 130.521,614.5C130.756,616.67 131.193,617.096 129.143,617.982C129.117,617.993 126.3,614.786 126.055,614.506C126.851,613.452 126.673,613.425 127.559,612.515C128.414,611.637 130.01,608.743 130.199,608.401C132.777,603.728 124.785,609.795 124.401,610.087C122.831,610.485 122.921,610.309 121.434,609.681C111.423,607.471 111.196,615.84 100.464,619.373C92.247,622.078 98.756,627.197 103.288,625.028C104.128,624.626 107.745,622.894 114.319,628.723C117.58,631.614 121.054,629.368 121.54,629.054ZM351.599,446.892C351.358,448.559 350.825,449.318 352.492,449.29C352.696,449.287 355.241,448.366 351.599,446.892ZM351.599,446.892C350.131,445.961 350.304,445.829 348.511,445.546C348.499,448.131 349.233,447.814 349.407,447.739C349.894,447.528 350.038,446.805 350.533,446.614C350.875,446.482 351.257,447.024 351.599,446.892ZM476.055,83.226C478.175,82.873 478.083,82.735 479.699,81.392C483.473,85.593 482.836,86.217 483.317,86.201C486.07,86.11 483.53,80.496 483.243,77.513C485.316,68.66 479.769,75.395 479.559,75.65L478.12,76.093L475.484,77.577L472.596,77.378C472.755,75.799 472.702,75.791 473.778,74.577L475.636,72.298C480.378,73.842 483.9,68.971 480.591,60.458C480.491,60.202 480.49,56.293 478.383,58.206C476.658,59.774 475.809,59.083 475.416,61.484C474.841,64.989 473.18,64.138 471.98,67.545L469.445,69.266C467.124,71.709 469.029,72.072 469.453,75.439C468.001,76.771 467.641,76.724 468.157,78.593C469.088,81.963 469.434,81.899 468.795,85.524C472.276,88.792 472.988,86.871 476.055,83.226ZM474.805,68.284C474.799,63.035 479.566,62.534 478.925,64.492C478.114,66.968 478.133,66.885 478.261,69.454C478.267,69.575 478.329,70.818 477.578,70.794C477.092,70.779 475.007,68.505 474.805,68.284ZM473.316,79.907C473.522,80.183 475.299,82.569 473.248,84.214C472.609,84.727 467.839,78.44 473.316,79.907ZM343.591,449.806C345.213,448.5 345.281,448.614 346.125,446.633C343.893,446.202 342.961,445.962 340.798,451.71C340.714,452.17 340.017,455.965 342.603,457.261C343.311,457.615 344.579,456.631 344.012,455.797C342.189,453.118 342.294,452.923 343.591,449.806ZM31.504,84.079L33.502,84.084C35.356,85.407 35.208,86.044 37.481,85.422C40.024,84.725 40.013,85.236 42.493,84.599C49.037,87.01 52.744,84.334 50.276,82.748C42.5,77.75 38.717,79.815 36.495,79.531C27.096,78.329 27.234,77.801 26.416,77.783C21.487,77.675 22.17,75.562 17.437,74.753C-1.532,71.51 24.023,88.653 31.504,84.079ZM15.515,75.421C18.181,77.422 18.186,77.378 18.394,77.577L18.296,79.09C18.162,79.095 18.037,79.097 17.92,79.097C16.113,79.092 16.309,78.441 15.173,77.658C13.778,76.381 13.38,76.47 13.724,75.838L15.515,75.421ZM249.384,544.538C251.285,541.726 251.376,541.788 251.437,541.501C252.567,536.14 247.85,543.475 247.659,543.772C244.906,546.339 244.981,546.432 241.407,547.266C236.665,548.374 243.418,550.507 247.428,552.78C247.974,552.437 248.013,553.113 248.597,552.748C248.699,552.683 248.597,552.748 249.432,551.484C249.687,548.508 249.71,548.593 249.231,545.555L249.384,544.538ZM245.612,549.366C246.277,547.878 246.064,546.497 247.27,547.706C248.562,549.002 247.413,549.238 245.612,549.366ZM625.971,177.991C624.579,185.551 630.866,186.418 630.441,183.517C630.399,183.232 629.138,184.023 628.492,180.501C627.939,177.484 627.264,177.578 625.971,177.991ZM625.971,177.991L623.514,176.54C621.338,176.947 623.149,178.574 625.971,177.991ZM406.681,388.139L408.374,389.502L408.079,390.5L406.494,392.132L408.721,393.2L410.556,393.594L411.532,392.524C412.966,392.218 412.882,392.277 414.304,392.791C416.564,392.398 417.11,392.783 417.62,390.526C417.677,390.275 418.028,388.721 416.546,387.487C414.358,386.665 414.34,386.901 412.459,388.152C410.363,386.957 410.559,386.795 408.407,385.586C406.689,383.551 406.645,383.672 406.503,383.495L405.622,383.809L404.589,384.541C404.677,386.767 404.946,386.647 406.681,388.139ZM178.336,622.262L179.353,622.097C183.141,626.047 184.442,622.15 183.492,621.508C183.401,621.446 180.81,621.389 180.576,621.384L181.498,619.494C184.472,617.343 182.097,616.953 180.498,615.55C179.585,615.312 177.832,611.56 175.448,616.942C174.929,616.938 169.325,616.888 169.134,618.443C169.11,618.634 168.922,620.167 170.526,620.399C174.681,620.997 174.334,623.505 178.336,622.262ZM32.515,634.44C34.099,635.433 34.539,637.194 35.116,635.372L33.678,632.449C32.332,630.261 32.696,629.845 31.458,629.675C31.071,629.621 26.056,630.877 32.515,634.44ZM172.843,141.122C170.119,138.569 170.57,138.305 168.019,135.68C168.107,135.21 168.924,135.117 169.013,134.648C169.07,134.344 167.742,132.868 166.464,132.812C155.627,132.343 153.952,128.427 147.532,135.528C143.546,139.938 158.735,147.877 165.469,146.406L168.521,145.7C171.352,145.576 175.324,145.046 172.843,141.122ZM348.796,452.517C347.446,448.276 346.678,452.256 346.735,452.317C346.847,452.439 346.887,452.332 348.796,452.517ZM620.616,182.5C622.401,183.858 622.272,184.498 623.721,183.968C624.57,183.657 624.545,183.488 624.203,182.719C623.32,180.74 622.771,181.838 620.616,182.5ZM405.199,394.974L405.397,395.586L405.988,396.93C406.437,396.627 407.125,396.876 407.574,396.573C409.953,394.967 405.428,394.974 405.199,394.974ZM333.629,464.481C332.29,462.933 331.531,462.72 330.882,464.599C330.81,464.806 331.05,468.311 333.629,464.481ZM263.77,557.601C263.25,555.872 262.586,555.073 261.808,556.63C261.73,556.787 260.422,559.628 263.77,557.601ZM456.86,343.326C458.67,343.209 459.235,343.109 458.744,341.321C458.685,341.109 456.338,338.986 456.86,343.326ZM469.472,49.049C469.829,49.025 475.297,48.669 473.194,46.584C472.844,46.237 469.702,47.406 469.667,47.467C469.603,47.577 469.667,47.467 469.472,49.049ZM803.893,298.752L802.5,297.777L800.779,298.347C800.882,300.486 803.675,298.878 803.893,298.752ZM261.5,269.537C264.043,269.633 268.754,271.323 266.479,265.509C264.679,260.908 250.249,269.518 261.5,269.537ZM262.432,268.814C261.686,266.807 261.521,266.802 261.628,266.652C262.332,265.669 267.474,268.893 262.432,268.814ZM464.485,327.699C462.052,328.734 461.999,328.638 461.857,328.817C459.061,332.341 465.028,329.435 465.276,329.314C465.061,328.879 465.292,328.889 465.083,328.468C465.048,328.398 465.083,328.468 464.485,327.699ZM617.414,173.57C617.589,173.623 622.574,175.145 619.046,171.977C617.703,170.77 617.507,171.838 617.414,173.57ZM479.499,105.041C481.453,108.762 482.497,107.138 486.595,108.093C497.263,110.579 502.929,88.777 518.458,101.523C520.345,103.071 518.406,107.952 522.504,105.089C528.316,108.437 528.382,101.304 530.279,99.303C530.634,98.929 532.765,96.681 535.517,95.54C546.361,91.043 545.494,89.62 546.483,89.45C547.607,89.257 549.393,87.475 549.686,86.597C551.978,79.741 560.055,76.321 560.697,74.604C562.52,69.728 563.594,68.763 562.075,65.493C563.734,63.9 564.144,64.446 565.312,62.384C566.593,60.122 572.041,58.603 572.489,58.443C574.294,58.278 574.295,58.329 574.438,58.265C579.998,55.773 580.56,58.624 583.304,57.114C592.564,52.018 577.656,46.963 577.379,46.683C573,42.272 570.405,46.028 564.312,43.944C562.085,43.182 562.034,45.543 560.559,45.708C557.302,46.073 557.613,46.733 555.504,47.931C554.621,47.327 554.276,45.181 550.712,47.81C550.414,48.03 538.565,52.764 537.579,52.98C537.115,53.082 533.421,52.872 532.515,53.524C530.648,54.869 530.763,54.929 528.571,55.747C527.688,56.076 526.127,59.9 518.503,62.51C516.502,63.195 516.679,63.573 514.563,63.826C513.051,64.323 513.148,64.372 511.531,64.266C508.424,62.92 508.19,63.567 505.388,61.634C494.907,54.404 493.61,52.811 489.468,53.227C479.028,54.275 493.107,66.59 493.932,67.499L493.929,68.5C494.759,72.758 494.714,72.716 494.938,73.4C494.764,73.725 492.961,73.049 493.884,75.368C494.66,77.314 493.952,77.289 492.946,80.5L492.449,81.5C492.432,81.949 491.887,81.956 492.411,82.515C494.908,85.183 483.708,91.821 480.542,87.477C480.088,86.855 480.014,86.028 479.695,85.327C478.671,83.077 476.059,87.507 475.873,87.821C474.23,90.607 473.551,89.605 470.494,90.469L468.679,90.83C463.975,93.921 464.475,98.761 457.374,100.111C454.49,100.659 453.875,104.278 449.522,103.681C448.872,103.592 449.051,104.75 441.447,105.136C438.357,105.293 436.571,110.638 426.51,110.589C422.565,110.569 419.359,117.375 409.526,116.31L406.482,115.554C403,114.956 396.506,110.65 399.476,115.509C401.339,118.557 399.71,118.966 401.105,122.651C402.122,125.337 397.271,139.754 404.704,135.946C406.74,134.903 407.387,135.974 409.205,133.325C410.124,131.986 410.14,132.159 411.385,131.189C412.986,130.626 412.968,130.6 414.606,131.191C429.382,132.543 428.589,125.737 435.538,126.119C436.856,126.192 442.924,127.982 447.481,122.478C451.148,118.05 452.76,120.89 457.616,117.701C459.968,116.157 462.101,116.443 462.5,116.496C466.431,117.023 474.022,108.436 477.441,107.335C477.675,107.26 478.451,107.01 479.499,105.041ZM378.047,198.816C373.856,197.651 376.368,200.374 376.515,200.481C377.958,201.528 378.188,200.582 378.047,198.816ZM270.386,523.413C267.775,530.301 275.33,522.768 273.59,521.36C272.677,520.62 270.579,523.178 270.386,523.413ZM466.594,326.598C466.558,327.77 466.68,327.723 467.506,328.53C468.787,327.181 468.13,326.646 466.594,326.598ZM225.201,589.377C225.707,587.457 225.823,587.585 227.288,586.286C230.66,583.296 221.136,576.496 220.517,576.573C217.854,576.904 220.218,598.679 225.201,589.377ZM225.194,582.972C225.906,585.221 225.356,585.176 224.084,587.232C222.508,589.78 219.206,581.665 225.194,582.972ZM633.463,171.52C631.913,170.216 630.917,170.533 631.154,172.529C631.178,172.73 633.742,176.898 633.463,171.52ZM92.254,110.832C93.634,111.292 99.883,115.368 102.593,111.565C105.896,106.928 85.111,103.422 92.254,110.832ZM93.457,110.601C93.472,110.364 93.787,105.402 96.401,110.223L93.457,110.601ZM97.586,109.736C99.31,109.526 100.19,108.705 100.187,110.499C100.186,111.09 98.791,111.75 98.504,111.487C98.019,111.042 98.072,110.182 97.586,109.736ZM270.212,543.129C270.261,540.347 268.951,541.263 263.493,540.004C260.397,539.29 262.843,543.493 270.212,543.129ZM405.434,392.175C402.271,388.783 401.767,391.174 401.857,391.452C401.931,391.681 402.122,392.277 404.088,393.483L405.434,392.175ZM309.984,486.556L309.861,485.816L306.477,484.145C303.61,483.734 303.824,485.016 304.547,487.807C302.641,489.098 302.284,488.92 301.965,491.458C302.844,493.785 302.969,493.764 302.915,493.972C302.762,494.553 301.459,494.205 301.307,494.786C304.31,497.419 301.981,503.257 305.782,499.987C308.615,497.549 307.963,496.687 308.807,495.75C311.07,493.239 309.693,492.755 310.718,489.551L309.984,486.556ZM50.328,563.529C49.552,562.67 49.652,562.109 48.616,562.701C47.987,563.059 48.483,567.154 50.328,563.529ZM78.747,617.444C80.322,618.523 81.544,619.406 81.19,617.515C80.776,615.299 79.032,615.195 78.747,617.444ZM56.501,590.5C58.906,592.605 58.59,589.08 57.472,589.101C57.336,589.103 57.472,589.101 56.501,590.5ZM284.528,519.557C284.062,520.956 284.014,520.933 284.607,522.376C285.958,521.578 286.905,521.901 286.226,520.419L284.528,519.557ZM628.431,174.481C629.94,175.038 631.307,175.948 630.464,174.5C629.318,172.532 628.559,174.331 628.431,174.481ZM622.641,206.877L621.73,207.552C622.403,209.139 621.969,210.342 623.49,209.477C625.242,208.481 624.527,207.788 622.641,206.877ZM261.601,546.79C259.309,550.282 263.823,548.848 263.66,547.448C263.522,546.263 263.073,546.865 261.601,546.79ZM948.348,337.508C947.538,336.585 947.637,336.01 946.611,336.673C946.239,336.914 945.953,341.024 948.348,337.508ZM255.645,547.254C251.326,546.551 254.39,549.291 257.456,554.54C259.335,557.756 261.156,552.481 255.645,547.254ZM235.511,581.529C236.371,580.612 237.034,580.7 236.308,579.629C235.607,578.596 231.632,580.682 235.511,581.529ZM277.498,518.509C276.119,519.467 276.121,519.332 276.119,519.467C276.102,520.612 279.543,520.768 277.498,518.509ZM359.364,445.16C359.253,445.282 355.837,449.05 360.25,447.024C360.4,446.955 362.601,445.945 359.364,445.16ZM462.408,334.384C462.497,336.016 462.011,337.251 463.465,336.423C466.093,334.927 462.59,334.411 462.408,334.384ZM487.508,312.5C486.272,310.976 485.125,310.515 485.118,312.497C485.118,312.688 485.109,315.487 487.508,312.5ZM206.625,403.284C205.533,402.668 205.518,402.637 204.316,403.13C197.772,406.404 208.993,412.408 208.8,406.497C208.731,404.385 208.302,404.61 206.625,403.284Z" style="fill:rgb(191,198,196);fill-opacity:1;"/>
        </g>
    </g>
</svg>
