<?xml version="1.0" encoding="UTF-8" standalone="no"?>
<!DOCTYPE svg PUBLIC "-//W3C//DTD SVG 1.1//EN" "http://www.w3.org/Graphics/SVG/1.1/DTD/svg11.dtd">
<svg width="100%" height="100%" viewBox="0 0 1920 1668" version="1.1" xmlns="http://www.w3.org/2000/svg" xmlns:xlink="http://www.w3.org/1999/xlink" xml:space="preserve" xmlns:serif="http://www.serif.com/" style="fill-rule:evenodd;clip-rule:evenodd;stroke-linejoin:round;stroke-miterlimit:2;">
    <g transform="matrix(1,0,0,1,0,326.543751)">
        <g id="panama" transform="matrix(1.876874,0,0,1.876874,-1.663108,-331.072009)">
            <path d="M335.856,264.057C335.721,262.987 335.564,261.804 335.381,260.499C334.976,257.6 335.02,257.755 335.501,254.949L337.495,254.953C338.822,258.387 338.789,258.702 342.473,259.555C346.909,260.583 345.206,262.221 346.463,266.697L345.492,266.795C342.619,263.383 341.922,264.709 340.555,265.996C336.493,264.308 336.158,264.224 335.856,264.057ZM335.875,272.364C332.644,271.624 334.569,276.282 334.437,276.305C333.315,276.504 321.849,273.704 329.191,270.003C332.681,268.244 329.231,262.367 326.062,250.684C325.864,249.954 325.867,248.474 318.5,250.191L317.5,250.215C309.46,247.602 309.243,247.475 301.742,250.895C290.976,255.804 294.128,244.235 291.837,240.5C291.452,239.872 290.282,240.071 289.897,239.443L289.219,237.736C290.186,235.653 290.284,235.808 290.186,235.653C283.737,225.473 276.527,234.377 274.5,234.29C270.89,234.136 252.904,209.252 251.52,206.486C247.839,199.128 245.63,205.677 237.504,206.543C236.596,206.639 228.342,207.518 226.483,209.482C222.231,213.972 230.099,220.765 212.438,228.394C202.091,232.864 188.729,249.566 188.617,251.507C188.172,259.264 180.204,259.311 173.771,266.737C165.947,275.77 164.517,274.383 164.218,275.369C160.635,287.177 147.798,291.963 147.285,295.44C146.62,299.944 144.983,298.786 141.96,301.957C137.024,307.135 133.778,309 140.014,312.505L139.883,313.511C138.967,322.858 117.126,325.634 107.289,334.247C103.009,337.994 91.452,333.074 87.655,342.58C84.692,349.999 62.753,350.041 60.5,350.045C52.514,350.061 52.296,350.69 44.228,360.269C37.275,368.524 30.185,355.804 25.66,365.587C24.319,368.485 18.21,368.853 17.508,368.896C16.193,368.893 1.155,368.862 1.129,367.604C0.537,338.642 1.214,338.83 1.208,5.499C3.501,5.152 3.32,5.181 5.5,6C7.484,6.745 201.128,7.85 207,5.5L208.5,5L209.5,5L211,3.5L212.5,3.497L213.5,3.5L594.5,3.5L595.5,3.964L596.715,3.319L599.663,2.413C600.163,7.463 600.709,7.332 600.073,12.447C594.743,15.384 597.11,18.006 591.688,20.853C589.839,21.824 589.45,32.358 577.391,34.084C570.296,35.099 570.172,36.591 563.522,33.437C563.305,33.334 563.522,33.437 560.529,33.732L555.466,33.755C551.002,33.892 552.428,39.596 548.539,37.417C541.97,33.737 541.296,41.619 534.572,38.364C534.184,38.176 527.366,36.774 533.229,43.589C534.753,45.36 528.115,47.205 527.456,46.649C520.483,40.767 530.583,56.726 525.436,55.751C525.154,55.697 519.999,49.08 518.369,53.439C517.239,56.461 522.388,56.677 519.756,58.713C515.187,62.249 513.135,60.888 512.519,66.503C512.329,68.237 506.693,70.729 506.49,70.694C503.657,70.2 501.614,68.481 501.296,73.46C501.072,76.965 493.918,73.549 493.335,86.474C492.76,99.219 504.682,100.21 504.834,102.468C504.927,103.852 506.095,107.407 502.422,105.75C494.502,102.178 508.228,114.329 503.653,117.653C502.737,118.319 501.091,127.686 506.588,131.176C511.759,134.459 510.687,135.97 516.404,137.897C526.055,141.151 506.781,153.885 510.645,145.559C518.816,127.949 504.75,146.051 504.443,146.447C504.204,146.754 504.302,146.778 502.548,150.924C498.616,150.454 499.31,149.33 499.038,145.506C500.022,143.563 503.986,136.266 504.421,135.465C506.09,132.393 499.163,131.772 499.225,128.528C499.324,123.247 496.469,123.326 498.262,118.459C499.598,114.832 497.122,119.103 493.422,120.254C490.018,121.314 489.057,123.622 487.796,120.326C487.443,119.405 480.518,115.968 489.541,114.753C491.394,114.558 492.507,116.222 492.093,114.484C491.79,113.215 491.058,113.697 490.779,112.526C497.424,103.159 484.117,90.981 481.914,103.602C481.613,105.327 470.938,108.759 474.447,112.544C477.041,115.341 473.61,117.809 477.389,118.789C481.397,119.828 471.28,134.887 469.674,126.378C468.191,118.518 467.007,128.266 466.604,128.639C466.572,128.669 462.682,129.765 462.28,122.508C463.27,121.499 463.392,121.816 464.347,120.828C466.35,121.621 466.322,122.403 468.113,121.123C469.374,120.221 466.709,114.143 466.305,113.756C462.178,109.812 466.301,107.189 463.54,106.408C450.159,102.62 468.35,102.701 468.512,100.503C468.872,95.639 467.213,94.005 463.494,96.94C463.483,96.928 458.369,92.634 458.811,90.519C460.098,84.363 455.038,90.263 454.488,90.414C446.214,92.689 452.359,99.682 456.17,100.682C453.848,102.342 453.982,102.157 453.848,102.342C452.687,103.948 454.663,102.804 456.36,103.766C457.028,104.411 458.977,106.293 460.707,114.525L457.516,115.55C456.975,118.563 457.544,118.328 458.851,120.83C454.155,123.699 455.104,119.872 454.645,114.475C457.148,110.776 455.734,110.664 455.284,109.919L452.51,111.85C448.561,113.961 450.419,119.099 446.698,116.5C446.499,111.488 446.816,111.327 447.201,111.133C454.002,107.694 441.121,106.291 439.632,106.885C432.435,109.755 439.382,102.067 435.334,95.555C433.794,93.076 437.347,89.059 426.459,86.951L423.501,86.815L418.56,86.978C417.637,87.568 413.917,89.945 410.444,98.006L409.513,97.864C403.581,93.737 402.403,102.226 405.501,101.855C409.995,101.315 408.754,107.346 407.602,107.805C406.686,108.17 377.88,119.644 399.459,117.058C415.236,115.167 395.385,122.577 395.33,124.493C395.322,124.78 397.865,131.921 401.32,129.223C404.01,127.122 406.008,129.165 406.938,129.504C404.429,131.949 404.669,132.006 404.502,135.5C404.414,137.346 399.212,137.229 402.865,143.349C403.288,144.056 409.158,153.891 405.5,153.307C402.814,152.878 403.361,151.693 400.508,151.344C399.003,151.161 398.925,152.506 398.915,152.672C398.782,154.984 398.128,154.604 396.454,154.509C396.17,152.918 396.254,153.016 396.17,152.918C389.353,144.93 391.925,143.384 391.125,142.992C388.553,141.729 390.03,140.797 388.631,138.376C386.13,136.935 386.155,137.902 384.488,138.905L383.495,138.94C380.49,133.625 369.638,139.416 373.817,143.205C376.975,146.067 375.618,151.723 375.443,152.454L372.578,152.777C369.172,151.735 368.529,150.534 366.567,153.512C365.584,151.716 366.052,151.239 364.597,151.12C359.511,150.703 365.751,154.111 365.991,154.243C367.914,156.543 368.347,154.566 371.185,154.574C371.773,156.146 371.68,155.982 372.716,157.325C385.001,158.881 379.158,166.967 384.5,171.345C378.714,174.046 379.965,180.611 375.12,176.51L375.268,175.517C376.599,172.35 378.108,169.898 378.395,169.432C382.012,163.554 370.409,156.992 374.544,162.471C380.673,170.593 360.367,178.826 361.766,187.457C362.607,192.642 361.5,211.383 361.377,213.46C357.497,213.834 357.636,213.401 354.416,214.601C351.573,209.347 351.303,209.241 345.498,208.495L342.698,209.777C341.497,211.498 338.867,213.634 338.5,213.932L335.496,213.944L334.46,212.697L332.479,211.618C331.461,211.352 320.318,208.441 319.824,208.032C310.812,200.579 310.61,196.526 320.906,190.883C326.771,187.734 319.856,189.224 319.708,189.286C318.283,186.293 318.236,186.158 320.233,182.368C320.343,182.16 321.242,180.453 320.602,179.45C317.476,174.548 321.128,172.305 316.048,169.499C319.04,167.908 318.78,167.667 319.646,164.495C320.268,162.215 318.762,164.126 316.499,164.384C310.565,165.059 320.999,160.122 321.938,154.556C322.057,152.902 322.029,153.039 321.565,151.481C320.237,147.117 319.469,147.757 316.064,144.502C316.37,143.913 336.416,104.584 317.158,136.274C315.375,139.208 313.243,136.219 315.428,133.45C321.654,125.56 312.644,132.121 310.514,132.653C303.868,134.313 304.239,134.831 299.311,139.296C297.307,141.112 294.659,135.55 288.371,140.284C288.298,140.339 279.27,144.131 278.478,144.463C277.992,144.667 272.911,149.98 272.44,150.472C271.888,151.049 274.708,152.048 268.831,159.766C266.752,162.497 265.732,169.197 260.742,173.763C255.731,178.35 255.679,179.937 255.615,181.507C253.357,186.507 241.063,193.625 250.508,195.463C255.304,196.397 250.085,200.353 255.812,207.292C259.886,212.229 271.316,233.771 277.273,230.098C293.738,219.947 295.082,247.396 297.662,249.041C303.021,252.458 303.898,240.267 314.824,247.01C315.081,247.168 315.689,247.544 318.461,246.004C322.983,248.967 327.046,241.758 328.73,248.471C328.844,248.924 330.883,257.052 332.843,263.759C332.869,263.949 332.935,264.17 333.036,264.417C334.156,268.205 335.229,271.426 335.875,272.364ZM332.843,263.759C332.715,262.833 333.534,262.665 335.773,264.009C335.802,264.026 335.829,264.042 335.856,264.057C336.106,266.038 336.276,267.628 336.378,268.875C334.762,267.276 333.51,265.57 333.036,264.417C332.972,264.199 332.907,263.98 332.843,263.759ZM336.378,268.875C340.238,272.696 346.176,275.911 348.553,269.537C352.643,258.569 359.01,280.285 365.429,275.402C370.882,271.252 382.442,281.682 392.97,266.803C396.534,261.766 397.695,263.688 399.58,262.678C408.475,257.912 412.244,260.899 412.014,254.53C411.786,248.213 405.213,252.64 404.723,252.211C395.932,244.521 412.29,247.307 414.285,245.269C415.478,244.865 415.358,244.984 416.493,245.524C419.142,246.784 418.465,240.234 413.559,242.587C408.278,244.678 408.445,224.052 416.664,235.263C416.887,235.567 417.758,236.144 419.443,231.453C426.055,230.28 422.803,227.703 422.423,227.735C420.831,227.868 419.927,230.059 418.715,227.296C413.702,224.035 411.703,221.803 417.139,219.098C417.401,219.374 420.248,222.38 420.517,222.452C427.02,224.193 418.556,217.77 418.208,217.506C417.348,215.119 418.948,214.061 418.592,213.454C417.266,211.194 417.013,210.433 419.485,209.883L420.472,210.223C428.146,214.583 422.82,207.669 422.632,207.46C422.471,205.049 423.41,205.398 424.099,203.211C424.99,200.385 425.231,199.778 428.288,200.682C424.575,205.88 427.031,206.461 427.391,206.196C429.322,204.771 428.601,203.858 430.971,203.312C430.743,209.658 427.041,213.462 428.54,215.464C431.025,218.786 431.256,212.678 431.269,212.347C431.444,207.728 433.324,211.584 433.504,211.705C434.993,212.702 436.874,206.578 437.83,205.835C442.147,202.475 436.971,197.124 442.513,197.641C451.931,198.52 447.866,176.238 453.413,182.543C453.351,182.737 452.373,193.39 455.324,184.24C456.072,183.606 456.626,182.764 457.375,182.13C459.89,179.999 457.616,187.064 460.531,185.629C462.333,184.743 463.612,183.542 463.098,185.639C462.385,188.545 463.286,190.756 460.546,189.372C457.452,187.809 458.142,190.059 457.79,193.565L457.229,192.5C455.003,191.821 454.15,190.72 454.207,192.482C454.217,192.79 456.417,195.261 456.622,195.492C459.181,200.03 459.548,194.189 464.581,192.683C467.226,191.891 465.799,187.823 465.657,187.418C463.738,181.947 467.744,179.546 468.338,179.19C472.144,176.909 468.062,173.585 472.288,172.038C475.339,170.921 479.804,165.196 480.346,164.5C480.681,164.585 482.58,165.066 484.563,165.382C481.925,167.812 481.902,168.055 481.871,168.376C481.547,171.749 482.928,168.149 485.624,166.07C488.425,168.883 488.703,168.784 488.724,173.471L487.344,175.109C482.17,176.168 484.365,178.045 484.618,178.262C484.863,178.471 485.037,178.62 488.555,177.435C489.067,178.343 488.909,178.36 489.411,183.558C486.365,185.044 486.426,185.867 483.541,184.437C482.035,183.69 481.581,183.755 481.331,185.52L481.576,186.374C485.037,187.505 484.928,187.767 488.372,186.985C491.446,189.755 493.034,191.674 493.259,188.563C493.467,185.6 494.083,186.017 495.682,183.312C496.8,184.57 498.624,189.702 499.295,186.384C500.032,182.743 500.418,182.9 503.535,181.463L503.94,182.333C501.103,186.327 504.635,185.919 505.717,188.405C507.517,192.54 494.292,191.05 495.796,194.483C496.607,196.337 492.413,199.641 496.505,198.516C501.042,197.268 501.402,199.033 505.218,196.5C506.63,198.308 506.765,198.473 505.574,200.505L502.482,201.453C499.688,203.185 499.623,202.479 496.803,203.79C492.089,201.49 492.655,205.01 487.805,206.863C485.942,207.575 487.682,207.78 489.401,208.511C489.359,213.185 489.354,213.155 489.356,213.559C489.362,215.196 496.173,219.066 490.603,219.945L487.922,217.817C487.866,219.659 488.162,219.402 488.936,220.968C483.079,227.525 482.563,227.645 482.249,226.997C481.231,224.897 479.836,225.708 479.608,225.587C479.567,229.497 478.721,234.725 478.594,235.513C476.614,240.801 479.259,243.213 483.576,239.601C483.807,237.24 483.369,237.177 485.113,235.5C487.104,235.338 487.173,234.988 488.505,236.498L488.615,237.53C489.046,241.338 489.487,241.642 489.17,243.382C488.69,246.014 486.254,245.6 487.57,249.433C487.592,251.69 488.019,251.755 486.472,253.48C484.384,255.808 487.308,255.72 489.983,254.08C490.64,254.372 490.219,255.75 490.875,256.042C491.181,256.178 491.062,254.978 495.047,255.621L495.433,256.559L493.886,258.355C491.6,258.573 491.76,258.482 491.6,258.573C483.755,263.031 493.695,261.205 493.971,261.154C499.103,263.873 498.419,260.582 498.545,260.464L498.947,267.501C497.317,268.383 497.48,268.525 495.536,268.43L495.383,266.563L496.757,265.5C495.688,264.676 495.846,264.788 494.504,264.647C492.364,265.605 492.538,265.597 490.617,266.684C489.094,269.69 490.262,269.64 491.766,272.615L492.245,273.551C491.741,274.084 491.973,275.078 491.469,275.611C491.08,276.022 490.939,275.642 487.433,269.802C481.956,266.339 486.626,271.43 486.692,271.605C485.932,273.071 485.993,272.943 486.531,274.477C486.573,276.455 486.115,276.448 487.292,277.851C491.574,279.855 492.008,278.829 494.624,274.896C497.172,274.749 496.485,275.861 496.047,278.293C491.023,283.411 492.067,284.173 492.602,284.323C492.856,284.395 492.832,284.258 495.895,284.139L494.5,285.802C494.209,286.279 493.217,285.902 492.926,286.379C492.732,286.697 493.408,290.355 497.489,285.463C501.369,282.626 500.617,280.819 505.368,281.197L506.499,281.643C507.085,281.627 507.048,280.315 507.634,280.299C510.133,280.231 509.301,281.444 509.457,281.378C512.465,280.101 512.257,279.951 515.286,279.064C517.799,282.208 519.228,281.423 520.61,277.689C524.6,274.751 524.385,274.849 528.497,272.069C530.706,273.63 530.876,273.586 533.305,272.252C540.723,269.107 540.416,273.099 548.029,275.539L548.023,278.46C545.757,278.83 545.509,278.568 544.753,280.602C542.723,286.062 542.361,286.012 542.542,286.481C543.116,287.969 550.482,286.305 545.58,290.776L542.51,290.843C539.184,291.568 534.796,292.479 533.899,290.284C530.699,282.449 530.184,290.598 529.842,292.748C527.969,292.436 527.944,292.592 527.017,290.956C524.574,286.65 515.517,288.962 514.656,288.254C509.541,284.046 514.842,294.53 508.488,296.618C497.854,300.114 505.503,314.11 509.453,311.442C512.087,309.663 514.538,313.752 510.546,314.262C495.508,316.182 503.893,305.002 497.12,295.818C493.688,291.165 488.339,308.24 488.239,299.409C488.662,298.356 493.284,286.856 486.542,285.33C482.957,284.518 486.355,288.154 483.609,290.688C480.092,289.382 480.876,291.709 478.317,294.609C478.323,294.789 480.422,301.925 480.557,294.85C481.104,294.41 481.039,294.726 481.474,294.375C481.646,294.238 481.474,294.375 483.49,292.509L485.766,293.391C485.025,293.891 480.913,300.058 481.876,303.473C479.59,307.603 480.992,308.035 478.677,311.53C477.531,314.487 478.725,314.993 476.344,317.138C474.206,318.794 473.62,317.823 473.432,317.798C473.26,317.593 467.058,310.966 470.44,319.298C468.278,320.39 468.339,320.187 466.909,321.909C464.707,320.219 464.838,320.325 462.943,318.352C462.754,317.99 461.288,315.176 458.514,315.818C454.689,316.703 460.241,318.511 460.501,318.595C462.426,321.365 462.244,321.246 464.886,323.625C460.733,330.16 462.125,330.775 462.69,331.025C466.302,332.623 465.158,328.332 470.454,325.408L471.084,325.066C471.092,324.779 471.191,324.881 471.511,321.505C472.657,321.793 472.219,320.355 473.362,320.642C473.582,320.697 473.214,321.116 475.499,322.506L478.491,320.551C479.91,320.529 480.269,319.33 483.544,322.463C482.067,325.756 482.135,326.167 478.43,326.421C474.516,326.689 487.546,337.151 479.516,341.556C472.714,344.801 474.884,353.623 469.22,348.703L467.429,348.291C465.303,350.042 466.22,351.555 463.427,351.217C460.359,350.846 460.271,349.731 457.638,351.668C448.96,358.055 447.465,355.455 447.199,356.33C446.606,358.282 446.467,358.793 444.456,357.842C440.15,355.806 443.995,362.516 440.911,365.683C438.64,368.017 444.683,367.095 444.049,372.158L442.633,372.312L441.436,370.843C441.098,370.79 437.611,370.235 437.198,371.349C434.546,378.49 442.155,379.591 447.773,372.644C448.129,372.204 447.456,369.262 447.852,368.771C449.874,366.268 451.648,368.503 453.453,365.078C453.876,365.314 464.175,371.051 456.588,370.26C450.853,369.662 455.067,373.575 456.452,373.111C459.762,372.002 459.375,371.636 462.502,370.504C466.274,369.138 462.685,365.542 466.548,364.674C471.705,363.515 472.359,363.108 475.542,367.465C477.077,369.567 480.911,365.361 478.482,363.524C478.062,363.206 474.706,360.668 473.351,359.409C474.365,358.446 474.206,358.617 475.417,358.098C479.359,361.923 481.666,359.341 483.766,364.391C485.024,367.418 488.232,362.397 489.154,359.48L491.418,358.158C493.59,355.88 491.663,355.593 491.511,352.504C497.187,353.595 495.728,350.781 495.449,350.567C495.442,350.561 493.374,350.316 492.5,349.597L491.514,349.496C491.405,342.979 501.297,349.452 502.443,354.513C502.665,355.491 505.057,366.049 504.865,366.805C504.647,367.665 496.246,364.678 495.518,364.419C490.271,362.554 493.27,368.309 491.371,369.237C490.696,369.567 483.678,372.996 483.635,374.557C483.452,381.261 489.255,368.78 495.998,374.292C495.898,374.474 491.977,381.602 497.51,376.411C503.556,375.463 503.442,375.725 504.354,375.042C505.025,374.538 513.836,377.848 514.198,378.76C515.706,382.561 516.404,382.406 520.333,381.5C522.512,384.461 524.368,383.706 529.5,380.109C531.403,381.157 532.701,380.785 531.609,382.582C530.502,384.403 530.509,384.293 530.803,386.362L529.5,387.234C526.65,386.502 526.569,387.958 527.804,390.725C520.845,391.309 528.635,392.038 528.765,392.029C535.04,392.419 535.076,392.151 535.537,392.439C536.891,393.285 536.91,393.692 535.69,394.766C530.367,399.45 532.469,400.443 533.479,407.5C535.099,418.815 524.033,389.902 521.956,396.933C520.95,400.335 516.838,400.218 519.273,401.701C525.056,405.22 520.256,406.109 518.312,407.167C516.829,408.063 516.886,408.404 515.365,407.748C515.421,405.638 516.171,403.129 512.055,404.888L510.436,403.763C506.511,393.737 507.586,405.313 507.614,405.58C502.098,413.469 509.75,411.235 512.608,413.264C513.095,415.584 512.676,416.575 514.823,415.92C516.412,408.563 519.08,412.244 519.344,412.607C521.339,415.358 522.618,413.768 524.511,416.497C524.07,416.802 521.911,418.293 518.502,419.47C513.051,422.564 516.199,425.687 517.08,424.259C517.261,423.965 517.2,423.992 519.136,420.464C522.612,420.042 522.406,419.72 525.773,419.41C525.377,420.764 515.025,429.654 521.487,429.59C531.874,429.487 519.938,435.971 518.896,439.559C518.722,440.157 519.008,442.352 526.679,439.308L528.504,441.469C530.263,441.36 530.313,441.703 531.607,440.606C535.2,433.524 538.197,436.085 538.748,433.656C540.6,425.493 542.359,435.204 542.314,435.495C541.604,440.082 533.322,436.068 535.666,443.471C536.193,445.134 537.472,443.124 538.453,444.576C538.65,444.868 540.458,447.977 534.539,446.58C533.838,446.415 533.719,446.865 534.095,455.564L532.462,457.422C528.758,459.923 528.711,457.66 524.384,456.662C522.313,456.185 532.106,447.235 523.502,447.474C519.073,447.596 519.459,448.505 517.258,452.188L516.559,452.93C508.542,454.861 520.423,463.754 523.484,464.164L526.509,464.259C531.78,463.926 533.289,464.015 533.059,458.845L535.56,460.378C539.791,460.334 536.023,457.588 537.727,453.667C539.62,449.31 540.236,453.966 542.724,455.164C544.202,455.876 543.656,456.175 543.734,457.722C541.76,460.094 544.575,462.719 541.45,462.391C541.217,462.366 539.898,463.161 540.211,464.61C541.05,468.509 546.066,460.376 546.175,460.255C546.55,460.158 552.844,458.536 550.476,462.489C549.341,464.384 548.275,463.008 546.974,464.915C544.16,469.04 548.604,467.687 549.171,467.966C560.643,473.62 559.732,464.271 576.458,460.217L586.526,460.403C599.406,461.918 599.275,459.365 599.081,458.366C598.153,453.587 597.189,452.964 601.003,450.117C602.191,449.23 600.968,446.668 604.388,447.834C607.315,448.831 606.839,447.21 609.5,445.842C612.924,446.505 609.832,447.605 608.884,449.646C607.75,452.088 607.221,451.292 604.509,451.527C598.622,452.038 601.337,454.621 602.796,460.414L603.286,461.785C612.54,465.431 613.056,462.611 622.465,465.656L627.556,466.266C628.437,466.284 634.839,466.41 638.495,464.955C641.054,465.595 650.244,473.856 652.634,468.574C653.602,466.436 657.463,463.463 653.213,459.787C649.037,456.174 652.259,454.896 650.305,449.577C649.452,447.257 651.947,445.538 652.422,445.343C653.248,445.003 653.213,445.335 663.402,443.291L664.095,444.5L666.351,445.1L668.636,447.342C670.739,447.395 673.461,447.678 671.519,443.523C673.62,441.095 673.509,441.236 675.654,438.658C676.744,437.054 676.218,437.111 675.191,435.301L674.217,433.266C675.273,430.594 674.779,430.662 674.942,428.504C678.007,424.638 679.673,425.148 678.745,420.47C678.197,417.707 676.305,418.71 676.082,418.55C676.072,417.783 676.056,417.867 675.671,413.432C678.32,411.696 678.845,411.596 680.767,414.17C682.987,417.144 683.939,411.596 692.498,413.516C696.934,414.511 698.562,407.989 697.049,405.491C698.224,403.303 698.704,403.755 699.22,401.448C701.646,390.602 702.891,390.449 700.977,387.548C702.146,383.735 701.836,383.753 702.951,374.503C703.635,371.671 711.346,339.76 712.416,339.336C716.905,337.556 725.926,346.693 741.448,347.994C742.963,348.121 745.88,351.647 747.658,347.568C750.787,340.387 741.274,331.048 746.464,326.458C747.483,325.557 748.83,328.08 761.466,318.458C769.265,312.52 777.499,320.547 778.489,321.512C778.605,321.625 778.489,321.512 780.457,321.952C782.739,325.462 783.359,325.826 783.72,326.038C786.917,327.92 784.827,324.729 782.927,321.707C784.37,318.415 785.389,319.079 785.984,315.55C786.177,314.406 789.221,309.424 776.396,301.672C769.267,297.363 773.929,294.881 772.313,291.916C770.812,289.162 768.655,303.531 762.769,296.267C760.711,293.728 752.679,291.818 757.734,287.77C761.049,285.115 760.936,283.219 764.708,285.164C766.353,286.013 777.719,280.14 769.771,273.234C768.038,271.729 769.452,270.603 772.77,266.776C773.493,265.941 773.632,266.374 777.085,266.914L777.904,268.388C773.902,280.9 781.217,278.262 781.596,277.567C785.618,270.188 786.363,269.995 784.378,264.61C792.83,256.052 781.545,263.637 781.355,263.801C779.142,260.337 782.575,260.556 783.06,256.413C783.321,254.188 787.569,255.888 786.425,253.529C784.553,249.666 785.442,249.614 786.388,245.479C786.915,243.17 785.217,242.544 787.433,241.379C788.665,240.732 788.184,240.378 794.46,225.47C794.744,224.798 792.926,221.448 796.433,220.338C796.774,220.23 803.989,217.948 799.371,216.964C796.472,216.347 793.952,216.398 796.336,214.397C798.277,212.767 794.544,204.153 797.624,202.706C800.402,201.4 797.48,199.818 799.356,197.419C802.702,193.14 797.152,192.81 798.33,187.474C799.069,184.125 794.305,187.672 792.492,183.496C793.676,183.038 802.158,176.352 801.677,182.475C801.379,186.261 801.897,186.113 803.819,189.321C810.288,200.118 809.416,182.691 811.58,181.74C822.048,177.139 817.167,172.02 826.467,165.417C828.567,165.233 828.434,165.292 830.488,165.513C832.446,168.132 832.369,168.183 832.603,168.342C841.391,174.291 825.598,151.669 831.892,149.5L833.518,148.087C836.81,148.706 836.35,149.51 839.504,150.084C841.908,154.772 845.365,155.567 840.579,159.614C840.325,159.829 838.343,161.506 842.027,163.506L841.93,164.449C844.782,168.016 845.545,168.485 842.838,171.99C839.529,170.997 837.867,170.013 838.011,173.487C838.095,175.505 838.383,176.441 836.437,175.923C826.935,173.39 830.594,180.667 823.463,187.478L822.578,188.539C819.295,191.511 818.692,191.052 818.318,193.569L818.638,195.654C814.545,198.4 812.146,198.553 814.976,202.543C804.597,213.507 799.241,214.837 804.95,217.501C804.165,218.866 804.719,219.148 803.5,220.021C796.127,225.306 803.311,227.014 806.396,225.376C808.012,223.541 808.084,223.316 810.5,224.078C806.58,229.887 809.342,230.623 809.5,231.122C809.225,231.184 798.085,230.371 801.954,234.189C802.188,234.421 804.901,234.589 805.159,234.605L805.667,235.359C803.458,237.901 800.726,236.115 801.333,239.522C802.2,244.394 803.399,243.766 805.618,248.324L807.184,247.277C807.829,246.495 812.611,240.697 819.682,245.191C822.027,246.682 819.524,246.783 819.5,247.022L818.542,248.987C816.487,247.451 816.693,247.445 816.487,247.451C797.474,248.068 815.617,255.095 815.576,255.502C815.163,259.59 808.829,256.298 807.919,256.976C786.259,273.098 814.036,260.885 814.526,260.537C819.112,257.282 815.891,263.741 815.641,265.542C814.876,268.204 814.823,268.057 812.803,269.943C810.032,268.627 809.696,268.108 807.793,270.381C807.559,270.66 807.991,270.665 811.958,272.233L814.948,273.512L814.763,275.562C814.437,275.487 808.671,274.157 810.905,277.186C812.837,279.804 816.638,283.31 817.174,283.804C818.746,285.254 814.358,287.54 816.73,288.196C816.952,288.257 816.73,288.196 819.599,288.4L819.878,289.47C819.787,289.6 817.463,292.946 820.521,291.352C820.851,291.18 821.096,290.87 821.426,290.698C823.92,293.654 823.238,293.855 823.057,297.691C822.857,301.921 825.933,294.023 826.554,294.014C832.725,293.926 821.02,300.718 826.615,303.199C832.295,305.718 828.641,291.005 832.652,293.271C834.998,294.596 834.704,295.459 839.476,295.277L840.571,294.041C843.382,295.398 847.656,293.985 847.032,303.451C846.749,307.748 837.799,300.538 837.645,306.264L835.466,306.558C836.425,308.608 835.815,308.517 835.311,310.513C835.232,310.826 834.732,312.806 839.291,311.171C839.674,311.189 841.832,311.289 843.41,313.615C843.485,314.095 844.25,318.959 847.5,318.1L848.477,319.501C848.577,319.736 849.513,321.952 849.609,322.483C850.799,329.066 854.765,325.043 855.563,321.52C857.41,315.108 858.407,321.313 858.41,321.54C858.429,323.214 860.789,322.922 864.933,325.489C862.919,328.912 862.09,329.09 864.041,332.478L863.873,333.553C858.379,335.411 858.701,333.213 858.266,332.708C858.462,332.576 861.704,330.406 859.481,330.009L857.528,331.652L856.469,332.297C849.763,334.647 847.96,329.751 844.395,326.621C835.257,318.598 833.801,326.542 832.505,326.348C827.498,325.597 819.886,333.908 819.312,335.494C816.779,342.487 823.435,331.341 829.5,331.515C830.222,339.84 826.84,338.357 824.48,341.483C821.608,345.287 824.331,352.632 824.666,353.536C819.775,359.303 825.58,363.653 831.509,358.049L832.557,358.08C833.055,364.005 829.636,361.618 827.503,363.503C826.474,364.413 826.853,364.532 827.818,365.404C829.962,367.339 827.593,367.386 827.419,367.848C823.383,367.654 823.278,366.932 823.227,366.586C822.595,362.241 819.75,365.267 816.661,362.323L816.141,359.789C815.817,358.789 815.885,359.95 815.007,360.5L814.326,361.929C811.573,359.292 811.236,361.738 807.48,362.448C801.203,363.634 807.641,371.644 805.522,373.523C804.803,374.16 798.653,370.577 800.291,374.543C800.582,375.247 801.158,375.809 801.454,376.511C801.523,376.673 801.544,378.188 801.461,378.482C800.983,380.164 801.703,379.99 801.998,381.831C800.478,383 798.904,384.833 796.982,380.446C796.829,379.801 796.572,378.72 792.519,373.476C791.619,372.312 787.357,374.924 786.496,374.911C778.893,374.8 791.252,364.656 787.421,363.93C783.848,363.253 783.432,363.135 783.084,359.502C785.487,356.779 785.194,356.64 785.446,356.463C789.546,353.594 785.732,352.447 786.349,347.471C786.492,346.318 787.29,339.883 776.399,336.883C771.145,335.436 772.088,332.713 766.432,333.11C762.18,333.409 755.189,325.187 757.86,331.313C759.665,335.452 764.223,334.109 762.151,341.563C762.551,342.911 762.698,343.194 763.96,342.5C765.468,336.903 765.565,344.585 770.521,347.466C774.972,350.054 755.969,355.397 755.576,355.263C753.017,354.393 759.138,341.838 751.866,347.697L750.053,346.239C748.939,351.192 749.256,353.534 744.458,351.678C744.256,351.6 740.809,350.604 740.491,350.512L740.446,353.41C739.745,353.559 739.842,352.655 731.504,352.924C729.915,352.975 717.064,349.163 717.443,352.5C717.454,352.593 720.608,354.072 719.556,357.521C719.307,358.336 718.355,357.582 712.436,365.458C712.2,365.772 711.867,365.13 708.717,368.675C708.033,369.446 709.591,381.675 706.689,384.778C703.145,396.916 702.382,397.852 703.934,400.599C702.786,405.134 702.8,404.916 701.929,409.499C702.219,421.948 692.599,419.146 692.11,424.409C690.418,442.628 677.478,436.508 675.926,448.487C668.25,453.368 660.816,450.726 665.564,457.45C665.623,457.534 672.154,459.771 667.245,462.019C659.425,465.599 670.126,464.723 670.46,464.695C676.86,464.171 664.354,469.69 664.774,474.498C664.981,476.864 663.97,476.287 661.56,476.289C652.832,470.303 653.44,476.742 653.864,477.194C661.605,485.451 660.899,485.749 666.666,495.399C684.719,525.607 678.187,531.686 701.663,546.278C703.527,547.437 714.947,564.609 715.739,565.348C715.997,565.589 719.477,572.367 725.685,576.225C736.255,582.792 735.108,584.376 746.463,589.58C747.641,590.12 757.395,594.59 758.456,600.476L755.504,599.696C748.987,595.003 749.079,594.953 748.466,594.627C744.566,592.557 748.75,598.456 754.061,600.58L756.3,602.67L759.451,605.56C772.868,622.699 773.53,623.734 774.608,625.417C774.913,625.895 786.278,638.216 788.045,641.494C787.111,644.996 785.984,643.709 783.506,644.036C779.882,636.742 767.438,624.473 766.751,621.397C766.114,618.544 734.973,588.493 732.45,586.563C712.624,571.398 714.335,569.73 702.366,554.621C689.839,538.807 684.309,543.097 676.452,524.517C674.788,520.595 658.678,482.622 647.389,479.891C640.128,478.134 640.311,478.053 634.164,473.973C632.466,472.846 616.542,475.38 616.154,472.594C615.486,467.813 612.787,471.396 604.491,472.387L601.588,471.367C600.6,470.88 592.499,466.884 588.539,466.993C582.133,467.169 594.714,475.871 587.5,479.487C585.432,477.834 585.472,477.997 584.089,475.781C583.428,474.723 581.315,476.662 585.359,481.449C582.999,484.852 576.667,481.501 577.674,474.509C579.499,461.842 572.333,468.373 571.961,468.894C571.526,469.502 566.849,476.045 566.469,476.456C566.445,476.482 558.666,474.479 562.315,480.672C565.731,483.52 566.638,482.014 569.535,485.469C570.671,486.824 581.675,497.403 575.532,498.828C571.616,499.736 568.015,484.874 566.672,494.541C566.636,494.799 566.769,494.762 567.99,497.522C557.824,502.072 565.709,491.172 563.509,490.484C561.3,489.793 554.868,493.663 558.428,487.47C560.218,484.357 552.52,482.845 551.896,485.736C551.799,486.183 542.975,511.382 546.903,488.516C547.781,483.407 540.044,481.474 545.327,480.442L545.622,479.457C543.424,474.105 541.956,476.84 540.473,477.455C536.759,478.996 535.507,475.854 535.336,475.632L534.497,475.509C521.278,473.847 542.939,494.4 535.504,493.82C534.602,493.75 532.882,489.536 529.754,491.886C523.835,496.334 524.283,496.664 523.711,496.926C521.222,498.07 522.76,498.837 524.969,500.493L525.315,501.574C522.239,503.262 525.293,505.735 522.138,507.067C519.744,508.077 520.235,503.736 519.596,503.388C514.966,500.865 517.671,499.66 518.923,494.659C522.107,493.061 522.901,492.8 521.408,489.747L519.343,487.48C519.603,483.159 516.385,481.556 520.394,480.3C526.245,478.467 511.962,461.029 515.803,473.455C516.536,475.828 511.912,475.87 513.454,477.534C516.601,480.933 515.348,481.482 517.267,485.708C517.509,486.241 515.823,488.414 515.66,488.624C514.133,490.592 519.653,498.249 512.357,494.915C510.325,493.986 503.76,498.076 510.298,501.791C512.383,502.977 511.45,503.43 511.552,505.885L510.566,505.914C508.251,504.065 507.727,504.853 506.692,507.599C506.169,508.986 501.854,508.24 504.21,505.261C504.649,504.706 505.999,502.999 504.752,496.426C504.234,493.694 497.642,496.298 497.641,499.493C497.639,501.634 498.906,502.181 496.131,504.136C495.825,504.352 492.245,508.118 499.496,507.407C503.078,507.056 497.37,512.114 501.578,513.373C502.752,513.724 503.643,521.914 504.324,517.376C505.856,507.181 510.749,515.288 513.521,514.845C521.986,513.492 520.414,511.102 521.709,509.653C522.829,508.399 526.998,511.375 527.391,511.655C527.594,511.8 529.586,513.222 525.545,514.169C524.472,513.926 523.636,513.737 512.566,518.72C512.326,518.587 506.33,515.399 510.564,521.511C509.099,525.062 504.443,523.227 506.53,526.494C507.323,527.736 510.314,529.623 505.727,529.929C505.41,529.95 503.718,531.363 508.287,532.958C510.243,533.641 508.871,534.16 507.55,535.839C499.806,534.596 504.805,541.213 505.059,541.482L504.477,543.476L503.168,542.5C501.226,540.451 501.811,540.115 499.341,538.698C497.896,535.019 502.265,534.656 499.833,531.5L498.052,530.504C501.286,526.737 502.998,524.822 498.142,523.505C498.219,520.854 498.901,519.054 496.408,520.247C494.448,521.184 494.405,521.606 492.935,520.277L492.384,519.481C492.125,510.855 481.467,524.711 484.95,527.139C493.335,532.985 488.098,534.963 487.512,534.707C486.787,534.391 487.121,532.928 486.396,532.612C483.735,528.796 483.106,529.386 482.921,529.698C482.756,529.976 482.594,530.248 484.371,533.482C484.765,538.708 483.672,546.391 483.514,547.504C483.504,548.832 483.506,548.803 484.774,549.319L486.659,551.944L484.993,552.885C480.361,550.902 482.369,555.279 478.286,558.457C478.304,558.952 478.466,563.547 479.11,564.593C479.548,565.305 481.407,565.458 481.765,568.418L481.703,571.599C480.076,573.864 480.194,574.308 477.504,574.141C475.671,574.027 469.844,586.316 471.307,578.499C471.668,576.568 473.225,575.232 471.322,575.889C467.459,577.224 469.501,574.614 470.114,573.432C471.619,570.534 459.054,564.642 467.329,560.142C467.676,559.953 475.619,555.332 465.498,555.552C462.774,555.611 464.309,557.078 463.313,559.484C463.205,559.743 462.319,561.882 460.16,557.932C460.064,557.781 455.224,551.385 457.974,558.389C455.155,559.891 455.726,560.442 456.305,563.561C457.311,565.99 457.066,565.913 456.786,568.455L456.877,571.628C456.479,572.191 457.121,573.129 456.723,573.692C455.454,575.484 452.097,564.617 452.268,571.459C452.35,574.728 451.875,574.454 451.476,577.5C448.238,571.695 445.253,570.74 444.5,570.498C440.896,569.344 449.651,566.905 446.276,565.716C444.641,565.14 443.993,565.226 444.809,563.699C447.386,562.781 450.262,561.972 447.389,561.643C446.148,561.501 446.532,561.137 445.406,560.472C453.177,551.719 442.492,558.78 442.279,558.959L441.479,558.851C442.135,554.251 443.828,553.783 440.711,550.251C435.601,544.462 442.155,556.647 435.485,560.236C435.2,558.5 434.714,557.507 434.606,557.285L433.456,555.467C436.432,550.776 432.937,551.61 432.678,551.765C432.213,552.043 428.541,554.237 429.233,557.59C429.259,557.718 429.233,557.59 430.353,558.778L433.174,561.296C429.163,563.061 425.165,564.929 425.518,561.495C425.744,559.302 419.779,561.108 421.884,557.708C424.317,553.779 422.17,551.821 426.676,550.684L426.754,549.468C426.586,548.883 420.107,532.392 419.488,538.496C419.439,538.983 417.68,556.331 414.199,541.563C413.693,539.417 415.224,539.29 414.046,537.564C420.808,526.354 410.976,530.27 409.818,530.5C409.587,529.912 408.368,530.212 408.136,529.623C407.326,527.568 408.023,525.675 408.141,525.355C409.328,522.128 411.756,529.297 413.177,526.202C414.729,522.821 415.069,527.519 418.575,528.287C423.864,529.446 422.064,525.716 422.193,525.34C423.623,521.188 423.03,527.147 429.326,533.644C431.994,536.396 429.639,545.045 432.266,544.02C434.813,543.025 434.831,544.238 437.528,543.595C443.234,542.235 432.063,540.457 434.533,535.023C436.487,536.556 436.479,537.967 438.318,536.27C439.521,535.161 438.817,534.55 440.584,534.185L441.357,535.653C441.422,537.674 441.292,537.576 441.422,537.674C445.051,540.407 440.575,525.683 446.713,529.304C447.18,530.453 447.218,530.312 448.388,530.312C452.469,527.142 450.439,531.457 450.396,532.508C450.325,534.25 451.944,536.533 452.16,536.838C453.569,538.823 455.952,531.535 457.099,535.808C457.685,537.992 456.61,539.054 460.378,540.162C461.045,540.363 468.092,545.207 464.476,540.526C463.241,538.927 463.161,539.355 461.442,538.525C460.265,536.465 459.11,536.589 460.41,534.484C462.529,531.051 458.412,533.104 455.535,530.512L455.582,529.552L456.07,527.448C458.75,527.661 458.786,527.807 459.755,530.148C460.459,531.849 461.641,528.852 461.713,528.669C462.854,525.776 470.898,539.272 471.735,535.713C473.82,526.84 474.718,536.271 474.684,536.513C473.208,546.958 480.425,536.187 479.211,532.58C477.133,526.409 481.822,525.022 477.102,520.471C477.425,519.025 477.334,519.189 478.12,518.09C482.188,520.203 480.875,516.162 484.771,513.834C495.255,507.568 478.183,504.693 481.423,502.414C483.453,500.987 483.973,501.066 483.51,498.499C483.259,497.108 483.663,497.352 485.5,494.633C492.879,501.768 495.761,494.105 500.646,491.851C504.545,490.053 511.2,488.511 502.308,481.763C499.41,479.563 507.277,478.858 504.37,476.637C497.65,471.504 505.196,465.761 497.383,462.981C495.618,462.354 485.542,475.052 485.515,476.918C483.466,476.466 483.486,476.353 482.963,474.48C483.816,473.539 483.518,473.547 484.5,472.786C492.133,466.867 482.633,463.644 482.419,462.509C481.897,459.726 481.231,460.127 480.465,457.517C479.497,454.218 477.594,455.652 476.316,452.594C474.472,448.18 473.367,449.331 468.514,449.116C466.59,447.107 466.067,444.96 464.841,447.617C464.343,448.697 466.143,450.429 466.336,450.615C467.223,451.597 470.801,455.56 473.148,465.685C473.366,466.628 471.911,474.589 468.525,467.488C467.546,465.433 470.892,462.893 464.911,461.398L464.908,460.269L465.064,457.75C464.595,456.182 464.285,457.61 463.07,458.5L462.455,459.677C459.415,458.182 458.517,457.111 457.09,460.258C455.518,463.723 454.024,462.505 452.492,465.945C449.861,461.493 449.171,462.247 445.251,458.77C447.283,454.12 444.628,453.628 443.895,454.858C443.741,455.116 443.094,456.203 442.483,458.334C436.72,455.944 433.538,442.653 430.324,452.442C429.404,455.244 433.083,461.446 433.5,462.149L434.999,463.457C435.229,464.594 437.35,475.049 429.583,476.906C428.881,477.074 429.074,475.3 420.557,476.929C414.449,478.098 417.809,472.754 412.775,469.231C411.785,468.538 414.012,467.385 406.337,455.579C405.836,454.81 409.046,454.059 403.641,444.43C400.592,438.997 409.112,436.289 403.414,433.658C400.364,432.25 403.307,423.331 402.071,416.556C401.645,414.221 405.469,407.572 401.442,409.339C382.582,417.618 393.845,426.987 390.501,430.501C390.389,430.618 390.501,430.501 388.532,430.943C386.138,428.315 384.683,428.025 383.752,431.585C383.642,432.001 383.418,431.76 381.424,436.44C380.822,437.854 380.483,437.088 379.331,435.951L377.648,432.48C376.665,424.661 383.387,418.711 377.558,421.735C375.631,422.735 374.707,432.829 374.562,433.398L372.264,432.901C371.872,433.108 371.892,432.558 371.409,432.814C371.259,432.894 371.409,432.814 369.786,434.191L368.144,432.594C370.819,430.347 373.664,430.525 371.12,427.939C372.013,426.311 372.258,426.637 372.821,424.839C374.16,420.565 366.461,423.425 368.066,419.141C377.388,420.125 378.415,417.084 376.569,416.306C376.268,416.179 376.267,416.325 372.49,416.573L372.273,415.685C373.844,414.009 376.16,413.054 373.829,413.231L371.518,414.459C370.447,413.833 370.511,415.225 369.534,414.654C369.383,414.566 369.534,414.654 369.507,412.471C372.927,410.727 375.013,409.568 371.511,407.869L369.169,408.844L368.089,407.95C368.741,406.226 368.913,406.352 368.611,404.574C368.721,404.368 371.033,399.214 366.132,403.034L364.739,404.13C364.683,404.1 364.731,404.135 362.122,401.735C363.946,399.893 366.192,398.892 363.489,398.541C360.55,398.161 360.892,399.076 359.544,401.707C358.855,401.502 356.701,400.86 355.974,393.464C353.398,367.246 352.611,398.081 352.625,398.569L352.881,399.616C351.079,402.428 348.401,401.475 349.705,404.466C350.211,405.627 347.272,408.556 345.414,407.71C337.179,403.961 338.298,408.901 338.692,409.287C339.224,409.809 340.025,409.968 340.626,410.409C342.514,411.795 340.597,412.318 340.594,412.522C340.429,412.858 336.468,419.902 344.515,415.678C344.688,415.613 356.723,408.989 348.674,419.776C347.185,421.772 347.589,421.863 347.692,424.436C345.236,425.939 345.322,425.811 342.617,426.312L340.587,426.124C333.093,428.009 337.625,431.986 337.802,432.317C335.447,432.596 335.701,433.408 333.504,432.827C331.867,432.395 331.506,434.572 332.739,435.022C336.335,436.336 337.326,436.965 338.748,433.273C339.725,434.856 339.736,434.597 340.795,436.256C340.721,436.486 339.687,445.414 343.505,437.601C348.817,437.61 351.973,436.267 350.452,441.509C344.963,447.263 348.932,447.87 349.448,447.88C350.208,447.895 352.674,443.697 352.906,443.301C353.832,447.172 353.977,447.145 353.906,447.482C352.353,454.926 361.438,445.13 361.519,445.066L364.479,445.522C361.253,449.294 361.14,448.98 355.74,453.65C356.462,457.351 355.959,457.618 358.861,459.967L356.798,461.555C356.526,461.567 339.493,463.971 354.433,464.001C354.699,464.002 355.322,464.003 357.44,462.576C359.988,462.352 359.807,462.822 360.988,465.109C359.483,467.825 359.407,469.172 362.907,469.284L363.437,469.522C364.107,470.282 378.286,473.478 372.682,474.987C372.276,475.096 372.365,475.023 367.528,473.358C364.953,472.471 367.425,476.34 369.459,479.5C369.435,479.511 368.607,482.259 366.625,479.318C365.127,477.097 365.247,475.462 363.972,476.988C362.606,478.622 363.744,478.575 364.846,480.378C363.664,480.068 362.791,482.684 360.745,479.302C360.064,478.175 360.675,478.309 361.112,477.242C364.471,469.048 357.996,474.647 357.747,474.863C355.656,474.25 354.439,474.416 355.527,476.494L358.034,478.956C356.955,479.681 357.141,479.901 355.793,479.92C346.813,480.051 357.921,482.526 358.202,482.589C360.42,485.993 359.013,486.143 358.915,486.5C355.619,484.342 353.971,483.738 353.509,483.569C346.67,479.521 343.045,469.587 344.753,477.521C346.079,483.686 348.412,481.982 352.862,486.615C352.517,487.882 352.602,487.755 351.662,488.76C349.216,487.181 348.856,488.644 349.048,491.53C349.504,492.847 349.367,492.712 350.136,493.853C355.379,497.194 354.306,492.041 354.603,491.854C354.614,491.848 354.606,491.849 357.797,493.207C360.841,498.844 352.879,501.262 358.484,504.595C359.828,505.244 360.335,506.151 360.68,504.558C359.258,491.59 363.825,506.027 364.682,507.281C365.29,513.643 367.934,509.732 368.766,509.141C373.041,510.178 374.795,505.344 377.392,507.682C381.078,511 383.69,510.553 381.505,514.928C374.76,508.703 373.687,510.806 373.447,511.465C373.152,512.274 373.137,512.314 366.284,519.5C364.108,513.021 362.113,516.387 361.902,516.743C359.79,520.306 360.682,521.176 356.749,522.565C356.611,525.615 357.644,530.972 353.893,526.5L353.653,525.487C353.099,520.844 351.529,521.271 351.676,519.513C352.152,513.837 349.808,514.741 347.183,509.691L349.103,507.361C349.588,506.288 347.465,504.143 345.268,508.926C344.093,506.725 344.199,506.894 344.093,506.725C341.557,502.705 350.922,500.923 346.291,499.938C341.722,498.966 341.105,494.533 338.564,498.52C344.35,501.65 336.747,499.882 335.838,500.884C332.828,504.203 332.404,501.395 328.509,499.461C326.737,489.972 325.235,490.049 324.419,490.092C322.877,490.172 325.617,499.303 326.29,500.469L326.918,504.362L325.269,504.5C324.163,503.999 324.01,503.163 323.328,504.392C323.146,504.719 322.163,506.492 327.507,506.5C327.54,506.909 327.755,509.579 326.72,511.57C320.784,512.334 325.001,514.611 325.247,514.743C328.249,516.272 328.297,516.109 331.422,515.015C332.811,514.53 335,516.474 335.25,516.696C338.631,519.698 326.997,521.826 332.495,523.51C332.546,523.526 348.504,534.551 348.628,535.508C349.217,540.044 342.896,532.71 341.321,537.427C340.673,539.367 339.877,538.702 339.437,540.482C338.633,543.734 335.055,539.858 335.478,538.496C335.567,538.208 337.345,532.482 332.775,535.859C332.42,536.121 319.946,545.336 327.285,535.37C334.458,525.629 323.007,525.381 323.975,522.569C325.524,518.068 321.585,517.323 321.498,518.499C320.894,526.691 317.251,519.177 315.487,519.42C314.677,519.531 313.996,522.651 311.312,521.728C306.339,517.146 323.446,514.195 316.567,514.331C314.218,514.377 314.726,513.657 313.351,511.791C312.682,510.884 306.007,515.936 308.399,509.346C314.951,505.905 314.867,510.535 317.443,510.173C321.148,509.653 314.243,506.414 313.254,505.593C313.423,505.333 316.731,500.22 313.571,501.722C313.001,501.993 311.677,503.87 311.534,504.073C309.642,504.841 309.769,504.797 308.499,506.385L307.436,505.674C304.089,503.773 305.816,507.361 306.259,509.624C304.216,514.021 297.815,512.329 301.365,515.58C304.462,518.416 298.471,518.113 298.351,518.399C298.181,518.803 296.228,523.44 303.467,520.354C306.667,518.99 304.313,523.725 305.507,524.49C308.256,526.252 308.6,527.325 305.764,528.999C298.379,524.933 304.389,531.4 304.559,531.549C298.502,539.024 308.65,534.365 309.266,534.745C313.942,537.629 312.814,540.058 312.589,540.543C312.753,542.542 316.486,548.393 313.277,549.167C313.033,549.226 308.131,548.701 311.227,551.658C311.006,551.878 308.674,554.2 308.595,554.526C307.688,558.286 312.349,553.919 312.587,553.696L313.481,552.442C315.618,552.296 315.631,551.945 317.296,553.499C315.423,554.431 315.482,554.325 314.403,556.317C308.605,561.723 324.23,564.041 321.4,558.362C326.921,552.99 325.605,563.01 325.536,563.535C323.773,562.473 322.978,562.798 322.767,562.884C320.358,563.866 321.252,564.698 319.363,566.375C318.006,567.58 314.849,566.235 316.783,569.211C321.075,570.273 321.291,570.141 324.503,567.068C326.991,569.723 326.363,570.072 326.116,570.209C322.165,572.405 324.572,573.237 324.827,573.325C325.026,573.393 332.652,576.027 325.636,575.825C325.396,575.818 311.27,575.645 323.292,577.7L323.971,578.122C328.138,581.757 327.388,583.806 332.486,583.092C336.532,582.526 334.668,590.998 332.559,588.442C328.289,583.268 319.928,580.679 320.786,585.422C321.181,587.604 318.51,590.288 317.822,589.145C313.902,582.631 315.156,590.472 315.836,591.191C316.858,592.274 319.959,595.161 320.323,595.5L321.961,596.504C320.999,601.037 318.382,598.907 315.672,602.607L314.5,601.916C310.589,602.339 312.809,598.57 312.821,598.399C312.871,598.163 314.209,591.809 310.493,596.485C308.841,598.555 305.992,600.368 312.928,606.506C312.301,607.396 301.131,623.256 300.277,611.518C300.223,610.773 303.01,605.462 299.227,600.716C301.323,598.43 301.219,598.656 301.323,598.43C302.362,596.167 299.519,596.323 297.783,599.939C294.515,605.693 298.4,607.416 293.54,612.03L292.066,610.668C294.046,608.107 293.54,607.975 292.92,604.884C295.689,599.616 289.979,601.073 287.607,603.019L286.417,602.666C286.044,602.349 282.021,600.548 285.894,593.972C288.207,595.038 287.914,595.316 290.624,595.683L293.5,594.498C294.138,594.377 297.363,593.764 292.158,586.492C294.154,586.425 295.423,587.591 296.409,583.09C302.688,590.819 304.141,580.279 302.523,581.066C293.907,585.261 302.807,569.034 298.475,571.377C298.038,571.613 297.937,572.267 297.501,572.503L296.048,569.933C295.985,569.713 294.244,563.606 293.601,568.454C293.776,569.023 295.344,574.141 295.943,575.522C295.924,575.752 295.485,581.279 293.333,576.758C291.633,572.636 289.526,571.568 289.847,573.642C289.94,574.245 291.825,577.924 288.412,575.716C288.278,575.63 286.763,574.65 286.595,576.521C286.446,578.19 287.245,577.727 290.257,579.411C288.916,582.046 285.672,578.682 286.066,581.476C286.651,585.621 286.112,585.755 282.482,587.519L282.093,586.668C283.309,584.841 284.58,584.621 282.727,583.167C278.658,579.972 282.562,576.795 282.591,576.512C282.649,575.953 283.289,569.722 283.261,569.522C284.298,567.838 284.166,567.872 284.56,567.673C286.461,566.291 284.223,564.452 286.552,563.978C286.895,563.908 292.475,562.772 288.266,559.952C288.016,559.785 287.768,559.619 285.498,562.504L284.331,561.629C283.054,559.032 283.167,559.229 282.062,556.754C282.259,556.398 286.175,549.32 282.61,551.707C280.723,552.969 281.927,556.371 282.062,556.754C278.308,556.189 280.272,560.429 276.496,560.662C272.824,560.888 275.493,563.361 273.373,566.387C272.384,567.8 272.07,566.421 270.629,566.927C267.932,567.873 271.829,570.358 271.858,570.49C272.08,571.494 271.835,572.24 272.657,571.427C274.68,572.887 276.059,573.444 273.829,574.713C270.188,576.786 274.387,579.415 273.186,580.139C272.168,580.753 270.815,580.43 269.677,580.775C264.093,582.468 277.971,582.773 274.464,587.478C266.009,583.428 273.379,590.309 274.5,592.066L275.869,593.253C276.688,593.985 276.902,593.367 277.763,594.037C280.54,596.2 277.976,596.425 275.5,598.952C267.802,593.837 273.102,601.451 273.302,601.645C273.648,601.982 274.512,602.821 274.615,607.539C275.094,610.664 278.2,615.279 273.46,613.767C272.889,613.585 268.617,613.659 268.196,613.667L270.103,611.426C272.155,608.105 269.423,607.657 270.318,606.428C274.013,601.355 268.245,604.992 263.742,604.5C263.618,602.251 263.786,602.316 263.618,602.251C262.774,601.925 257.632,603.668 261.725,599.91C262.192,599.591 265.433,597.375 266.216,594.45C267.62,589.207 263.608,592.677 261.647,593.918C255.568,597.763 260.455,591.207 260.862,590.924C265.568,587.661 259.37,587.833 259.33,586.55C259.285,585.089 261.442,584.395 258.54,582.5C262.99,580.447 260.478,578.853 261.207,577.202C265.905,579.07 268.814,576.444 265.484,574.721L263.553,573.456L262.777,573.136L260.517,573.407C262.44,571.663 262.689,570.763 260.168,569.722L259.727,569.407L259.324,568.558C260.841,565.662 260.883,563.701 260.892,563.259C258.97,554.321 258.48,564.267 258.483,564.484L257.482,565.697C255.601,565.806 254.891,565.603 255.239,567.485C255.285,567.736 256.172,580.025 252.733,569.453L252.362,567.978C247.037,569.684 252.855,573.106 251.568,577.512C251.232,578.66 256.23,581.808 251.478,581.717C246.119,581.614 250.669,584.309 252.016,589.5C251.994,589.896 249.834,615.375 249.096,593.499C248.958,589.416 249.364,587.238 245.536,588.808C242.368,590.108 247.276,584.292 244.587,584.326C238.65,584.4 244.003,582.168 244.176,582.116C245.954,581.584 253.416,573.796 244.546,573.359C240.24,573.146 245.436,570.345 243.61,566.434C246.049,563.383 245.159,562.924 245.475,562.857C245.715,562.807 248.371,564.671 248.614,564.842C250.468,563.488 250.458,563.672 250.468,563.488C250.532,562.3 244.045,561.422 247.316,551.42C248.525,548.425 248.347,548.484 248.455,548.236C248.782,548.24 255.072,548.315 252.258,546.732C249.871,545.391 247.919,545.846 249.445,543.445C249.615,543.3 249.506,543.289 251.393,541.444C258.6,540.831 252.397,538.384 252.15,538.312C253.544,535.061 252.165,534.771 253.815,531.585C255.635,531.379 258.091,532.18 258.051,531.425C257.87,528.051 256.842,528.355 253.43,528.741C249.2,526.904 249.088,528.085 249.135,528.426C249.956,534.315 246.806,532.938 246.894,533.363C247.354,535.571 251.097,534.325 249.517,537.52C249.098,538.367 249.093,538.119 248.647,538.749C247.486,541.494 246.762,542.318 246.532,542.581C243.85,542.981 244.287,542.02 243.107,541.226C242.117,544.363 243.08,544.327 245.947,546.073C244.876,548.83 244.794,548.712 245.346,551.584C242.55,557.852 246.902,559.754 241.517,563.97C240.795,565.925 240.843,565.798 239.5,567.356C238.686,562.718 238.449,562.835 238.46,562.433C244.362,559.447 239.336,556.704 239.735,553.547C239.783,553.164 240.073,550.871 235.365,551.5C232.838,548.529 235.206,548.476 235.608,547.57C236.718,545.069 231.539,541.416 238.506,540.519C242.675,539.982 234.129,536.493 231.527,543.51C230.303,546.81 230.866,550.379 229.041,547.436C228.502,546.567 229.748,546.649 229.256,545.686C227.972,543.177 227.318,544.798 225.444,546.974L220.461,546.539C223.304,543.451 223.271,543.688 226.808,541.825C227.461,541.742 228.128,541.977 228.781,541.893C230.966,541.613 228.875,540.964 227.194,539.516C229.472,537.345 230.519,538.987 232.324,536.409C232.64,536.259 234.413,535.413 236.543,535.285C238.317,534.6 237.784,534.239 238.171,532.516C241.125,531.875 241.047,532.099 241.29,532.031C242.16,528.082 240.082,528.559 239.392,524.502L239.54,523.463C239.781,523.68 242.189,525.84 243.244,525.105C246.138,523.089 242.723,523.486 239.303,522.844C236.8,520.453 236.371,520.017 238.498,517.485C240.378,519.909 240.155,520.517 241.319,520.097C243.583,519.281 241.491,518.758 240.787,516.557L241.187,514.848C238.077,510.766 237.469,516.883 232.474,516.156L231.523,515.354L231.26,514.984C231.273,514.676 231.561,507.528 229.55,511.526C229.422,511.779 229.62,511.779 230.495,514.947L229.963,515.692C229.791,517.353 229.313,516.917 227.738,517.78C225.921,518.778 231.472,524.337 233.42,519.62C234.658,522.289 234.572,522.113 235.729,524.665L235.37,525.416C234.363,525.108 234.527,525.177 233.572,524.867C231.02,524.037 232.741,525.944 232.929,528.499C232.974,528.771 233.909,534.431 231.441,531.608C227.839,527.488 229.317,532.463 229.101,533.25C228.613,535.023 228.262,534.635 227.583,535.756L226.454,535.537C221.814,524.309 223.43,539.53 221.232,540.067C219.083,540.592 220.618,530.553 218.53,533.891C218.342,534.192 218.174,539.698 214.709,533.988C214.53,532.472 214.918,532.282 213.482,531.456L214.592,530.914C220.25,530.424 222.438,531.595 222.459,525.821C218.862,526.827 219.011,527.401 218.725,527.258C215.631,525.714 216.049,523.278 212.91,524.998L210.68,523.196C212.68,519.708 212.73,519.826 212.695,519.414C212.665,519.057 211.057,517.495 209.623,522.661C208.739,524.691 208.841,524.592 209.565,526.461L207.643,527.715C206.786,531.027 208.499,530.832 208.437,534.255C206.876,534.614 207.021,534.662 205.864,535.586C206.448,538.504 206.183,540.006 206.116,540.385C204.422,539.879 204.526,540.318 202.828,540.753C201.57,544.531 206.396,544.897 203.685,547.753C203.458,547.716 199.177,547.006 202.747,550.462L202.911,551.12L201.5,550.895C201.375,550.94 197.826,552.211 200.594,552.291L202.911,551.12C205.567,552.009 205.318,552.018 207.77,553.105C207.336,559.569 211.426,556.908 213.5,557.531L214.475,556.237C218.205,555.926 217.955,556.97 221.616,557.036C226.34,557.122 220.625,558.857 218.937,563.289C221.081,565.734 221.675,565.335 222.27,568.621C222.383,569.242 223.576,569.885 224.351,569.234C224.441,569.159 227.353,563.96 227.611,563.5C229.485,567.578 228.92,567.697 226.545,571.524C226.046,572.327 235.694,586.357 235.461,593.499C235.4,595.345 238.383,596.459 235.39,597.166C231.006,598.201 232.083,602.786 233.489,602.405C238.732,600.986 238.837,609.628 235.443,606.609C235.025,606.237 229.023,605.351 229.049,602.59C229.134,593.946 225.943,605.526 225.846,605.88C223.268,605.434 223.316,605.137 222.926,602.439C222.448,599.132 222.72,598.93 222.957,598.754C225.371,596.956 222.88,597.016 220.123,595.911C219.765,595.767 218.165,592.539 224.445,593.751L226.686,595.934C228.964,596.963 225.343,593.347 225.164,593.169C226.699,590.582 227.174,592.646 229.483,594.555C231.668,596.362 231.408,590.201 227.421,587.541C229.487,585.776 230.971,585.863 229.516,584.486L226.669,585.104C224.86,585.363 225.129,585.826 223.494,586.382C222.349,586.772 221.136,583.06 225.574,582.678C228.601,582.417 226.943,574.747 220.753,579.987C219.753,577.986 219.572,577.739 221.444,576.435C223.457,575.032 221.907,574.762 220.245,572.775C218.441,570.62 218.285,573.158 215.312,573.5C216.111,568.295 216.909,567.901 216.455,567.927C213.248,568.108 207.56,578.339 206.386,572.552C206.236,571.811 209.987,573.104 209.237,563.536C209.129,562.155 208.885,562.266 207.504,562.02C205.699,560.791 205.902,560.62 203.591,560.618C202.011,561.264 202.06,561.035 201.079,562.467C201,562.187 194.309,547.681 197.575,561.502C198.377,564.895 200.994,567.948 198.957,569.846C195.942,572.655 202.496,570.527 203.32,574.548C204.481,580.217 215.293,582.705 214.28,591.47C214.038,593.56 214.257,593.484 214.876,599.5C212.09,601.916 209.662,601.225 211.329,604.565C215.633,613.192 201.131,597.861 201.333,601.36C201.537,604.904 195.725,602.123 196.317,604.504C197.818,610.537 203.105,611.575 197.764,614.907C196.983,615.395 196.59,619.936 193.388,616.606C190.378,613.476 198.619,609.489 191.356,606.715C190.851,606.523 190.786,593.505 197.325,590.113L197.279,587.806L196.352,584.915C194.324,584.023 195.628,585.595 195.658,587.686C189.21,592.378 190.74,593.3 190.74,593.537C190.73,597.117 189.784,596.592 187.5,599.387C185.514,596.06 190.122,591.757 186.841,593.862C183.657,595.904 183.573,593.74 179.963,593.453L180.996,589.768C183.947,593.256 187.991,592.674 185.703,588.354C185.242,588.084 183.716,587.189 181.089,583.53C183.605,582.498 183.924,582.867 184.851,580.395C187.924,572.145 182.584,580.333 182.499,580.501C180.394,578.893 179.859,578.892 179.503,574.501C186.666,573.775 182.565,569.593 182.525,569.465L180.504,567.545L179.929,568.842L180.915,570.607L179.249,571.883C179.004,571.604 167.813,558.845 174.618,571.5L173.627,574.417C175.203,576.372 175.364,578.121 172.525,577.393C167.863,576.197 172.39,581.292 172.342,581.473C171.31,585.37 180.799,586.392 175.546,587.612C169.367,589.046 169.428,593.204 164.288,589.696C164.137,587.034 164.741,586.938 163.011,584.952C164.291,582.681 164.413,582.85 164.291,582.681C158.794,575.06 162.929,584.76 163.011,584.952C160.323,583.819 160.646,583.518 158.5,581.523C158.05,581.105 160.066,584.591 152.379,586.151C152.243,586.179 152.379,586.151 151.055,587.278C150.666,587.883 148.657,588.472 151.508,591.521C149.017,592.458 149.345,592.843 149.63,595.426L151.686,596.255C151.693,596.339 153.155,605.134 148.201,598.712C144.327,593.691 143.426,604.667 141.445,601.585C139.334,598.3 136.651,600.269 136.334,596.435C136.604,592.224 135.911,591.821 139.261,589.248C143.217,590.483 144.689,592.419 145.718,588.414L145.312,586.476C144.201,583.175 143.676,583.239 140.292,583.721C139.386,581.97 140.498,581.8 139.465,580.211C139.396,578.503 139.736,576.696 139.793,576.395L139.784,575.383C139.264,573.507 139.449,573.605 138.221,571.881L140.368,568.374C142.558,566.212 144.284,568.296 145.015,565.435C146.039,561.427 147.266,562.358 150.063,559.332L151.643,557.914C153.803,560.31 153.956,560.061 154.894,563.345C155.935,566.991 158.785,562.78 156.506,559.498C153.866,555.698 157.604,555.607 160.465,557.565C162.103,558.685 162.01,557.678 163.462,556.406C168.871,562.454 164.833,554.578 164.718,554.429C160.258,546.535 167.286,551.041 167.575,551.226C167.756,551.342 170.806,555.648 171.148,551.397L172.315,551.219C172.613,551.331 178.852,553.675 176.261,550.704C176.097,550.515 176.076,550.491 173.346,549.584C171.357,548.623 171.489,548.649 169.362,548.679C166.757,547.72 166.67,548.056 165.124,545.709C163.95,545.055 163.896,545.674 162.707,545.012C160.501,543.784 162.557,543.401 162.5,542.79L165.504,541.027C169.146,541.559 170.124,543.983 171.649,540.582C173.695,536.022 187.41,535.081 178.487,532.925C176.052,532.602 175.967,532.66 174.982,530.459L176.5,529.033C177.026,527.26 177.006,527.461 177,525.504L178.503,522.034C183.037,521.997 183.662,523.201 185.063,520.659C184.941,520.223 186.217,520.209 186.095,519.772C185.634,518.123 184.945,518.703 183.051,515.796L181.5,513.825C186.22,510.246 184.383,518.541 189.367,518.313C193.125,518.142 187.232,516.073 188.568,512.538C190.01,508.724 190.931,513.741 191.386,514.646C192.737,517.324 192.619,517.115 192.737,517.324C193.098,517.962 193.253,517.689 193.625,518.348C192.448,520.518 192.419,520.323 192.448,520.518C194.092,531.414 194.689,518.94 194.664,518.712C195.639,516.79 193.209,515.088 195.461,515.272C195.717,515.293 203.127,515.898 198.35,513.876C196.219,512.973 196.523,512.754 194.488,511.505C194.486,511.03 193.447,511.009 193.445,510.535C193.435,508.099 208.289,514.661 202.022,509.955C194.572,504.361 191.109,506.477 190.283,506.982C186.989,505.995 186.698,505.279 188.211,502.27C190.588,503.527 191.793,505.256 191.961,502.483C192.071,500.667 191.567,500.875 191.602,498.904C194.745,495.649 182.193,482.393 203.484,483.313C205.7,483.409 216.727,475.097 223.569,473.695L225.447,475.468C228.288,476.165 228.264,476.192 228.516,476.221C229.583,476.342 229.111,475.255 230.257,475.385C229.067,472.703 229.316,471.993 232.197,471.498C232.382,469.139 230.397,469.848 230.5,467.534C234.599,467.848 234.375,466.928 238.456,466.121C238.542,466.257 242.895,471.281 240.349,465.44C240.868,459.131 246.408,459.65 245.744,464.511C245.482,466.43 245.825,466.282 245.912,468.202L245.163,469.5C244.883,469.893 242.269,473.559 249.645,473.541C249.361,480.593 252.455,478.952 252.49,478.496C252.638,476.545 251.485,476.535 252.647,474.966L253.232,474.332L254.415,475.121L254.874,477.11C255.112,477.282 258.397,479.395 256.726,473.954L257.512,472.517C258.103,472.618 265.567,478.553 262.51,473.496C260.975,470.956 260.804,471.361 258.509,469.494L256.046,467.441L256.475,464.476C260.549,467.22 262.966,470.049 263.448,470.614L264.46,471.799L266.717,472.282C268.736,473.446 269.191,472.591 268.837,470.417C270.563,468.092 270.328,467.707 268.079,465.669C263.167,462.416 261.045,461.016 265.593,457.342C266.292,460.528 266.597,461.713 269.506,460.202C281.047,472.744 269.979,455.887 270.361,454.481C271.174,451.486 270.595,451.625 271.118,448.367C271.597,445.387 274.505,449.164 276.522,448.667C280.13,447.779 280.925,446.955 282.407,450.314C268.886,451.782 279.421,458.425 279.418,458.507C279.324,460.595 277.523,462.014 279.494,461.361C282.082,460.502 282.025,460.19 281.981,457.508L282.239,456.066C283.605,454.571 283.732,454.766 285.496,455.603C286.398,456.031 285.324,453.109 292.51,452.374C291.859,454.635 291.88,454.498 290.598,456.517C294.561,455.91 294.574,455.2 294.44,451.332C299.335,453.332 299.062,453.802 299.514,453.805C306.942,453.848 295.73,451.105 295.364,443.363C297.837,443.897 299.52,444.054 298.209,441.73C299.155,439.061 299.149,439.2 299.117,436.409C299.057,435.895 298.174,428.368 301.517,430.398C304.952,432.485 303.638,428.283 303.727,427.547L304.516,424.506C304.773,421.801 308.104,413.843 304.712,415.99C299.041,419.581 299.406,412.086 299.209,411.608C297.001,406.267 301.392,407.545 304.069,402.31C307.15,396.283 300.519,396.958 300.716,389.5C300.794,386.546 304.773,389.395 304.59,386.503C304.404,383.554 307.647,384.172 306.522,381.496C304.247,376.079 307.67,375.509 310.084,373.15C313.317,369.991 309.787,370.194 305.737,368.254C303.769,367.312 305.246,366.516 304.233,364.642C301.789,360.12 306.418,355.553 307.454,353.462L308.232,350.513C309.713,331.162 317.414,334.396 319.138,331.281C322.786,324.69 318.084,320.356 325.528,319.597C329.303,319.212 331.388,314.667 328.499,315.518C328.178,315.613 314.323,317.827 326.027,312.142C327.496,311.429 324.911,305.225 322.577,307.586C310.339,319.968 327.853,288.219 327.611,286.483C327.36,284.687 323.94,276.169 330.223,279.938C339.892,285.738 345.487,277.05 337.549,273.017C337.099,272.789 336.703,272.62 336.355,272.502C336.527,272.133 336.552,271.003 336.378,268.875ZM336.355,272.502C336.248,272.732 336.084,272.667 335.875,272.364C336.024,272.398 336.184,272.444 336.355,272.502ZM152.486,578.494C153.315,577.392 153.608,577.051 152.408,576.715C151.138,576.359 152.429,577.185 152.486,578.494ZM470.93,328.252C469.946,329.812 467.763,329.797 469.492,330.531C471.497,331.381 471.654,330.328 470.93,328.252ZM480.24,222.196C480.357,222.285 485.101,225.876 482.065,221.923C481.32,220.953 481.24,221.679 480.24,222.196ZM198.626,586.5C199.736,587.19 200.172,587.836 200.361,586.492C200.38,586.354 200.395,584.121 198.626,586.5ZM267.92,573.511C268.111,571.969 268.962,571.413 267.514,571.302C265.736,571.165 266.901,572.032 267.92,573.511ZM255.318,515.5C253.749,517.315 253.71,517.127 253.749,517.315C253.914,518.099 256.102,518.808 255.318,515.5ZM316.5,570.736C316.422,570.914 314.669,574.894 317.346,573.016C317.505,572.904 317.346,573.016 316.5,570.736ZM242.483,509.515C243.474,508.511 243.87,510.347 244.841,509.362C244.934,509.268 245.032,509.169 244.084,507.892C243.975,507.746 242.667,506.287 242.483,509.515ZM189.5,524.013L190.62,526.665C201.426,532.383 189.693,524.139 189.5,524.013ZM788.421,285.525C788.233,285.989 788.802,285.921 788.576,286.478C788.519,286.619 788.576,286.478 787.488,288.031C784.026,288.234 786.563,289.68 787.377,290.52L787.655,291.558C788.869,287.572 792.248,289.385 793.161,286.459C793.31,285.979 792.991,286.144 788.421,285.525ZM415.333,435.616L414.342,437.419C414.341,443.765 417.276,440.776 417.323,440.44C417.362,440.164 417.217,440.279 417.524,436.969L415.333,435.616ZM433.928,360.365C434.165,360.526 438.333,363.359 437.4,359.492C437.333,359.214 435.801,354.215 433.928,360.365ZM821.354,295.344C821.253,295.127 817.897,287.897 818.367,295.555C818.453,296.954 818.994,296.166 820.447,296.183L821.354,295.344ZM370.709,346.879C372.321,349.286 371.957,349.913 373.545,349.646C373.857,349.593 376.624,346.867 370.709,346.879ZM263.782,548.461C265.619,549.622 266.705,549.702 266.261,547.551C264.575,539.372 263.795,548.25 263.782,548.461ZM203.59,596.478C203.48,596.298 201.366,592.865 200.961,596.563C200.046,604.912 203.56,596.686 203.59,596.478ZM796.463,369.531L797.524,370.644C797.805,370.38 800.03,368.297 798.076,365.852C797.875,365.601 793.705,363.774 796.463,369.531ZM791.5,313.108C793.549,314.563 793.391,314.687 793.549,314.563C793.707,314.438 795.243,312.248 791.5,313.108ZM486.548,172.98C485.914,165.813 482.73,174.22 475.521,174.718C473.519,174.856 473.904,175.426 473.801,177.39C479.481,177.952 479.849,178.002 483.603,173.57C484.795,172.163 484.903,172.925 486.548,172.98ZM369.583,313.634C366.836,315.722 366.385,315.268 365.517,318.494C366.288,319.921 366.045,319.893 366.65,320.074C371.693,321.588 371.421,314.209 371.397,313.565L370.536,313.359L369.583,313.634ZM348.183,292.491C348.039,291.294 347.109,274.96 344.606,287.49C344.076,290.148 345.443,289.888 345.548,292.495C345.845,299.927 348.131,292.695 348.183,292.491ZM447.753,385.884C441.683,392.578 455.67,387.287 452.949,384.121C451.305,382.209 451.115,383.934 447.753,385.884ZM778.215,288.597C778.227,288.357 778.428,288.467 778.693,285.63C774.196,286.347 778.005,288.48 778.215,288.597ZM807.461,359.547C804.977,357.568 804.453,358.001 804.238,358.18C800.209,361.515 807.19,359.62 807.461,359.547ZM783.19,293.139L780.346,293.89C780.481,294.083 785.734,301.398 783.19,293.139ZM334.002,307.209C339.365,307.098 336.753,304.66 336.469,304.626C336.01,304.57 333.625,305.542 333.385,305.64L332.505,305.536L331.69,305.675C330.151,307.171 331.43,309.721 334.002,307.209ZM839.411,296.225C837.006,296.693 836.473,296.083 835.601,298.494C835.48,298.828 836.773,300.743 839.411,296.225ZM788.304,327.481L786.504,328.578C788.964,329.93 789.627,331.104 789.721,329.591L788.304,327.481ZM214.374,560.412C214.264,563.374 213.658,564.299 216.623,564.617L216.581,561.556C218.528,557.564 214.538,560.3 214.374,560.412ZM684.736,434.908C686.693,432.947 686.367,432.951 687.812,430.626C695.808,417.763 683.394,433.157 683.117,433.5L684.736,434.908ZM412.431,429.845L409.261,430.234C409.896,431.419 411.702,434.526 412.431,429.845ZM412.431,429.845L413.671,430.221C413.733,430.048 414.318,424.045 411.502,429.472L412.431,429.845ZM457.23,334.193C457.39,333.703 458.846,329.26 454.568,328.317C448.189,326.912 456.828,333.869 457.23,334.193ZM457.23,334.193C456.303,336.846 456.536,337.001 456.735,337.133C459.47,338.953 457.331,334.409 457.23,334.193ZM792.533,360.616L791.566,361.354L792.986,363.766C793.193,363.617 802.393,354.377 792.533,360.616ZM809.568,351.453C807.458,349.12 805.581,350.474 806.853,353.382C809.505,359.441 809.566,351.719 809.568,351.453ZM357.776,518.381C358.237,516.983 357.66,516.745 356.46,517.437C355.506,519.425 355.453,519.473 356.394,521.47L357.776,518.381ZM476.569,555.377C476.862,554.775 478.06,555.058 478.353,554.456C479.478,552.141 479.607,545.303 479.622,544.5C479.67,541.994 476.849,542.667 475.784,544.654C472.734,550.347 471.509,551.454 476.569,555.377ZM475.66,549.62L476.524,549.133C479.565,553.521 475.852,552.312 475.618,552.207C474.538,551.724 475.216,551.541 475.66,549.62ZM681.131,430.921C680.567,427.457 684.152,422.618 680.793,425.931C680.223,426.493 678.411,428.279 678.116,435.572C678.102,435.908 679.22,437.031 680.266,436.147C682.556,434.211 681.771,433.934 681.131,430.921ZM379.45,303.757L376.802,304.915L376.226,306.489L375.514,307.523C372.12,309.58 375.167,310.588 374.872,314.436C374.55,318.631 383.532,311.632 384.153,311.148C388.037,308.121 385.994,300.858 384.152,305.296C382.279,309.81 381.371,308.763 378.392,309.69L378.331,308.529C380.548,306.512 380.599,304.838 380.611,304.465L379.45,303.757ZM379.45,303.757L380.5,302.39C379.282,300.141 378.658,300.203 378.419,300.226C378.127,300.255 376.863,300.605 379.45,303.757ZM780.491,328.532L779.975,326.427C776.78,328.36 776.708,328.249 776.525,328.514C773.421,333.02 780.223,328.703 780.491,328.532ZM193.179,487.15C194.554,489.983 194.289,490.968 197.541,490.459C196.79,485.04 194.945,485.968 193.179,487.15ZM428.722,239.491C428.834,239.83 430.114,243.722 433.065,238.446C433.346,237.943 430.182,235.099 428.722,239.491ZM332.424,385.635C329.813,387.76 329.857,387.728 329.809,387.757L329.352,388.549C330.329,389.635 334.995,391.582 332.424,385.635ZM535.07,273.838L532.681,275.364C535.951,280.422 534.586,280.854 534.877,281.265C537.957,285.596 534.765,276.649 537.713,276.843C540.928,277.054 537.671,275.734 535.07,273.838ZM442.486,317.419C448.602,313.725 449.395,308.323 453.642,314.254C454.834,315.919 457.491,311.2 453.518,309.476C443.782,305.252 448.904,295.77 441.584,295.798C436.865,295.816 444.565,300.303 440.388,304.341C436.069,308.515 439.93,308.918 440.63,310.437C441.164,311.597 436.301,313.542 442.486,317.419ZM441.781,309.278C440.155,305.015 445.78,302.965 446.02,303.721C447.823,309.417 447.771,309.674 444.337,314.326C441.94,317.574 443.549,312.923 441.781,309.278ZM478.239,278.709C475.11,276.251 475.207,278.255 475.219,278.497C475.239,278.904 475.395,282.142 476.611,283.389C476.888,283.673 483.294,285.496 478.239,278.709ZM205.541,491.426L205.877,494.395C206,494.635 209.554,496.13 207.197,491.288L205.541,491.426ZM473.47,187.914C479.92,186.961 478.613,185.039 478.305,184.692C478.152,184.52 466.727,185.535 473.47,187.914ZM213.136,484.344L211.722,485.072C212.799,489.779 212.51,489.879 212.814,490.164C216.27,493.394 213.288,484.784 213.136,484.344ZM364.606,347.155C370.289,347.099 359.058,340.557 360.693,344.442C361.402,346.125 361.8,345.64 364.606,347.155ZM288.633,456.682C287.751,458.48 287.747,458.32 287.751,458.48C287.985,467.577 290.281,457.703 290.332,457.488L288.633,456.682ZM220.082,478.214L219.434,479.659C220.718,484.467 221.05,484.53 221.47,484.609C221.985,484.705 225.455,483.973 220.082,478.214ZM175.544,544.738L174.464,545.474L174.332,546.958C174.682,547.057 195.158,552.572 178.326,544.783C177.123,544.226 177.264,544.545 175.544,544.738ZM427.495,254.368C428.052,254.106 431.751,252.364 426.274,246.766C423.912,244.352 424.088,249.887 427.495,254.368ZM149.578,566.383C148.716,563.722 148.914,560.878 147.359,563.36L147.204,567.277L149.578,566.383ZM461.998,299.546C463.569,303.545 465.986,297.324 463.502,297.343C463.289,297.344 463.502,297.343 461.998,299.546ZM472.37,326.837C473.782,327.528 474.143,328.209 474.743,326.624C475.459,324.732 474.061,325.571 472.37,326.837ZM435.573,278.604C428.682,283.136 439.376,281.571 439.81,278.554C439.858,278.219 439.841,276.72 435.573,278.604ZM476.643,433.56C473.753,443.368 479.515,433.767 479.61,433.55C479.728,433.277 482.076,427.873 478.58,429.974C478.301,430.142 477.788,430.45 476.643,433.56ZM691.505,415.514C682.658,417.409 680.11,424.662 683.546,422.694C684.306,422.258 684.219,422.241 692.63,416.573L691.505,415.514ZM224.504,523.503C225.847,526.214 225.654,526.444 226.454,526.669C227.859,527.064 230.025,521.931 224.504,523.503ZM263.97,506.919C264.956,508.414 264.737,508.653 266.522,508.781C270.029,509.033 266.756,504.753 263.97,506.919ZM470.515,197.51C471.111,207.453 475.468,194.765 475.634,194.651C476.374,194.142 478.431,199.191 478.889,194.539C479.291,190.456 474.966,194.669 472.212,191.854C469.22,188.796 472.6,193.887 470.515,197.51ZM368.516,311.371C374.229,309.069 366.993,306.876 366.343,308.378C365.366,310.639 366.085,310.829 368.516,311.371ZM186.326,586.466C189.332,586.265 189.137,586.406 189.332,586.265C191.102,584.985 186.813,581.981 186.326,586.466ZM432.512,467.437C430.957,466.916 430.629,466.068 429.924,467.587C429.782,467.893 429.327,469.447 433.992,468.713L432.512,467.437ZM138.438,596.637C143.339,596.694 140.847,594.396 140.608,594.31C138.746,593.642 139.238,594.757 138.438,596.637ZM786.495,280.411C777.617,289.102 781.799,290.938 782.649,290.71C783.106,290.587 781.673,289.649 785.561,285.551C787.518,283.487 786.613,283.337 786.495,280.411ZM248.455,514.482C251.705,513.052 251.838,515.312 255.335,514.357C256.849,513.471 256.624,513.174 258.528,513.185C260.138,516.547 261.026,515.718 264.367,514.16C264.613,511.439 264.161,509.45 260.464,510.219C251.313,512.121 251.306,510.92 247.476,511.644C244.382,512.439 244.045,511.836 242.571,514.557C243.163,518.079 244.303,518.807 244.634,519.019C246.925,520.484 245.495,518.245 244.806,515.481C244.214,513.111 246.828,516.162 248.455,514.482ZM261.545,512.235L260.457,512.446C261.039,511.948 260.924,511.789 261.545,512.235ZM509.376,394.698L508.706,397.366C509.552,398.689 509.766,397.58 511.821,396.16C516.482,400.769 516.612,396.895 516.567,396.517C516.418,395.248 517.113,395.829 518.017,395.013C519.879,393.333 524.768,391.69 519.376,387.74C516.587,385.696 517.438,393.566 515.282,390.77C509.335,383.058 505.636,390.929 509.376,394.698ZM515.332,396.389C513.822,394.613 509.611,392.636 510.297,391.354C510.566,390.852 514.096,387.131 515.332,396.389ZM184.232,546.641C191.804,555.51 193.105,549.216 193.135,548.489C193.232,546.184 192.128,547.214 190.165,548.113C189.579,548.382 189.663,548.154 187.291,546.572C187.304,545.167 186.79,544.91 188.259,544.292C188.65,544.128 189.592,541.785 185.512,541.495C184.488,543.24 184.338,542.941 182.762,544.071L184.232,546.641ZM477.57,382.821C483.329,382.528 483.682,382.355 484.158,382.121C484.481,381.962 484.779,381.505 481.266,378.669L479.499,377.566C476.485,372.508 477.047,377.999 477.086,378.195L475.216,381.376C473.335,385.336 471.634,384.41 470.66,384.775C468.234,385.683 475.507,390.554 477.57,382.821ZM264.589,586.601C265.449,588.251 265.185,589.055 266.295,588.322C266.457,588.215 268.267,586.536 264.589,586.601ZM342.853,453.792C338.489,457.948 347.051,458.03 350.327,455.276L351.611,454.719C351.754,454.827 357.646,459.188 353.508,453.521C349.218,451.763 348.86,455.431 344.485,453.539C343.881,449.217 341.395,450.093 341.643,451.466C341.681,451.672 341.643,451.466 342.853,453.792ZM427.634,226.494C423.97,231.121 427.189,231.351 427.474,231.115C427.727,230.904 427.655,230.87 429.924,227.803C435.512,222.079 425.141,223.006 425.359,224.51C425.409,224.851 427.44,226.351 427.634,226.494ZM460.68,242.478C461.575,236.915 461.667,236.985 461.684,236.501C462.088,225.346 466.948,230.13 467.401,230.605C472.893,236.358 470.566,228.691 470.439,228.611C463.984,224.552 464.119,224.139 463.47,224.247C458.347,225.096 459.581,222.582 458.544,221.439C456.831,220.021 457.045,219.542 455.535,219.635C455.366,219.645 451.392,219.89 453.936,221.024C456.008,221.947 455.811,222.027 457.523,223.508C457.312,224.787 457.954,225.453 456.528,225.23C452.715,224.633 452.988,225.405 449.542,226.705C445.659,228.17 450.189,222.826 448.506,222.481C443.709,221.5 441.773,223.792 441.395,224.24C438.57,220.79 438.07,220.875 437.679,220.942C437.364,220.996 437.31,221.006 436.886,224.851C434.973,229.728 439.374,226.828 439.961,226.714L440.947,229.601C438.792,233.934 438.804,233.961 438.978,234.332C440.02,236.564 442.013,232.604 442.454,232.409C452.23,228.074 449.835,235.815 449.89,236.513C447.045,237.126 446.801,236.853 446.633,237.557C446.406,238.506 448.012,239.333 446.58,240.591C446.276,240.858 445.274,241.738 443.572,244.652L442.344,245.101C439.926,246.354 439.868,246.113 438.319,248.213C438.142,248.046 431.396,241.691 435.602,249.566C426.655,251.894 443.319,253.595 443.5,253.501C446.311,252.047 446.247,251.998 449.51,252.661C450.516,252.865 451.19,248.587 452.765,245.689C453.866,243.663 460.68,250.461 460.68,242.478ZM485.536,218.444C481.528,218.611 484.428,220.344 484.598,220.345C484.768,220.346 484.598,220.345 485.536,218.444ZM187.297,528.011C189.008,527.295 188.92,526.427 187.131,525.823C187,525.778 187.131,525.823 187.346,524.101L188.695,523.536C187.821,522.486 187.729,523.058 186.664,523.848C184.319,524.393 184.329,524.201 184.319,524.393C184.236,525.955 184.39,525.835 184.313,527.272L182.574,527.387C183.856,530.338 184.408,530.815 187.164,529.197L187.297,528.011ZM391.669,409.193L392.568,410.516C393.228,409.45 392.78,409.416 391.669,409.193ZM389.011,342.896C388.222,340.047 387.733,339.863 387.472,339.765C387.094,339.622 381.601,338.606 386.448,344.712C381.519,344.764 385.226,346.843 385.415,346.878C389.223,347.578 390.22,346.623 389.011,342.896ZM298.821,556.641C299.022,556.458 304.398,551.561 299.399,553.284C299.15,553.37 299.253,553.48 297.42,555.925C296.504,555.556 294.654,547.297 294.133,553.496C294.037,554.628 296.097,564.448 297.194,561.31C298.014,558.964 297.613,558.941 298.821,556.641ZM230.5,479.584C229.058,482.966 231.416,481.665 231.512,481.519L230.5,479.584ZM406.316,388.769C405.685,386.667 405.48,386.973 403.979,385.256C401.674,383.46 401.121,383.911 399.814,386.459C399.969,388.859 399.971,388.666 399.969,388.859C399.96,389.517 399.568,389.157 399.562,389.565C397.118,390.843 397.249,390.989 397.035,391.089C393.986,392.834 394.935,393.838 397.502,396.012C402.901,394.819 402.879,395.006 403.45,394.456C406.594,391.428 409.987,390.956 406.316,388.769ZM444.442,213.349L445.941,215.425C446.759,217.789 447.386,216.116 449.519,214.876C452.675,214.444 452.183,213.723 454.707,211.734C454.941,211.549 459.301,212.024 458.299,209.523C456.995,206.266 459.51,207.555 462.675,205.774C466.21,203.784 463.22,212.752 466.17,210.189C466.523,209.882 465.57,209.367 469.135,205.164C471.152,202.787 465.358,204.566 466.041,201.523C467.489,195.08 461.302,204.161 458.462,203.798C455.012,203.357 454.482,204.745 452.207,201.877C451.867,201.448 448.616,199.219 448.318,207.5C445.638,211.186 444.096,208.709 442.653,209.86C442.342,210.109 435.155,220.162 444.442,213.349ZM449.77,206.522L450.484,204.235C450.729,204.248 450.651,204.283 451.709,206.098C451.932,206.482 457.822,207.488 455.206,209.056C450.32,211.985 450.974,212.728 450.496,212.751C449.995,212.774 449.655,212.79 449.77,206.522ZM394.118,402.548C395.172,403.744 394.996,403.659 396.486,404.667L397.508,404.339C397.126,402.535 396.355,396.85 396.267,396.197L394.376,398.32C392.941,398.45 393.122,398.512 391.884,399.54L394.118,402.548ZM145.384,579.122C146.646,580.366 148.196,581.105 148.465,581.234C150.301,581.319 150.382,581.218 150.846,579.5L149.445,578.512L149.485,577.506C149.129,575.218 148.948,575.504 147.773,573.393C145.581,575.843 145.395,575.726 145.384,579.122ZM265.301,557.373C265.863,557.057 268.231,555.726 263.571,549.496L263.077,552.214L262.691,553.684L262.398,554.34C256.135,562.556 265.017,557.553 265.301,557.373ZM236.502,475.501L237.258,475.169C238.786,473.929 238.59,473.938 239.628,473.436C238.399,471.918 238.266,472.296 236.445,472.82L234.585,472.917C233.369,476.92 234.318,476.854 235.363,480.85C241.215,503.215 236.4,476.171 236.502,475.501ZM425.852,353.277C425.765,353.459 422.54,357.06 426.69,354.873C428.24,351.911 429,351.657 426.83,349.303C423.771,345.984 429.155,348.003 429.366,348.082C431.177,348.761 430.512,342.877 435.711,342.155C437.582,342.134 437.438,342.093 437.582,342.134C438.379,342.362 437.763,342.986 438.44,343.179L437.592,343.825L436.033,343.845C435.99,343.914 430.146,352.406 436.464,347.454C439.006,348.051 438.863,348.571 441.312,348.161L442.466,348.195C444.223,347.141 444.154,347.102 444.268,345.077C446.47,342.468 443.303,340.321 446.515,339.525C448.602,339.007 449.212,331.402 449.272,330.661C450.61,328.705 452.849,328.399 450.641,327.308C448.736,326.368 448.875,327.345 446.813,328.5L445.214,329.644C445.166,329.519 444.984,329.478 444.937,329.353C444.883,329.212 444.937,329.353 444.331,327.562C446.514,325.211 446.37,324.865 446.262,324.605C445.748,323.375 445.479,324.223 443.26,324.869C442.132,322.372 441.885,321.279 439.528,322.928C437.541,318.375 438.599,318.235 438.381,317.884C436.27,317.048 431.81,309.314 430.432,314.466C429.5,317.951 427.444,314.115 424.512,315.976L423.365,313.76C420.556,310.669 418.358,303.498 417.25,310.465C416.408,315.764 421.691,315.388 419.284,320.407C416.195,326.844 427.612,325.559 424.485,330.494C420.544,336.715 426.894,337.507 424.378,344.454C422.667,349.177 422.168,349.784 425.852,353.277ZM387.994,319.643C388.237,325.712 390.512,328.007 394.796,323.578C395.108,323.067 400.623,314.035 396.408,316.267C394.186,317.443 394.281,317.237 391.749,316.87L389.5,317.906C389.28,317.807 387.033,316.805 386.669,316.871C384.269,317.307 386.314,318.024 387.994,319.643ZM201.261,539.5C198.438,538.477 199.712,540.272 199.791,540.384C199.871,540.496 199.791,540.384 201.261,539.5ZM342.569,364.56C341.619,366.46 342.89,366.568 344.65,365.635C344.87,365.294 348.554,361.242 341.528,360.65C340.89,361.18 341.015,361.005 340.478,360.556C330.018,357.441 341.971,363 342.569,364.56ZM363.18,335.828C365.926,337.197 365.656,337.461 368.485,338.423L369.334,338.332C370.431,334.742 368.835,335.063 365.468,333.567C360.624,330.175 360.061,331.291 359.848,331.714C359.172,333.057 362.832,335.587 363.18,335.828ZM449.383,435.5C445.178,439.994 448.046,440.538 451.198,445.782C451.306,445.962 457.971,447.101 453.608,441.431C452.013,439.358 453.379,437.983 455.498,439.516C456.857,440.499 457.45,440.176 457.378,438.484C457.365,438.159 457.316,436.999 456.377,434.542L457.5,434.928C460.201,435.29 459.993,434.55 461.282,432.096C464.069,430.748 465.671,435.182 466.054,432.354C466.507,429.008 458.83,426.82 463.494,426.445C468.81,426.016 469.315,431.756 472.805,427.77C473.116,427.416 473.674,426.778 478.568,426.567L478.234,425.507C477.664,423.748 478.011,423.905 478.5,422.292C479.452,422.313 486.345,422.463 487.502,414.5C488.425,408.146 485.019,409.769 482.328,406.784C478.164,402.164 476.733,410.871 471.322,407.688C473.726,402.423 469.693,406.745 469.614,406.874C467.167,407.728 466.378,408.786 465.726,406.375C465.622,405.994 464.476,401.756 464.624,401.561C465.036,401.019 468.421,396.565 469.281,394.444C471.083,390.005 467.274,394.436 462.518,394.63C461.93,394.654 459.675,404.125 459.004,398.761C458.466,394.447 456.47,394.855 457.342,390.477C458.68,383.765 452.282,388.697 453.354,392.515C455.251,399.274 449.55,398.426 449.489,397.508C449.395,396.105 441.494,388.427 439.873,389.886C437.675,391.865 441.35,394.983 441.697,395.277C445.424,398.44 444.619,406.212 440.363,400.741C438.186,397.941 437.656,400.248 436.761,403.625C436.396,405.002 431.679,404.456 431.621,404.396C429.135,401.839 437.22,381.096 429.626,395.813C428.28,393.315 427.299,391.799 426.16,394.388C416.944,397.572 426.725,398.562 427.025,398.673C427.866,398.984 427.873,404.221 428.129,404.652C429.767,407.402 427.812,407.313 425.539,406.85C422.213,406.173 426.667,409.856 425.218,411.221C422.265,414.003 423.253,414.386 423.737,418.468L424.323,421.537C423.486,425.156 426.927,433.629 430.497,433.331C431.811,433.221 437.667,440.363 440.215,438.046C443.179,435.35 445.106,432.883 449.383,435.5ZM432.386,268.372C430.958,273.11 434.021,270.446 434.161,270.291C435.6,268.695 434.379,268.523 432.386,268.372ZM262.501,506.499C262.175,506.455 258.355,505.948 258.512,507.502C258.545,507.829 259.306,510.993 262.501,506.499ZM472.486,341.605C471.065,342.583 470.526,342.215 470.913,343.505C472.429,348.56 472.485,341.802 472.486,341.605ZM331.583,384.503L330.438,382.664C329.294,382.085 328.592,385.884 331.583,384.503ZM424.479,255.454C423.459,253.02 423.847,252.602 422.51,252.442C422.45,252.435 417.99,255.21 424.479,255.454ZM240.94,477.531C240.996,477.755 242.62,484.294 243.653,478.538C243.694,478.31 243.914,477.083 240.94,477.531ZM205.56,554.5C204.11,553.858 203.983,551.962 203.379,553.534C203.095,554.273 204.736,559.19 205.56,554.5ZM286.932,599.594C288.559,598.946 288.505,599.435 290.158,599.1C292.944,598.534 287.99,596.308 286.932,599.594ZM245.53,537.478C247.383,536.577 247.39,536.742 247.383,536.577C247.376,536.412 245.417,533.028 245.53,537.478ZM484.312,245.674C480.824,242.468 480.678,246.168 481.392,246.631C483.127,247.757 483.382,247.382 484.312,245.674ZM273.487,593.5C269.558,591.535 270.669,594.269 270.786,594.467C271.152,595.09 271.167,594.685 273.487,593.5ZM172.857,573.365C172.687,573.079 169.584,567.833 169.186,571.406C168.984,573.227 172.524,573.353 172.857,573.365ZM204.577,529.7C203.266,531.912 202.632,532.077 204.5,534.943C205.328,532.722 205.228,532.882 205.377,530.666L204.577,529.7ZM198.905,500.227C197.842,503.119 197.417,503.16 198.094,503.954C198.292,504.186 201.536,504.812 198.905,500.227ZM406.747,403.137C401.974,399.824 402.08,402.959 402.28,403.254C402.854,404.102 403.926,404.529 404.5,405.377C404.759,405.07 404.938,405.554 405.258,405.175C405.388,405.021 405.258,405.175 406.747,403.137ZM477.33,293.614C478.502,291.519 479.662,291.039 477.421,289.855C477.155,289.714 474.617,289.656 477.33,293.614ZM426.93,310.672C427.808,312.397 428.305,313.027 429.368,311.458C429.483,311.289 430.501,307.665 426.93,310.672ZM418.026,432.964C418.462,433.966 418.383,433.87 419.051,434.763C421.482,432.732 422.753,432.789 421.396,431.622C420.261,430.647 420.36,431.491 418.026,432.964ZM514.341,43.306C509.987,50.961 516.877,45.457 517.032,45.241C518.691,42.927 516.986,42.182 514.341,43.306ZM449.406,103.542C450.513,101.945 451.06,101.84 449.71,100.245C438.2,92.434 446.248,104.175 446.567,104.447C449.293,106.774 449.768,108.152 452.166,105.595C451.586,105.206 451.933,105.013 451.369,104.635C451.22,104.535 451.369,104.635 449.406,103.542ZM509.58,53.956C509.87,53.835 513.354,52.376 511.488,50.512C509.292,48.316 503.067,56.423 509.58,53.956ZM912.832,624.5L911.071,625.487C911.059,620.547 909.919,619.442 914.575,617.646C918.154,616.265 917.727,615.574 921.568,614.931C927.603,613.92 926.606,610.203 932.556,611.073C933.615,611.228 941.563,612.391 945.731,608.774C948.3,606.544 958.939,616.47 962.337,608.415C965.192,601.647 970.634,612.244 976.269,608.214C983.28,603.2 983.378,603.509 988.472,596.471C989.398,595.192 994.261,594.996 996.091,602.607C996.38,603.81 996.755,605.371 1011.554,602.908C1012.45,602.759 1022.849,601.028 1022.892,603.413C1023.207,620.724 1022.826,854.653 1022.791,876.5C1022.773,887.598 1026.353,890.875 1020.535,890.917C1005.65,891.026 1005.808,890.832 834.474,890.93C834.243,890.464 832.395,886.735 830.275,885.969C822.565,883.183 822.107,884.77 816.539,890.917L555.474,890.832C555.128,884.626 557.57,884.542 561.56,876.543C562.422,874.814 571.532,872.894 569.035,869.773C568.832,869.518 564.237,863.775 569.443,865.717C572.095,866.707 578.845,865.41 575.022,858.812C574.664,858.194 571.227,852.263 575.745,849.917C579.038,848.207 584.818,859.211 582.482,851.499C581.527,848.346 584.119,847.718 581.614,845.37C581.258,845.036 581.309,845.045 579.432,842.539C579.179,840.948 579.159,841.113 579.29,839.436C579.751,836.867 593.148,822.183 595.495,822.564C609.939,824.911 604.765,803.486 625.529,807.273C625.794,807.321 630.294,810.381 629.537,807.499C627.59,800.08 630.826,800.586 632.541,794.517C632.787,793.644 635.821,782.903 641.861,788.052C643.715,789.632 647.61,786.035 649.996,795.381C649.98,795.585 649.563,800.844 652.388,796.271C656.966,794.059 655.262,792.787 655.707,791.58C655.778,791.388 660.085,788.858 662.456,788.384C662.872,788.346 662.843,788.335 667.503,787.459C676.832,793.506 669.414,807.895 677.536,806.639C678.141,806.546 677.68,806.036 684.51,803.516C685.735,803.064 690.595,809.62 689.116,804.556C687.909,800.424 683.211,800.362 683.513,797.5C684.016,792.732 685.293,791.814 681.068,789.504L681.068,786.504C683.875,782 679.72,779.907 684.333,777.165C685.071,776.726 682.741,775.27 690.298,768.24C692.179,766.489 696.913,759.373 698.982,766.373C699.494,769.036 699.277,769.04 699.494,769.036C699.942,769.028 701.404,766.856 701.545,766.647C708.178,766.681 704.246,770.382 706.19,776.699L708.431,778.585C714.911,785.534 715.994,784.145 716.229,783.448C716.94,781.337 714.094,780.991 716.438,777.438C717.492,775.841 717.844,776.633 718.443,776.29L721.537,775.667C725.28,774.702 725.355,775.15 728.5,773.04C728.644,773.316 735.528,779.47 742.819,773.852C743.52,773.312 743.692,773.927 752.334,768.2C754.185,766.973 754.197,767.223 757.45,766.082L765.529,765.645C771.173,765.309 770.996,765.269 776.5,765.5C780.128,765.826 779.999,765.802 783.5,765.498C786.249,767.998 786.601,769.436 789.546,767.045C798.983,773.474 798.953,773.552 799.525,773.707C804.987,775.185 792.385,766.388 801.566,760.632L804.503,759.512C816.663,760.945 821.934,756.699 824.149,745.489L824.308,742.458C827.547,734.901 825.39,733.15 827.257,730.406C828.003,729.311 829.907,726.512 816.298,717.978C808.37,713.007 817.792,710.439 818.517,709.514C821.985,705.094 819.757,704.246 814.529,702.369L811.467,701.572C809.888,700.499 806.319,699.219 808.143,697.305C810.035,695.32 808.44,694.621 810.224,692.365C812.771,689.147 805.349,688.335 807.299,686.413C815.342,678.486 790.404,658.377 798.515,656.551C802.162,655.73 800.813,654.438 799.606,651.447C797.319,644.752 797.362,644.982 794.128,638.686C792.123,634.782 789.544,634.652 792.367,631.345L796.291,635.622L799.299,637.956C799.53,638.152 800.748,639.182 802.745,639.5C803.004,645.173 808.968,665.203 811.622,667.331C814.482,669.625 815.319,668.906 816.288,672.55C820.999,678.922 826.124,679.129 820.911,684.817C818.818,687.101 822.211,687.906 820.523,690.513C815.799,697.809 834.15,694.191 850.792,720.259C861.097,736.401 864.779,738.175 866.545,739.026L867.535,739.123C870.279,746.733 870.465,738.539 870.471,738.294L871.614,738.013C873.981,739.209 873.523,739.482 875.342,741.789C876.59,743.459 876.649,743.219 878.258,744.535C878.906,747.054 878.754,746.912 878.906,747.054C881.35,749.338 886.756,743.167 879.489,742.443C878.012,741.172 878.003,741.478 876.891,739.883C879.134,737.547 879.08,737.513 879.314,737.36C886.655,732.543 871.38,734.464 870.579,735.538C868.029,736.2 867.807,737.054 865.838,735.076C845.999,715.144 849.198,709.67 850.472,707.488C851.532,705.675 847.219,703.214 846.936,701.447C845.931,695.151 844.308,692.943 850.557,691.914C857.973,690.692 857.945,691.174 864.408,694.691C867.183,696.201 877.072,686.372 863.495,682.88C859.916,680.348 859.047,679.278 862.376,676.375C863.222,675.637 859.442,673.489 869.18,664.1C873.229,666.808 873.373,664.816 873.363,664.48C873.353,664.167 873.347,663.99 870.064,662.369C870.495,661.722 871.762,659.819 877.502,656.104C881.719,658.895 883.661,657.544 884.179,662.624C884.441,665.192 890.603,660.5 891.142,659.288C893.318,654.396 900.101,660.903 899.111,655.516C897.099,644.561 903.732,647.319 913.091,636.231C914.186,634.935 910.772,632.544 912.636,630.619C915.074,628.102 913.592,627.778 912.832,624.5ZM877.608,886.518C872.803,889.516 878.386,888.575 878.415,888.449L877.608,886.518ZM634.439,812.623C638.373,811.757 634.468,810.004 633.872,810.795C633.194,811.694 633.747,811.638 634.439,812.623ZM768.12,869.396C767.951,867.1 767.318,866.048 765.878,867.832C765.649,868.116 764.074,876.328 768.12,869.396ZM900.306,667.525C900.205,661.94 899.911,661.761 899.496,661.509C895.855,659.296 899.135,676.527 900.306,667.525ZM823.426,809.446L823.377,807.634C823.014,807.312 818.942,809.633 823.426,809.446ZM905.609,665.468C903.526,661.892 902.854,662.634 902.722,662.913C901.716,665.038 905.803,673.043 905.609,665.468ZM878.453,885.518C880.274,886.515 890.832,888.788 892.768,884.648C894.382,881.197 897.038,867.219 888.457,872.417C877.684,878.942 878.3,884.208 878.453,885.518ZM888.451,885.022C886.505,884.651 875.83,885.942 885.469,877.467C890.015,873.471 890.42,874.328 890.537,874.455C894.941,879.233 889.094,884.448 888.451,885.022ZM837.291,886.472C838.831,891.692 840.41,885.767 839.172,884.883C837.713,883.843 837.891,884.813 837.291,886.472ZM611.269,827.744C614.116,829.383 613.372,825.541 611.524,825.669C609.914,825.781 610.585,826.345 611.269,827.744ZM855.525,704.613C853.172,706.839 857.846,707.012 857.235,705.548L855.525,704.613ZM785.515,786.509C785.301,785.08 785.922,784.529 784.501,784.547C784.324,784.549 781.038,786.553 785.515,786.509Z" style="fill:rgb(191,198,196);fill-opacity:0.98;"/>
        </g>
    </g>
</svg>
