<?xml version="1.0" encoding="UTF-8" standalone="no"?>
<!DOCTYPE svg PUBLIC "-//W3C//DTD SVG 1.1//EN" "http://www.w3.org/Graphics/SVG/1.1/DTD/svg11.dtd">
<svg width="100%" height="100%" viewBox="0 0 1920 1639" version="1.1" xmlns="http://www.w3.org/2000/svg" xmlns:xlink="http://www.w3.org/1999/xlink" xml:space="preserve" xmlns:serif="http://www.serif.com/" style="fill-rule:evenodd;clip-rule:evenodd;stroke-linejoin:round;stroke-miterlimit:2;">
    <g transform="matrix(1,0,0,1,0,558.346533)">
        <g id="suez" transform="matrix(0,-1.877134,1.877134,0,-0,1085.763329)">
            <path d="M91.5,0L104.5,0C103.941,2.157 103.924,2.139 103.896,2.329C103.477,5.278 103.41,5.252 103.433,5.508C103.451,5.715 103.628,7.745 105.68,6.806C106.423,6.465 106.296,6.311 106.374,5.484C106.79,1.118 105.968,1.123 105.5,0L875.5,0C875.821,2.675 875.781,2.67 875.781,19.5C875.781,196.275 875.772,196.276 875.855,198.52C875.966,201.519 874.653,200.714 873.52,200.952L872.495,199.661C872.108,199.513 871.858,199.103 871.47,198.954C871.318,198.896 871.321,198.934 869.448,198.683C867.975,198.473 867.991,198.381 866.497,198.546C866.16,198.583 865.802,198.75 865.485,198.631C865.058,198.471 864.822,197.987 864.422,197.769C863.527,197.282 863.469,197.544 861.497,197.532C860.911,197.292 861.004,197.159 860.407,196.914C860.263,196.855 860.268,196.877 858.526,196.409C849.446,195.061 850.493,191.551 847.546,191.166C847.299,191.134 844.033,191.324 843.498,191.492C840.561,192.415 842.748,197.124 839.476,197.185C839.144,197.191 838.814,197.138 838.483,197.124C838.315,197.117 836.761,197.053 836.399,197.386C835.477,198.236 835.806,198.463 836.577,199.445C837.457,200.565 837.79,200.236 838.603,201.418C840.626,204.357 837.923,205.548 839.062,206.819C839.803,207.647 842.225,207.166 847.51,207.305C853.06,207.451 853.028,207.04 853.196,207.009L853.862,205.564C853.983,205.274 853.697,204.913 853.818,204.623C853.894,204.441 854.194,204.49 854.356,204.377C854.506,204.273 854.574,204.064 854.738,203.982C855.369,203.671 858.898,203.724 859.734,204.04C859.935,204.116 861.1,204.556 860.713,206.541C860.398,208.155 860.083,207.999 858.719,208.891C855.706,210.86 844.858,209.609 841.511,209.964C841.148,210.003 840.827,210.248 840.463,210.28C840.093,210.312 839.727,210.153 839.355,210.152C839.019,210.152 838.689,210.276 838.352,210.276C838.007,210.24 838.025,209.907 837.194,210.156C836.198,210.455 835.852,210.663 836.46,211.514C836.777,211.957 837.483,212.006 837.799,212.448L837.797,213.513C837.534,216.607 837.538,216.599 836.707,219.582C836.667,219.726 836.332,220.928 835.497,221.002C834.794,221.064 833.065,219.191 830.506,218.478C829.989,218.334 828.716,217.979 824.364,215.803C822.158,214.7 820.7,214.69 819.744,213.334C819.586,213.11 819.484,212.848 819.311,212.635C817.996,211.016 815.407,211.833 815.423,208.497C815.433,206.493 815.151,206.528 815.05,204.522C814.893,201.4 815.69,201.511 816.35,201.111C816.743,200.873 817.058,200.487 817.494,200.342C817.754,200.257 817.74,200.306 821.516,200.776C821.668,200.795 822.812,200.937 823.396,200.381C824.554,199.281 824.127,199.063 823.798,197.515C823.559,196.386 823.729,196.34 824.606,195.593C825.438,194.884 827.346,194.288 827.4,194.256C827.519,194.186 827.536,193.991 827.661,193.934C827.95,193.802 828.285,193.808 828.588,193.713C829.138,193.54 829.121,193.506 835.37,191.269L836.215,191.042C836.853,191.183 836.853,190.988 837.5,191.131C838.047,191.251 837.951,191.465 838.514,191.549C838.834,191.597 839.156,191.378 839.476,191.426C839.74,190.891 840.454,190.672 840.718,190.137C840.768,190.035 840.649,190.114 839.375,189.691C838.873,189.719 838.895,189.585 838.405,189.612C837.087,189.686 837.123,189.827 837.01,189.824C836.781,189.819 836.603,189.571 836.375,189.566C836.213,189.413 836.228,189.127 836.066,188.974C835.879,188.799 835.601,188.756 835.379,188.629C833.413,187.507 832.387,185.147 830.456,183.559C830.254,183.393 830.018,183.272 829.817,183.106C827.871,181.496 827.262,180.035 826.543,179.455C824.219,177.58 823.926,178.287 822.493,178.457C819.321,178.836 817.788,174.857 815.287,176.033C813.937,176.668 814.997,178.666 811.551,178.913C807.27,179.22 803.608,177.874 803.464,177.876C803.127,177.881 802.836,178.147 802.501,178.184C802.443,178.191 799.892,177.065 797.432,181.454C796.455,183.196 795.095,183.938 794.403,185.441C794.277,185.716 794.218,186.022 794.06,186.28C793.976,186.416 793.777,186.455 793.698,186.594C792.623,188.479 793.755,194.351 793.085,196.379C792.414,198.411 792.256,198.346 790.655,199.752C790.526,199.865 790.496,200.081 790.345,200.164C790.077,200.312 789.751,200.317 789.459,200.409C789.165,200.502 788.828,200.529 788.586,200.721C788.44,200.837 788.575,201.179 788.403,201.248C788.093,201.373 787.734,201.163 787.402,201.197L785.556,201.722C781.063,202.121 781.07,201.802 776.562,201.991L774.539,202.623C772.245,202.936 772.262,203.04 767.45,202.814C766.465,202.735 766.488,202.726 765.488,202.657C759.09,202.221 759.926,204.678 756.666,206.808C755.552,207.535 755.462,207.315 754.615,207.752C752.79,208.692 752.759,208.626 752.612,208.727C752.482,208.817 752.462,209.03 752.322,209.104C752.05,209.247 751.725,209.252 751.432,209.348C749.922,209.84 749.948,209.864 748.497,210.493C745.58,211.756 745.649,211.863 742.668,212.949C738.379,214.512 735.941,216.557 734.612,216.078C733.917,215.828 733.313,215.366 732.622,215.108C730.969,214.492 729.131,216.092 728.401,217.441C726.121,221.654 726.972,222.744 722.454,224.366C717.685,226.078 717.38,223.088 712.527,224.569C706.129,226.522 706.1,226.398 705.558,226.607C705.383,226.675 703.57,227.373 704.313,228.599C704.895,229.56 709.115,228.225 712.496,227.998C716.686,227.717 716.777,232.524 716.16,233.196C716.103,233.258 714.771,233.733 714.533,233.758C712.915,233.925 712.923,233.344 710.542,233.698C705.892,234.391 703.752,232.95 702.431,233.192C700.918,233.47 696.362,237.775 694.462,238.394C692.025,239.187 691.971,238.911 689.561,239.722C687.387,240.454 687.524,242.099 683.508,242.572C678.923,243.113 678.743,244.195 676.492,244.404C676.077,244.443 672.446,244.782 672.136,241.543C671.908,239.166 674.28,240.048 675.528,236.511C676.387,234.074 676.425,234.074 678.19,232.207C681.426,228.781 678.277,227.871 677.78,227.267C677.034,226.361 677.19,222.809 677.207,222.419C677.401,222.163 677.326,221.764 677.52,221.509C677.656,221.33 677.908,221.273 678.124,221.213C679.265,220.893 679.573,221.162 679.624,220.5C679.645,220.231 679.157,219.932 679.103,219.899C678.993,219.831 678.989,219.864 677.562,219.425C671.591,216.77 671.093,216.65 670.499,216.507C667.62,215.813 667.795,215.413 665.242,213.932C663.377,212.851 663.59,212.563 663.347,210.515C663.198,209.265 661.769,208.035 662.567,206.532C662.78,206.13 663.145,205.822 663.36,205.421C663.904,204.41 663.593,202.982 662.478,202.532C659.709,201.415 659.255,204.423 656.521,204.292C654.696,204.204 654.695,204.26 654.539,204.231C654.122,204.152 653.767,203.871 653.357,203.763C653.022,203.676 652.536,203.925 652.325,203.651C652.236,203.536 652.48,201.906 652.678,201.638C652.702,201.606 654.463,200.534 654.503,200.528C655.018,200.446 656.017,201.143 658.45,200.306C660.841,199.484 662.444,199.135 660.586,197.433C658.728,195.73 658.634,195.857 656.263,194.972C654.483,194.308 654.278,194.822 653.043,193.836C652.416,193.335 652.222,193.268 652.577,192.536C652.686,192.312 653.053,192.328 653.207,192.132C653.368,191.927 653.22,191.456 653.473,191.396C653.85,191.308 654.176,191.742 654.556,191.817C656.02,192.107 656.911,190.752 656.964,190.565C657.294,189.398 655.637,187.698 659.458,187.284C660.797,187.139 660.844,186.887 660.964,185.556C660.994,185.225 660.835,184.887 660.896,184.561C661.272,182.536 663.488,181.929 664.676,184.395C666.171,187.5 664.222,189.028 666.54,189.277C668.658,189.505 668.752,189.237 670.59,190.355C671.485,190.9 671.44,191.017 672.479,191.132C672.647,191.15 672.971,191.186 674.485,190.482C675.07,190.903 674.925,191.049 675.51,191.469C675.848,191.713 675.904,191.547 676.261,191.76C677.119,192.272 676.862,192.559 677.732,193.089C679.206,193.988 680.493,191.636 677.417,189.671C677.139,189.493 676.406,189.025 673.425,188.607C672.437,188.078 672.453,188.074 671.475,187.533C667.852,185.531 668.051,182.972 667.332,181.573C666.991,180.907 666.529,180.305 666.215,179.627C665.386,177.839 666.728,177.136 664.212,174.848C662.732,173.502 662.863,173.398 660.602,170.419C659.064,168.394 660.136,167.622 659.881,166.39C659.473,164.423 654.668,163.782 652.324,162.9C650.714,162.294 650.51,161.916 647.603,163.669C646.142,164.55 639.539,168.845 638.423,169.375C637.534,169.798 637.675,169.981 637.316,170.23C636.601,170.726 636.497,170.493 635.753,170.954C635.662,171.011 634.62,171.658 634.609,171.67C634.448,171.864 634.652,172.264 634.445,172.41C634.182,172.595 633.797,172.404 633.481,172.464C632.401,172.668 632.528,172.979 631.454,173.25C631.129,173.333 630.781,173.253 630.448,173.301C630.129,173.347 629.824,173.467 629.507,173.529C627.635,173.894 627.076,173.37 625.367,174.3C624.135,174.971 624.415,175.376 620.53,177.548C614.325,181.019 610.23,193.542 607.706,196.663C606.423,198.25 606.536,198.303 606.424,198.438C606.287,198.604 606.038,198.648 605.897,198.811C605.724,199.012 605.587,199.251 605.504,199.503C605.409,199.793 605.569,200.174 605.373,200.408C605.203,200.61 604.813,200.425 604.599,200.58C604.39,200.732 604.385,201.059 604.212,201.25C604.058,201.419 603.807,201.475 603.641,201.632C603.559,201.71 603.586,201.719 602.655,202.653C601.29,204.023 601.376,204.099 601.25,204.21C601.055,204.382 600.772,204.43 600.567,204.59C600.411,204.712 600.346,204.93 600.184,205.043C600.074,205.119 599.982,204.94 598.712,205.819C597.442,206.698 597.261,206.854 593.503,207.514C587.884,208.502 587.084,206.25 584.578,206.794C584.539,206.802 583.458,207.445 583.448,207.465C583.034,208.301 583.314,208.371 584.103,208.878C585.39,209.704 587.159,209.465 587.377,209.578C587.601,209.694 590.127,214.59 593.37,213.245C595.916,212.189 595.804,210.668 602.393,211.955C604.848,212.434 604.809,211.619 607.501,211.531C612.271,211.375 612.867,212.173 613.523,212.407C613.824,212.772 614.228,213.043 614.529,213.407C614.862,213.81 615.059,214.317 615.414,214.699C616.203,215.549 616.381,215.529 616.489,215.517C617.195,215.438 616.486,214.579 617.193,214.5L617.594,213.452L615.355,211.43C616.132,209.554 616.172,209.578 616.194,209.404C616.231,209.104 615.994,208.822 615.994,208.52C615.993,208.199 616.221,207.897 616.191,207.578C616.154,207.198 615.807,206.882 615.801,206.5C615.797,206.183 616.461,204.669 616.529,204.514C617.608,202.058 617.225,201.782 618.637,200.682C620.712,199.067 620.515,198.887 620.693,198.748C620.913,198.577 621.241,198.592 621.46,198.421C623.304,198.073 623.295,198.087 623.452,198.045C623.827,197.946 624.147,197.685 624.523,197.585C629.392,196.574 630.229,195.925 633.435,195.214C636.832,194.461 637.713,195.017 637.663,198.502C637.626,201.071 637.138,201.284 636.55,201.57C636.277,201.702 635.991,201.809 635.727,201.957C633.881,202.988 633.732,202.562 632.622,202.985C631.172,203.537 631.545,203.951 629.685,207.586C628.137,210.61 630.524,210.437 631.398,210.735C632.781,211.207 633.554,214.37 631.547,215.57C627.685,217.88 625.537,214.897 620.517,215.655C617.372,216.13 618.297,219.537 614.544,219.95C614.212,219.987 613.869,219.896 613.542,219.963C611.772,220.325 612.041,220.79 611.47,222.492C610.81,224.462 610.541,224.33 610.484,224.5C610.372,224.836 610.494,225.221 610.382,225.556C610.798,225.501 611.036,226.276 611.451,226.22C611.913,226.159 612.065,225.483 612.483,225.276C612.808,225.115 613.24,225.333 613.565,225.172C614.651,225.618 614.673,225.543 615.681,226.177C617.272,227.179 621.979,228.807 615.614,232.724C613.82,233.829 613.871,233.882 612.411,235.417C609.332,238.653 608.761,237.829 608.5,238.105C608.016,238.614 608.014,239.483 607.499,239.961C607.255,240.188 606.744,239.736 606.499,239.963C605.985,239.454 606.015,238.544 605.5,238.036C605.243,237.782 601.514,238.362 598.561,237.34C598.25,237.232 595.575,236.306 594.616,236.204C593.919,236.129 593.712,236.596 592.529,235.453C592.379,235.307 592.347,235.059 592.184,234.927C591.816,234.63 590.609,234.468 590.482,234.558C590.003,234.896 589.936,235.648 589.458,235.987L586.499,235.961C586.01,235.952 582.375,236.514 581.991,233.462C581.629,230.584 584.211,230.056 584.549,229.986C584.88,229.919 585.225,229.96 585.558,229.906C585.899,229.852 586.237,229.77 586.566,229.663C587.019,229.516 586.966,229.428 587.415,229.304C587.919,229.164 587.925,229.287 588.42,229.15L590.347,229.222C590.569,229.086 590.698,228.78 590.686,228.52C590.671,228.212 590.507,227.893 590.273,227.692C589.945,227.412 589.807,227.795 589.496,227.502C589.059,227.09 589.413,226.881 588.975,226.469C588.781,224.49 588.969,224.468 588.31,222.576C587.992,221.664 587.76,217.668 585.595,216.352C583.54,215.104 578.024,210.714 576.975,214.56C576.703,215.554 577.024,215.597 576.693,216.58C576.006,218.627 574.707,218.956 574.45,219.022C574.024,219.13 562.477,218.933 562.443,218.929C561.622,218.821 560.468,218.185 559.464,218.367C558.929,218.464 558.246,219.159 556.456,218.937C554.674,218.716 554.68,218.554 553.568,218.755C548.656,219.641 547.423,218.413 545.555,218.093C543.498,217.741 543.49,218.038 541.434,217.758C539.483,217.492 539.499,218.046 537.266,220.265C532.843,224.661 529.253,222.26 527.492,223.491C526.9,223.905 527.127,224.107 526.549,224.551C526.243,224.786 525.439,225.128 523.732,226.745C521.647,228.721 520.315,227.734 518.433,228.332C515.281,229.333 514.978,229.574 514.728,229.772C514.506,229.948 513.155,231.02 512.341,232.402C510.893,234.861 510.828,234.863 508.404,236.35C507.043,237.185 507.461,238.061 505.268,240.269C502.158,243.398 501.946,243.494 501.581,243.659L498.579,244.698C496.55,245.4 495.287,244.747 493.437,245.342C491.511,245.961 491.518,246.048 489.5,245.969C486.829,245.865 486.805,245.866 484.393,244.714C484.102,244.575 482.239,243.686 480.408,244.09C478.928,244.416 478.615,246.464 476.608,247.677C476.216,247.914 475.801,248.114 475.408,248.349C473.14,249.707 473.647,250.902 470.485,251.046C468.906,251.117 468.856,251.161 468.008,252.09C466.948,253.25 466.253,252.98 460.501,252.971C457.348,252.966 457.277,252.957 454.602,251.311C454.196,251.062 452.507,250.516 453.081,247.441C453.312,246.204 453.448,246.264 455.003,244.177C456.771,241.802 459.286,242.73 458.694,240.356C458.408,239.207 454.904,240.812 454.548,240.867C451.789,241.296 451.513,240.538 449.278,242.223C449.023,242.414 448.806,242.578 445.579,243.697C443.375,244.461 440.811,243.78 440.471,243.536C439.883,243.115 440.148,242.855 439.513,242.484C439.14,242.266 438.727,242.124 438.336,241.939C436.458,241.048 436.993,240.553 436.944,238.488C436.868,235.268 435.285,236.043 431.5,236.049C425.645,236.056 425.647,236.062 425.499,236.05C423.504,235.896 423.521,236.056 421.5,236.062C418.897,236.071 409.795,236.059 409.541,236.016C407.981,235.754 408.121,235.266 406.553,235.098C405.886,235.027 405.207,235.101 404.541,235.014C404.296,234.983 404.329,234.876 401.597,234.067C401.354,233.995 401.38,233.931 398.598,233.066C396.453,232.398 396.758,231.748 394.601,231.068C391.416,230.063 389.49,228.394 387.559,228.087C386.366,227.897 385.985,228.408 383.725,226.264C381.906,224.539 381.559,225.007 379.723,223.266C377.901,221.536 377.55,222.001 375.724,220.265C373.907,218.536 373.554,218.999 371.724,217.265C369.933,215.567 369.539,216.078 367.731,214.269C364.199,210.734 366.04,208.586 362.573,207.327C360.512,206.579 359.842,207.115 359.055,204.605C357.743,200.42 357.47,200.071 357.214,199.743C355.902,198.063 355.619,198.07 353.576,198.697C350.053,199.777 348.411,197.897 347.608,197.332C346.636,196.648 346.503,196.738 346.066,195.64C345.56,194.37 345.616,194.344 344.776,193.275C343.848,192.093 344.138,191.915 343.214,190.735C341.03,187.946 341.906,187.154 339.386,185.711C337.784,184.794 337.721,184.919 336.266,183.785C334.214,182.185 331.079,181.214 330.599,181.065C327.209,180.014 328.522,178.242 326.57,177.369C325.507,176.893 324.965,177.4 322.722,175.267C320.9,173.533 320.552,174.002 318.721,172.267C317.364,170.98 317.26,171.119 315.435,170.747C313.568,170.367 313.556,170.896 312.71,172.606C312.304,173.425 311.131,177.157 311.088,177.44C311.048,177.694 311.39,180.883 306.51,180.955C303.803,180.995 303.781,181.161 302.424,180.691C300.98,180.191 300.994,180.16 300.558,180.092C299.018,179.853 299.05,179.811 297.566,179.333C296.895,179.117 292.581,178.931 292.078,176.595C291.99,176.186 291.961,174.672 291.958,174.504C291.9,171.496 294.382,170.777 294.901,167.557C295.255,165.361 295.331,165.387 296.284,163.392C297.722,160.381 296.341,158.23 297.3,155.419C298.271,152.57 297.831,152.513 297.951,149.5C297.959,149.295 298.561,146.681 296.257,144.782C295.175,143.889 292.414,143.154 291.326,141.618C290.521,140.483 290.591,140.401 289.392,139.711C286.402,137.992 285.901,141.994 285.69,142.578C285.184,143.973 285.298,143.989 285.023,145.452C284.771,146.792 284.096,147.123 284.055,149.493C284.029,151.002 284.069,150.983 284.04,152.496C283.997,154.807 283.228,155.123 283.089,156.445C283.019,157.113 283.093,157.792 283.009,158.458C282.941,158.999 282.226,160.551 282.087,161.441C281.846,162.987 281.805,162.955 281.328,164.431C280.776,166.138 281.578,166.569 280.301,169.403C279.067,172.144 279.963,172.266 280.053,175.499C280.16,179.313 280.052,179.983 277.405,181.31C273.722,183.156 272.747,180.641 271.503,180.632C270.649,180.625 270.378,181.292 270.336,181.395C270.211,181.704 270.523,181.763 269.334,185.434C269.228,185.762 269.147,186.101 269.093,186.442C268.853,187.975 268.816,187.945 268.333,189.433C268.227,189.762 268.146,190.1 268.092,190.442C267.852,191.977 267.813,191.946 267.33,193.432C266.875,194.836 267.375,195.188 266.308,197.404C266.117,197.8 265.273,199.297 265.093,200.442C264.852,201.973 264.814,201.941 264.333,203.433C264.232,203.747 264.48,203.808 263.336,207.434C262.469,210.185 263.311,237.684 262.937,243.49L262.948,244.457C264.197,247.794 263.953,247.873 263.953,254.5C263.953,262.013 264.027,261.999 264.062,269.499C264.067,270.461 263.977,272.218 263.965,272.455C263.719,272.892 263.128,273.063 262.882,273.5C262.821,273.607 262.913,283.86 262.938,285.509C263.039,292.02 262.967,292.004 262.98,298.5L263.052,299.5C263.438,300.107 264.577,299.896 264.963,300.503C264.985,300.537 264.937,309.693 264.932,310.492L264.948,311.459C264.706,311.887 264.148,312.073 263.906,312.5C263.828,312.639 263.898,312.643 263.789,314.494L263.858,317.503C264.028,324.013 263.97,323.998 263.97,330.5L263.97,338.5L263.979,339.5L264.12,340.5C264.699,341.445 265.378,340.543 265.965,341.501C265.984,341.532 265.965,341.521 265.951,344.491L265.965,345.455C265.721,345.889 265.142,346.066 264.898,346.5C264.77,346.727 264.945,351.411 264.961,352.505C264.998,354.876 264.969,354.858 264.969,359.5L264.969,368.5L264.983,369.5L265.109,370.5L266.965,372.495L266.989,373.456C266.701,373.885 266.088,374.021 265.8,374.45C265.426,375.005 265.656,375.06 265.788,377.482C265.824,378.144 265.754,378.813 265.849,379.469C265.905,379.851 266.151,380.184 266.238,380.56C266.457,381.521 266.346,381.528 266.541,382.491C266.756,383.554 266.858,383.503 267.135,384.566C267.387,385.533 267.27,385.536 267.536,386.488C268.031,388.258 267.886,388.282 267.94,388.431C268.077,388.811 268.405,389.107 268.524,389.493C268.62,389.808 268.53,390.153 268.567,390.481C268.604,390.811 268.69,391.134 268.745,391.461C268.959,392.741 269.183,392.653 269.449,393.516C269.545,393.828 269.482,394.169 269.526,394.492C269.557,394.72 269.867,396.982 269.987,397.332C270.038,397.482 270.359,397.38 270.42,397.526C270.545,397.83 270.43,398.184 270.473,398.509C270.619,399.593 270.882,399.499 271.111,400.561C271.195,400.952 270.972,400.979 271.362,402.543C271.54,403.258 273.187,409.859 273.561,411.487C274.727,416.577 274.984,416.481 276.74,421.408C278.267,425.695 280.714,430.59 281.738,434.411C282.199,436.134 282.638,435.896 282.919,436.477C283.066,436.784 282.834,437.191 282.987,437.495C283.196,437.907 283.733,438.088 283.941,438.5L283.963,439.466C283.724,439.873 283.154,440.011 282.914,440.418C282.705,440.774 282.968,440.814 282.861,445.573C282.854,445.882 282.735,446.23 282.885,446.5C283.127,446.934 283.723,447.097 283.955,447.536C284.028,447.675 283.954,447.676 283.941,449.497C282.643,450.968 282.23,450.787 281.679,453.556C281.178,456.075 281.333,456.088 280.685,458.556C280.155,460.572 280.39,460.612 279.847,462.612C279.419,464.188 279.602,465.156 279.005,467.333C278.288,469.948 278.504,469.986 277.818,472.606C277.715,472.999 277.883,473.031 276.824,477.587C276.634,478.404 276.659,479.676 276.176,481.386C275.396,484.149 275.396,485.734 275.009,487.373C274.533,489.388 274.451,489.35 274.149,491.393C273.776,493.919 273.544,493.861 273.149,496.384C273.096,496.727 273.173,497.083 273.107,497.424C272.9,498.486 272.774,498.443 272.625,499.51C272.534,500.164 272.372,500.81 272.324,501.468C272.299,501.809 272.463,502.153 272.409,502.49C272.32,503.045 272.115,502.954 271.998,503.5C271.886,504.021 272.083,504.017 271.972,504.535L270.581,506.203C270.95,506.692 271.514,507.011 271.882,507.5C272.305,508.061 272.576,510.249 272.607,510.493C272.741,511.576 272.879,511.527 273.114,512.581C273.189,512.916 273.137,513.269 273.186,513.609C273.245,514.012 273.719,517.25 274.013,518.626C275.172,524.057 275.656,528.49 277.006,534.619C277.234,535.655 277.43,537.271 277.458,537.502C277.708,539.563 277.756,539.538 278.25,541.565C278.4,542.181 278.645,544.995 278.736,545.429C280.635,554.562 280.31,554.949 280.694,556.432C281.456,559.375 281.209,559.406 281.809,562.392C282.186,564.267 282.765,563.992 282.864,564.478C282.912,564.711 282.311,564.671 282.688,567.439C282.865,568.74 283.762,569.48 283.763,569.482C283.809,569.597 283.365,572.853 283.994,574.407C284.165,574.829 284.644,575.072 284.828,575.488C284.965,575.798 284.757,576.203 284.921,576.499C285.152,576.916 285.712,577.083 285.943,577.5C285.944,579.487 285.943,579.471 285.971,581.462C285.711,581.885 285.097,582.003 284.837,582.425C284.754,582.562 284.838,582.567 284.847,584.426C285.185,590.02 284.894,590.022 284.989,590.498C285.066,590.879 285.513,591.117 285.589,591.498C285.62,592.178 285.764,592.155 285.724,594.452C285.685,596.624 286.408,598.339 286.451,598.519L286.921,600.448C286.956,600.791 286.909,601.141 286.968,601.48C287.031,601.839 287.22,602.168 287.282,602.527C287.495,603.668 287.251,606.187 289.879,609.188C290.363,609.74 290.297,609.765 290.721,610.374C290.818,610.513 291.005,610.58 291.088,610.729C291.239,610.996 292.324,613.312 292.429,613.538C292.576,613.851 293.329,615.46 294.973,617.03C296.546,618.531 296.457,618.593 297.756,620.337C299.1,622.139 299.762,621.659 300.292,621.921C300.453,622.001 300.487,622.229 300.619,622.352C301.497,623.167 301.706,623.268 301.223,624.357C300.78,625.356 296.195,626.976 300.804,630.024C304.205,632.274 302.57,633.311 303.823,636.36C305.674,640.867 309.351,641.286 309.905,638.601C309.976,638.255 309.936,637.895 309.983,637.545C310.032,637.177 310.198,636.822 310.192,636.451C310.188,636.135 309.939,635.85 309.955,635.535C309.973,635.176 310.258,634.867 310.291,634.508C310.33,634.096 309.333,630.77 312.552,632.366C314.662,633.412 315.337,634.884 317.568,636.392C317.954,636.653 317.946,636.661 322.304,639.778C323.281,640.477 326.017,644.45 326.519,646.496C327.129,648.987 327.167,648.958 327.597,651.485C328.172,654.869 330.512,655.587 328.655,659.575C326.042,665.185 328.63,665.62 328.408,669.491C328.295,671.448 328.303,671.454 328.972,673.305C329.98,676.093 328.941,678.457 330.738,680.262C331.301,680.828 333.699,681.299 335.196,683.685C335.529,684.214 335.096,684.858 339.707,687.085C341.981,688.183 342.137,687.619 344.549,688.343C345.608,688.66 347.753,688.788 348.341,688.983C349.911,689.504 349.869,689.827 351.518,689.633C353.224,689.433 353.424,689.163 354.604,690.398C357.228,693.144 361.021,691.799 365.272,694.918C367.135,696.285 368.146,693.914 369.391,693.3C370.926,692.543 371.02,692.604 372.622,693.217C375.654,694.377 374.422,696.492 374.803,697.406C374.857,697.535 375.094,697.501 375.16,697.624C375.589,698.427 375.324,698.53 375.824,699.301C376.621,700.532 377.118,701.804 378.597,703.413C379.483,704.376 379.466,704.375 379.548,704.453C380.369,705.24 381.919,706.115 382.867,707.206C383.397,707.815 383.284,707.874 383.665,708.386C384.034,708.883 386.096,710.831 386.429,711.544C387.589,714.026 384.947,717.143 388.781,720.13C393.735,723.989 391.438,727.333 392.587,731.474C393.272,733.943 392.347,733.938 392.245,736.489C392.15,738.871 392.397,744.748 392.005,746.376C391.396,748.902 391.58,748.916 391.456,751.497C391.358,753.546 390.97,753.866 392.628,755.057C395.164,755.448 395.356,755.008 397.4,756.58C397.453,756.764 397.857,757.175 397.936,758.461C397.947,758.629 397.928,758.617 397.823,760.557C397.706,764.019 397.778,765.64 395.5,766.331C394.335,766.684 394.285,765.837 392.433,766.315C391.604,766.529 391.559,766.635 391.538,767.506C391.474,770.071 391.579,784.06 391.589,785.5C391.648,793.335 392.474,793.354 392.497,793.5C392.547,793.817 392.218,793.804 392.254,797.503C392.38,810.666 392.093,810.704 392.848,813.358C393.704,816.368 393.349,820.311 393.92,822.459C394.194,823.488 394.277,823.452 394.447,824.508C394.836,826.94 395.229,826.911 395.372,829.507C395.478,831.434 395.557,831.403 395.983,833.288C396.126,833.919 395.799,834.012 396.233,834.5C396.913,835.266 397.274,834.74 397.945,835.495C398.04,836.006 397.78,836.053 398.331,837.567C399.018,839.452 398.911,839.469 398.948,841.495C398.715,841.89 398.204,842.069 397.971,842.465C397.644,843.021 397.955,845.949 398.22,846.5C398.4,846.874 398.8,847.113 398.98,847.488C398.751,849.666 398.803,850.135 398.828,850.364C398.992,851.853 399.857,852.373 399.911,852.478C399.551,854.454 399.34,854.463 399.757,856.416C400.077,857.914 400.07,858.478 400.092,858.5C400.576,859.009 401.464,858.99 401.949,859.5L401.95,864.501C401.16,865.299 400.8,864.712 400.02,865.5C399.713,865.811 399.981,865.885 399.867,866.605C399.443,869.293 399.878,869.301 399.803,869.523C399.669,869.922 399.177,870.117 399,870.5C398.842,870.84 398.914,871.245 398.835,871.612C398.501,873.16 398.436,873.13 397.802,874.595C397.676,874.887 397.589,875.194 397.501,875.5C397.132,876.784 397.304,877.297 397.277,877.481C396.708,881.347 394.357,881.584 392.394,883.371C391.061,884.584 390.94,884.417 389.609,885.615C389.067,886.102 387.379,888.426 387.376,888.433C386.85,889.498 386.684,889.639 387.445,890.555C387.606,890.749 389.298,891.503 389.463,891.577C391.121,892.316 391.058,892.584 392.506,893.491C392.898,893.736 396.922,896.257 397.334,896.665C397.509,896.838 397.548,897.117 397.717,897.295C397.878,897.464 398.144,897.509 398.3,897.683C398.47,897.872 398.499,898.161 398.666,898.353C398.816,898.525 399.074,898.577 399.227,898.748C399.395,898.936 399.435,899.217 399.606,899.403C399.765,899.575 400.029,899.624 400.192,899.793C400.363,899.97 400.414,900.243 400.586,900.419C400.746,900.584 401.011,900.622 401.165,900.792C401.338,900.984 401.403,901.251 401.536,901.473C402.315,902.777 402.677,902.672 403.976,904.005C404.504,904.547 404.448,904.577 404.945,905.152C406.101,906.492 407.026,906.652 407.255,906.824C407.421,906.95 407.473,907.191 407.638,907.318C407.853,907.483 408.151,907.514 408.365,907.678C408.527,907.802 408.582,908.033 408.741,908.162C408.954,908.333 409.237,908.398 409.458,908.559C409.816,908.823 409.731,908.909 410.527,909.471C411.7,910.3 411.35,910.601 412.316,911.667C413.348,912.806 413.174,912.904 413.85,914.298C413.995,914.598 414.009,914.584 416.432,917.557C417.727,919.147 419.014,919.355 420.534,920.461C421.587,921.228 423.187,924.403 423.061,926.491C422.833,930.265 421.402,930.029 421.273,935.496C421.194,938.876 419.672,939.621 418.576,941.546C416.592,945.029 411.672,948.663 411.361,949.431C410.103,952.534 413.701,950.331 417.749,954.243C425.136,961.384 423.884,963.269 426.313,966.63C427.062,967.665 427.094,967.637 427.156,967.729C427.235,967.845 427.165,968.551 429.814,971.19C431.703,973.072 435.918,976.133 437.624,983.472C438.261,986.21 438.733,986.445 441.54,987.373C443.053,987.873 442.994,987.963 444.43,988.632C448.155,990.367 450.2,997.827 451.901,1000.197C452.963,1001.676 453.163,1001.468 453.237,1001.604C453.357,1001.826 453.926,1005.15 453.979,1005.46C454.026,1013.835 453.793,1013.843 453.95,1014.553C454.026,1014.894 454.351,1015.145 454.426,1015.486C454.167,1015.868 453.727,1016.105 453.469,1016.487C453.268,1016.784 453.534,1016.908 451.614,1020.565C450.231,1023.2 449.537,1022.797 438.5,1022.797L298.5,1022.797C296.712,1022.8 292.806,1022.99 292.492,1022.505C291.953,1021.672 292.767,1020.919 292.868,1020.825C293.382,1020.35 293.537,1020.596 294.055,1020.115C297.634,1016.8 301.002,1005.938 301.244,1005.385C303.258,1000.783 303.513,1000.929 305.401,997.44C305.534,997.195 305.591,996.908 305.756,996.683C305.875,996.521 306.106,996.466 306.231,996.308C306.403,996.091 306.571,995.851 306.629,995.581C306.699,995.247 306.44,994.857 306.603,994.557C306.772,994.247 307.906,993.872 308.529,992.519C309.352,990.734 311.134,989.748 311.656,988.582C312.393,986.935 312.196,986.875 313.029,985.262C317.467,976.661 321.047,975.777 323.62,971.571C325.069,969.201 325.848,968.892 326.339,968.335C326.494,968.158 326.558,967.91 326.726,967.746C326.904,967.572 327.173,967.513 327.353,967.342C327.519,967.185 327.576,966.934 327.744,966.78C327.931,966.606 328.235,966.577 328.397,966.379C328.552,966.19 328.457,965.849 328.64,965.686C328.856,965.493 329.127,965.911 331.677,963.702C333.199,962.383 333.185,962.403 333.313,962.288C335.281,960.526 335.587,960.812 337.383,959.338C338.683,958.27 340.576,957.571 341.53,955.519C341.987,954.535 342.058,954.597 342.819,953.802C345.396,951.111 346.76,952.153 347.792,948.576C349.916,941.219 352.087,941.734 353.658,938.595C353.78,938.352 353.845,938.078 353.999,937.855C354.112,937.692 354.33,937.622 354.445,937.46C354.605,937.234 354.652,936.94 354.812,936.713C354.922,936.557 355.127,936.487 355.238,936.332C355.287,936.263 359.843,929.049 359.28,927.586C359.189,927.351 358.248,926.634 357.644,926.899C357.269,927.064 356.256,928.745 352.506,928.423C350.93,928.288 349.37,926.828 348.611,926.878C347.501,926.951 347.621,927.419 346.499,927.473C343.881,927.597 343.252,925.753 342.483,924.509C342.46,924.411 342.104,923.74 342.021,922.53C342.009,922.362 342.024,922.374 342.061,920.429C342.071,920.208 342.164,918.006 342.004,917.666C341.941,917.535 341.681,917.592 341.62,917.461C341.212,916.589 341.604,916.485 341.175,915.638C341.106,915.5 340.934,915.437 340.853,915.306C340.7,915.059 340.664,914.742 340.481,914.516C340.373,914.383 340.284,914.504 338.81,913.167C338.696,913.063 337.537,912.011 337.291,911.993C337.066,911.976 336.852,912.263 336.642,912.182C336.466,912.114 336.572,911.778 336.426,911.659C336.275,911.535 332.312,910.623 335.757,906.713C335.897,906.554 336.141,906.504 336.265,906.332C336.517,905.98 336.587,905.606 336.6,905.538C336.697,905.021 336.509,905.029 336.606,904.515C336.758,903.952 336.852,904.004 337.006,903.434C337.048,903.279 337.041,903.29 337.478,901.49C338.736,896.719 341.642,892.502 341.845,891.642C342.029,890.863 341.854,889.714 342.627,887.561C343.34,885.576 341.987,884.629 346.257,881.173C349.619,878.451 354.499,877.162 356.337,876.159C357.562,875.49 362.799,873.732 363.52,873.611C367.111,873.009 368.081,873.574 369.482,873.404C369.949,873.347 369.936,873.336 372.5,872.849C373.025,872.891 372.978,872.594 373.5,872.636C374.086,872.682 373.995,872.985 374.573,873.014C374.897,873.03 375.183,872.769 375.505,872.737C375.866,872.701 376.23,872.845 376.592,872.813C376.912,872.785 377.225,872.682 377.522,872.559C377.905,872.4 378.223,872.095 378.62,871.973C378.941,871.873 379.298,871.974 379.628,871.907C381.664,871.492 383.957,870.018 385.781,872.273C387.441,874.326 389.892,875.407 387.413,878.407C385.946,880.183 386.607,880.484 387.109,881.763C385.982,884.303 385.852,884.236 385.782,884.467C385.503,885.399 386.571,885.264 386.665,885.252C387.209,885.183 387.452,884.889 387.5,884.831C388.09,884.119 387.753,883.937 388.348,883.219C388.548,883.035 388.454,882.984 388.669,882.786C389.141,882.353 389.207,882.451 389.234,882.404C389.623,881.745 389.016,880.907 390.191,879.325C391.427,877.66 391.175,877.536 391.395,875.475C391.786,871.801 394.207,872.439 395.553,871.571C396.39,871.031 396.622,868.719 396.468,868.493C396.129,867.999 395.386,867.884 395.047,867.389C395.964,864.696 396.027,864.715 396.062,864.47C396.095,864.235 395.899,864.236 396.069,861.496C396.079,861.336 395.966,861.344 395.964,859.5C395.963,858.522 396.105,858.509 395.684,857.419C395.598,857.194 394.973,855.575 394.952,854.498C394.934,853.537 395.089,853.521 394.657,852.432C393.734,850.1 394.036,850.039 394.04,847.526C394.273,847.124 394.811,846.962 395.044,846.561C395.087,846.488 395.473,844.727 394.5,844.171C394.035,843.905 393.403,843.897 393.038,843.505C392.809,843.259 393.174,842.747 392.945,842.502C392.896,842.154 392.956,841.797 392.908,841.45C392.702,839.97 391.95,839.759 391.935,837.5C391.921,835.497 391.949,835.485 391.282,833.595C390.516,831.425 391.423,829.675 390.666,827.429C390.532,827.03 389.398,823.666 388.973,822.456C389.282,822.069 388.704,821.942 389.015,821.553C389.608,820.808 389.949,821.234 390.535,820.496C390.834,820.119 390.556,818.649 390.526,818.491C390.007,815.75 390.234,815.729 390.15,815.503C390.007,815.119 389.54,814.9 389.433,814.505C389.342,814.169 389.587,813.823 389.603,813.476C389.671,811.947 389.161,811.985 389.149,808.501C389.076,788.241 389.009,788.26 389.037,786.5L389.037,771.5L389.024,770.5L388.912,769.5L387.034,768.498C387.11,806.901 387.1,807.139 386.954,810.496C386.93,765.762 387.059,765.722 386.657,764.436C386.565,764.141 386.403,763.872 386.303,763.58C385.21,760.379 386.877,752.887 385.285,749.607C383.454,745.838 383.963,745.68 383.95,741.501C383.948,740.684 384.151,738.075 383.284,736.615C383.15,736.388 382.569,734.505 379.441,735.083C376.539,735.619 376.338,739.024 372.423,737.687C369.811,736.796 370.027,736.24 369.952,733.493C369.853,729.911 367.87,728.765 367.343,727.581C366.839,726.45 367.199,725.704 365.257,723.742C362.41,720.866 360.86,720.019 360.946,717.496C361.121,712.379 360.763,712.218 361.476,711.476C361.821,711.118 364.097,710.976 364.536,710.535C365.501,709.563 364.658,708.586 364.549,708.46C363.412,707.142 360.074,707.149 358.606,706.298C357.033,705.386 357.329,705.021 355.819,704.001C354.164,702.882 353.976,702.34 352.562,702.093C352.507,702.083 351.586,702.1 350.421,701.697C348.891,701.169 348.903,701.145 348.558,701.092C346.612,700.791 346.632,700.729 346.463,700.714C346.188,700.689 345.922,700.843 345.646,700.846C345.422,700.849 345.15,700.582 344.985,700.733C344.713,700.981 345.219,703.898 344.688,705.575C344.595,705.87 344.429,706.138 344.325,706.43C343.645,708.343 344.26,709.648 342.608,710.668C342.216,710.91 341.796,711.106 341.401,711.346C340.212,712.07 340.648,712.791 338.394,714.334C336.583,715.574 336.699,716.005 334.496,716.041C327.72,716.152 327.699,715.856 325.394,714.707C322.883,713.456 322.94,713.292 320.438,712.923C320.102,712.874 317.501,712.49 316.985,710.449C316.873,710.007 317.168,706.026 316.661,704.435C315.955,702.218 316.205,702.09 314.779,700.272C314.27,699.623 313.876,698.362 312.257,696.744C310.196,694.684 308.463,694.433 307.454,693.548C307.255,693.373 307.176,693.094 307.001,692.895C306.575,692.407 305.525,691.997 305.385,691.943C304.255,691.502 304.249,691.524 303.271,690.787C302.252,690.02 299.49,689.623 297.724,688.225C295.466,686.44 295.213,687.023 291.492,686.961C288.92,686.918 289.072,685.979 286.496,685.95C281.251,685.892 281.177,686.281 278.573,685.323C277.862,685.062 275.685,684.866 274.327,682.606C273.407,681.076 273.48,681.028 272.255,679.732C270.402,677.771 271.334,677.229 270.211,675.732C268.067,672.873 269.19,672.249 267.214,669.733C266.367,668.654 266.42,668.629 265.916,667.364C265.209,665.59 263.578,665.686 262.329,663.605C261.579,662.358 261.795,662.179 260.609,661.339C259.463,660.527 259.469,660.531 258.662,659.391C257.465,657.699 256.678,658.321 255.94,656.391C255.361,654.878 255.407,654.873 254.697,653.402C253.287,650.48 254.393,649.676 253.675,647.43C253.581,647.135 253.414,646.867 253.312,646.575C252.339,643.78 253.926,641.179 254.02,640.459C254.106,639.792 254.018,639.112 254.083,638.443C254.204,637.18 256.103,633.382 256.038,631.493C255.969,629.494 255.997,629.511 255.948,627.494C255.87,624.246 254.416,624.271 255.311,621.425C255.404,621.13 255.569,620.861 255.673,620.569C256.46,618.354 255.517,616.414 256.781,614.727C257.628,613.597 257.592,613.587 258.328,612.39C259.021,611.265 260.488,610.824 261.267,610.215C262.701,609.096 262.769,609.195 264.559,608.913C265.463,608.771 267.015,608.056 267.541,607.989C269.319,607.762 269.565,608.403 271.722,606.777C274.602,604.607 280.852,608.34 279.902,601.448C279.795,600.675 279.04,598.89 278.984,598.459C278.898,597.793 278.976,597.114 278.905,596.446C278.739,594.862 278.185,595.02 277.985,593.459C277.9,592.793 277.977,592.113 277.908,591.446C277.77,590.121 276.997,589.79 276.954,587.496C276.916,585.489 276.958,585.487 276.304,583.579C275.585,581.481 276.258,580.316 275.664,578.434C275.571,578.139 275.411,577.869 275.31,577.576C274.833,576.188 274.999,575.769 274.951,575.489C275.255,575.074 274.707,574.954 275.012,574.538C275.529,573.832 275.89,574.252 276.39,573.525C276.493,573.376 276.233,571.709 276.209,571.552C275.905,569.593 275.73,569.651 275.707,569.482C275.572,568.461 275.875,568.45 275.643,567.451C275.017,564.753 275.104,564.737 275.045,564.504C274.953,564.147 274.687,563.846 274.621,563.483C274.541,563.036 274.823,563.019 274.466,561.512C273.821,558.79 274.087,558.764 274.024,558.531C273.924,558.163 273.627,557.864 273.544,557.491C273.327,556.515 273.687,556.483 273.378,555.531C273.252,555.143 273.006,554.798 272.896,554.406C272.805,554.083 272.848,553.735 272.78,553.407C272.413,551.636 271.856,550.504 271.827,550.409C271.82,550.387 271.746,549.539 271.305,548.577C269.309,544.23 265.145,539.446 264.545,538.47C264.157,537.84 259.591,531.937 258.575,530.446C256.838,527.896 256.22,528.74 254.337,529.008C254.026,529.063 251.88,529.903 249.864,528.204C249.75,528.108 249.38,526.804 249.422,526.489C249.545,525.568 251.114,525.164 250.242,522.572C249.498,520.358 249.002,520.353 248.858,520.19C248.69,520 248.624,519.732 248.448,519.549C248.286,519.379 248.029,519.322 247.864,519.155C247.692,518.979 247.631,518.714 247.459,518.54C247.292,518.37 247.034,518.311 246.867,518.143C246.596,517.87 245.39,516.126 242.249,513.879C240.868,512.89 240.983,512.787 240.289,511.603C240.214,511.473 240.041,511.413 239.979,511.277C239.895,511.09 239.447,509.285 239.608,508.523C239.663,508.261 240.497,506.893 240.621,506.821C240.905,506.656 241.285,506.894 241.607,506.831C242.233,506.708 242.815,506.416 243.435,506.267C245.742,505.709 246.928,506.698 247.16,506.891C247.327,507.03 247.441,507.227 247.614,507.358C248.48,508.015 250.68,508.533 252.586,507.659C253.621,507.184 254.292,505.502 254.344,505.358C254.636,504.55 254.658,504.387 255.496,504.462C256.822,504.581 256.695,506.072 256.759,506.177C256.919,506.437 257.311,506.494 257.471,506.755C257.833,506.755 258.127,506.376 258.489,506.376L260.34,507.474C260.217,507.799 259.02,510.96 258.94,511.586C258.902,511.878 259.254,512.146 259.19,512.434C259.099,512.845 258.648,513.103 258.514,513.503C258.422,513.78 258.492,514.421 258.501,514.5C258.554,514.983 258.673,514.942 258.727,515.435C258.857,516.977 258.889,516.96 258.873,518.513L258.939,520.449C259.018,520.822 259.24,521.156 259.317,521.529C259.46,522.218 259.764,527.611 263.229,531.729C263.392,531.923 263.485,532.174 263.665,532.354C263.819,532.507 264.086,532.531 264.211,532.709C264.533,533.169 264.655,533.747 264.967,534.213C265.074,534.373 265.323,534.39 265.44,534.541C265.606,534.757 265.634,535.056 265.788,535.28C265.914,535.466 266.083,535.327 267.571,537.45C270.468,541.585 270.98,541.254 273.523,546.484C274.684,548.871 276.093,546.903 276.072,546.355C275.982,543.959 275.229,542.451 274.965,540.479C274.276,535.332 273.415,532.301 273.19,530.519C273.148,530.188 273.177,529.845 273.088,529.523C272.985,529.154 272.703,528.848 272.619,528.474C272.585,528.321 272.777,528.306 272.429,526.518C272.03,524.475 272.186,524.46 271.691,522.437C271.219,520.513 271.52,520.472 271.075,518.544C270.987,518.163 270.67,517.86 270.58,517.48C270.525,517.247 270.621,517.24 270.3,514.508C270.115,512.934 270.116,512.947 269.692,511.43C268.713,507.928 270.344,505.822 267.477,505.632C266.886,505.592 266.898,505.609 261.51,505.551L259.415,504.507C259.481,503.213 259.1,503.116 260.592,499.54C261.698,496.888 265.479,492.546 266.766,484.598C266.819,484.27 266.783,483.928 266.865,483.605C267.133,482.543 267.262,482.587 267.429,481.494C267.839,478.808 267.789,478.804 267.839,478.574C267.922,478.194 268.159,477.86 268.257,477.483C268.547,476.364 268.747,474.825 268.777,474.591C268.821,474.252 268.749,473.899 268.823,473.565C268.908,473.188 269.146,472.859 269.247,472.485C269.484,471.604 269.777,469.836 269.815,469.604C269.872,469.262 269.795,468.905 269.866,468.566C269.918,468.322 270.017,468.368 270.624,465.537C270.973,463.914 270.751,463.91 270.82,463.541C270.866,463.297 270.975,463.33 271.625,460.545C271.935,459.22 271.808,458.678 271.835,458.539C271.867,458.37 271.992,458.407 272.417,456.477C272.485,456.168 272.608,455.869 272.65,455.556C272.695,455.22 272.6,454.87 272.676,454.539C272.763,454.166 273.027,453.853 273.13,453.484C273.173,453.33 273.406,451.641 273.428,451.481C273.472,451.157 273.426,450.818 273.525,450.507C273.795,449.659 274.038,449.738 274.146,448.46C274.194,447.89 274.516,445.622 274.414,445.476C274.084,445.001 273.337,444.936 273.006,444.462C273.066,438.89 273.158,438.896 273.299,438.421C273.716,437.009 273.761,436.983 273.301,435.578C272.495,433.119 273.62,432.264 271.732,430.279C269.754,428.201 270.234,427.829 268.256,425.732C266.414,423.778 267.324,423.221 266.21,421.735C262.157,416.328 263.239,414.195 262.668,412.433C262.441,411.733 261.98,411.362 261.956,409.496C261.922,406.974 262.107,406.948 261.301,404.581C260.602,402.529 261.252,401.277 260.661,399.435C260.567,399.141 260.402,398.873 260.302,398.58C259.619,396.577 260.319,396.45 259.664,394.434C259.042,392.516 258.98,392.522 259.027,390.5C259.148,385.371 258.462,385.283 259.656,381.563C260.017,380.438 259.954,380.422 259.954,366.5C259.954,350.41 259.951,350.389 259.653,349.438C259.56,349.143 259.395,348.875 259.297,348.583C258.851,347.261 258.997,347.235 258.936,322.5C258.927,318.867 259.065,318.831 258.301,316.581C257.858,315.275 257.998,315.25 257.937,290.5C257.926,285.984 258.109,285.949 257.303,283.58C256.669,281.715 257.012,281.651 256.936,258.5C256.927,255.917 257.082,255.896 256.3,253.582C255.701,251.811 256.033,251.748 256.057,214.485C256.041,214.166 256.074,214.173 255.963,210.494C256.239,210.054 255.794,209.961 256.072,209.517C256.495,208.843 256.81,209.167 257.213,208.502C257.359,208.261 257.497,197.986 257.192,197.503C256.922,197.076 256.238,196.969 256.061,196.497C255.827,195.873 256.065,195.166 256.068,194.501C256.079,192.117 256.1,190.52 256.1,190.512C256.097,190.463 255.957,190.541 255.954,190.492C255.909,190.145 255.964,189.789 255.919,189.442C255.899,189.286 255.875,189.304 255.324,187.57C255.591,187.058 254.826,187.07 255.095,186.554C255.501,185.775 256.061,186.325 256.402,185.502C256.525,185.207 256.371,185.191 256.332,181.501C256.322,180.62 256.219,170.907 256.014,170.499C255.807,170.087 255.254,169.916 255.055,169.5C254.911,169.199 255.055,168.833 255.055,168.5C255.055,159.33 255.141,159.334 255.076,158.54C255.07,158.475 254.909,158.51 254.904,158.445C254.147,156.025 253.966,156.048 254.05,153.501C254.265,146.992 254.181,147.014 253.955,140.501C253.796,135.889 254.739,135.372 252.836,134.013C251.961,133.387 251.736,133.58 251.339,132.578C251.208,132.249 251.23,131.872 251.1,131.542L251.118,129.426C251.322,128.34 252.108,128.078 252.145,128.028C252.769,128.402 252.527,128.66 253.149,129.034C253.22,129.077 253.729,129.383 254.173,129.247C254.429,129.168 254.437,128.775 254.623,128.582C254.74,128.46 254.981,128.475 255.059,128.326C255.397,127.684 255.013,127.394 255.284,124.485C255.542,121.726 255.238,121.717 255.3,121.485C255.418,121.05 256.011,120.874 256.177,120.454C256.458,119.745 254.549,118.525 255.269,116.376C255.771,114.879 258.381,115.184 258.441,115.172C261.37,114.582 263.417,109.425 263.124,108.56C262.329,106.212 260.308,108.161 255.436,106.701C253.774,106.203 251.353,106.327 250.514,106.286C247.959,106.16 248.069,105.42 245.501,105.405C244.834,105.401 244.168,105.445 243.501,105.437C241.88,105.416 240.667,104.801 239.485,104.595C233.976,103.633 234.107,103.065 228.561,102.308C226.981,102.092 227.056,101.808 225.49,101.575C222.792,101.173 222.807,101.196 222.578,101.144C222.195,101.057 221.854,100.832 221.473,100.736C219.551,100.25 219.514,100.511 217.581,100.073C213.933,99.248 214.046,98.417 210.455,97.592C208.103,97.051 206.904,96.156 204.549,95.357C201.642,94.372 201.713,94.236 198.428,92.629C195.282,91.091 195.696,90.369 193.48,89.552C192.352,89.137 191.536,89.182 191.492,89.167C191.113,89.034 190.828,88.707 190.466,88.532C190.274,88.439 190.039,88.462 189.847,88.369C189.059,86.625 189.162,86.559 187.834,85.171C187.72,85.052 186.901,84.195 186.319,83.775C185.49,83.175 182.584,82.354 180.67,80.351C179.203,78.814 179.036,79.041 177.262,77.881C170.715,73.6 170.555,73.919 163.593,70.322C160.586,68.769 160.281,67.915 156.53,65.436C152.707,62.911 152.722,62.896 152.384,62.686C151.536,62.159 149.381,61.514 146.422,59.613C145.135,58.786 145.035,59 143.739,58.191C135.692,53.169 133.974,51.492 133.238,50.773C130.953,48.543 130.74,48.814 128.28,46.765C126.343,45.151 126.07,45.504 124.307,43.688C119.73,38.974 118.572,39.011 116.768,37.221C114.924,35.391 114.859,35.467 114.702,35.305C114.53,35.126 114.49,34.847 114.32,34.666C114.163,34.501 113.891,34.469 113.746,34.294C113.574,34.088 113.6,33.748 113.404,33.565C113.234,33.406 112.87,33.546 112.738,33.354C112.56,33.093 112.721,32.711 112.614,32.413C112.359,31.704 111.654,31.474 111.544,31.438C111.247,31.342 110.872,31.496 110.616,31.317C110.422,31.181 110.559,30.816 110.402,30.638C110.225,30.438 109.893,30.444 109.689,30.271C109.518,30.125 109.47,29.872 109.31,29.713C109.132,29.535 108.884,29.444 108.694,29.279C107.225,28.003 107.303,27.929 107.175,27.819C106.995,27.663 106.716,27.632 106.563,27.449C106.384,27.233 106.383,26.91 106.226,26.676C106.123,26.522 105.903,26.471 105.804,26.315C105.729,26.198 105.897,26.139 105.074,24.746C103.116,21.432 100.763,16.291 100.375,15.564C99.361,13.667 96.867,11.913 95.828,9.275C94.848,6.787 94.943,6.745 93.462,4.526C91.468,2.866 91.788,2.583 91.5,0ZM570.371,210.089C570.769,209.922 571.209,209.872 571.607,209.706C573.196,209.042 572.427,207.78 572.336,207.629C571.115,205.625 565.909,208.437 565.941,209.535C565.973,210.634 566.49,210.197 567.576,210.293C568.993,210.419 568.973,210.322 570.371,210.089ZM742.67,147.019C744.208,147.507 744.225,147.42 745.697,148.059C748.904,149.453 748.868,147.117 747.78,146.233C746.854,145.481 746.643,145.835 744.336,144.881C742.878,144.278 742.878,143.93 741.366,144.353C739.885,144.767 741.496,146.276 741.616,146.388C741.914,146.668 742.371,146.739 742.67,147.019ZM590.968,218.058C590.91,218.555 590.644,219.012 590.586,219.509C590.545,219.862 590.665,220.447 590.681,220.527C590.801,221.114 590.904,221.066 591.026,221.661C591.897,221.175 591.517,220.752 592.377,220.273C592.75,220.065 592.766,220.29 593.486,220.291C593.643,220.291 595.244,220.293 595.444,220.214C597.301,219.489 597.006,216.902 596.456,216.564C595.661,216.076 593.969,217.55 593.578,217.657C593.23,217.752 592.855,217.696 592.502,217.773C592.26,217.826 592.054,217.997 591.811,218.042C591.535,218.093 591.244,218.007 590.968,218.058ZM832.547,177.5C832.263,177.131 832.635,177.009 832.349,176.637C832.304,176.579 832.038,176.234 831.546,176.2C831.401,176.19 830.15,176.102 830.32,177.539C830.353,177.82 831.126,178.505 831.5,178.507C831.79,178.508 832.012,178.169 832.302,178.17L832.547,177.5ZM832.508,207.525C832.952,207.309 832.987,207.455 833.419,207.243C833.514,207.197 834.365,206.781 834.541,206.533C835.326,205.422 834.446,204.872 834.328,204.798C834.128,204.674 833.746,204.435 831.432,205.285C829.003,206.178 829.581,207.99 831.547,207.808C831.88,207.778 832.176,207.556 832.508,207.525ZM337.46,695.56C337.128,695.53 336.862,695.222 336.53,695.191C335.237,695.074 334.935,695.3 335.105,696.601C335.158,697.005 336.503,698.076 337.662,697.801C337.936,697.737 338.38,696.869 338.255,696.558C338.096,696.163 337.618,695.955 337.46,695.56ZM392,756.5L391.206,756.5C390.649,758.143 389.784,758.865 391.487,759.176C392.184,759.304 392.887,758.013 392.801,757.692C392.677,757.23 392.124,756.962 392,756.5ZM254.5,527.238C254.834,526.695 255.649,526.574 255.983,526.031C256.054,525.917 255.492,524.944 255.331,524.926C254.2,524.801 253.954,525.577 253.915,525.7C253.724,526.304 253.796,526.494 253.82,526.559C254,527.03 254.319,526.762 254.5,527.238ZM763.743,156.308C764.083,156.589 764.323,156.978 764.663,157.259C765.914,158.293 768.132,157.698 766.373,155.592C765.294,154.3 762.286,152.429 761.784,153.618C761.451,154.41 762.506,155.282 762.626,155.382C762.889,155.599 762.966,155.428 763.228,155.646C763.56,155.921 763.41,156.032 763.743,156.308ZM825.657,203.461C825.792,203.712 825.771,204.028 825.906,204.279C825.99,204.433 826.969,206.253 828.099,204.315C828.632,203.4 827.845,201.565 827.586,201.378C827.476,201.298 826.646,200.696 825.943,201.826C825.711,202.199 825.665,202.459 825.655,202.518C825.571,202.999 825.74,202.99 825.657,203.461ZM304.45,687.204C304.784,687.969 304.7,687.989 305.031,688.748C305.513,689.85 306.001,689.715 306.167,689.88C308.675,688.585 308.738,688.692 308.866,688.486C309.054,688.184 308.724,687.781 308.569,687.46C308.181,686.654 306.38,686.509 305.514,686.752C305.143,686.856 304.821,687.1 304.45,687.204ZM810.543,169.022C812.021,169.305 812.025,169.247 813.452,169.722C813.671,169.795 815.7,170.47 816.305,170.096C816.451,170.005 816.631,168.78 816.476,168.512C815.604,167.002 811.406,165.834 806.311,162.831C801.888,160.224 796.414,158.691 795.516,158.439C793.777,157.952 788.869,156.091 785.528,155.287C784.811,155.115 782.99,154.458 778.495,153.262C777.438,152.98 771.03,150.011 766.579,149.311C766.347,149.274 763.728,148.862 763.887,150.454C763.961,151.192 765.352,151.437 765.502,151.463C765.713,151.5 767.713,151.852 768.128,151.988C768.294,152.042 768.405,152.215 768.572,152.268C769.988,152.715 770.053,152.441 772.534,153.435C773.763,153.927 776.36,155.295 781.351,156.849C790.048,159.556 789.636,160.526 798.551,164.389C802.204,165.971 803.446,167.647 810.543,169.022ZM300.604,146.513L301.5,147.077C301.88,147.226 302.164,147.566 302.544,147.715C302.722,147.785 302.963,147.601 303.119,147.712C303.263,147.816 302.959,148.088 304.582,149.379C304.721,149.49 305.438,150.061 306.487,150.513C306.677,150.595 306.909,150.592 307.073,150.718C307.596,151.118 307.42,151.322 308.733,152.112C312.636,154.459 313.821,155.665 315.445,156.584C316.796,157.349 316.656,157.522 317.663,158.249C320.045,159.969 320.083,159.907 321.083,160.829C323.921,163.445 323.766,163.635 325.497,164.521C327.04,165.31 327.53,166.181 327.66,166.283C327.802,166.394 327.851,166.301 329.655,167.325C330.928,168.047 330.985,167.911 331.091,167.979C331.226,168.066 331.164,168.131 332.707,169.172C336.072,171.443 335.1,172.477 338.341,174.929C339.898,176.106 340.013,176.858 344.051,179.918C344.73,180.432 344.679,180.603 345.515,180.59C345.788,180.585 346.025,180.354 346.298,180.35C346.296,180.034 346.692,179.803 346.691,179.487C346.687,178.618 344.579,177.743 341.839,175.176C338.085,171.659 337.976,171.753 336.483,169.508C335.554,168.111 335.451,168.208 333.355,166.717C332.389,166.029 332.339,166.149 330.502,165.419L328.701,164.204C328.259,163.857 327.576,163.932 327.135,163.585C326.88,163.385 327.442,162.906 324.484,160.52C321.714,158.286 322.012,157.913 319.515,156.476C317.644,155.399 317.887,155.057 316.595,154.354C314.178,153.039 313.15,151.882 309.415,149.645C308.435,149.058 308.551,148.91 307.558,148.364C307.321,148.234 307.248,148.367 305.71,147.204C304.58,146.349 304.71,146.174 303.417,145.633C303.089,145.496 302.682,145.763 302.352,145.633C301.803,145.416 302.025,145.133 301.5,144.875C300.963,144.612 300.89,144.917 300.354,144.654L300.604,146.513ZM451.497,231.527C451.761,231.871 451.518,231.964 451.776,232.301C451.873,232.427 452.139,232.336 452.222,232.473C452.405,232.777 452.317,233.197 452.501,233.501C455.389,232.375 457.203,232.562 458.38,232.156C459.9,231.631 459.88,231.605 461.5,231.49C463.855,231.324 464.107,230.869 465.534,230.649C472.065,229.642 472.021,229.454 474.588,228.758C474.891,228.676 476.956,228.419 477.43,228.282C483.308,226.576 484.541,226.084 490.601,223.749C493.111,222.783 493.002,222.531 495.583,221.783C497.176,221.321 499.061,220.341 499.351,220.19C499.763,219.976 499.83,220.137 504.707,217.943C507.658,216.616 510.422,216.2 513.667,213.585C513.807,213.473 514.133,213.48 514.125,213.301C514.109,212.957 513.763,212.713 513.614,212.403C513.531,212.23 513.609,211.929 513.431,211.857C512.849,211.62 510.161,213.21 507.405,214.259C503.847,215.613 503.94,215.807 500.383,217.174C497.122,218.427 497.271,218.739 495.427,219.349C491.383,220.687 481.135,225.573 474.499,226.486C472.847,226.713 472.919,227.107 470.497,227.465C468.871,227.705 468.902,227.763 467.328,228.162C466.938,228.261 466.888,227.988 462.388,229.102C461.655,229.284 459.62,229.304 458.56,229.637C457.045,230.113 457.083,230.212 455.492,230.363C455.16,230.395 454.147,230.491 451.497,231.527ZM271.333,419.965C271.802,421.3 271.83,421.273 272.51,422.527L273.343,422.331C273.344,422.286 273.71,421.542 273.379,420.515C273.266,420.164 273.031,419.86 272.918,419.509C272.849,419.279 272.076,416.706 272.051,416.633C270.577,412.195 270.333,409.67 270.059,408.667C268.095,401.455 265.647,387.912 265.238,387.749C264.933,387.628 264.567,387.845 264.294,388.026C263.431,388.596 264.123,391.332 264.194,391.61C264.817,394.071 264.533,394.109 265.082,396.584C265.751,399.6 265.45,399.637 266.167,402.633C267.168,406.809 267.781,414.173 270.783,419.259C270.934,419.516 271.181,419.708 271.333,419.965ZM581.505,176.391C582.594,175.964 582.656,176.154 586.433,174.307C599.34,167.994 601.468,167.6 603.272,166.222C604.971,164.924 605.046,165.051 606.762,163.783C609.436,161.806 616.814,157.71 617.386,157.33C621.643,154.502 626.065,152.944 628.253,151.204C630.231,149.632 630.513,150.145 632.684,148.828C634.447,147.758 634.433,147.743 634.587,147.652C637.389,145.985 642.476,147.663 646.391,146.219C647.702,145.736 650.252,144.834 650.618,144.644C651.909,143.973 651.262,142.863 651.182,142.725C650.814,142.092 648.778,141.439 648.552,141.367C648.248,141.269 647.908,141.291 647.615,141.163C647.468,141.098 645.848,140.391 646.496,139.5C646.968,138.852 649.475,137.99 649.75,137.895C654.059,136.413 654.109,136.591 654.48,136.456C656.896,135.579 656.979,135.987 659.439,135.313C661.921,134.634 661.95,134.921 664.526,134.914C667.404,134.907 667.236,133.867 669.393,133.896C672.41,133.938 673.963,133.98 675.584,134.299C676.206,134.421 682.589,135.677 683.506,134.506C684.345,133.436 683.433,132.909 683.317,132.842C682.916,132.61 682.896,132.716 680.491,132.553C678.585,132.423 675.87,131.765 674.495,131.651C669.568,131.242 667.757,131.829 667.201,132.009C664.435,132.905 664.389,132.604 661.491,132.631C659.217,132.652 658.412,133.172 657.451,133.342C656.812,133.455 656.158,133.48 655.524,133.619C655.354,133.657 655.387,133.754 653.454,134.307C646.363,136.336 646.577,137.254 643.591,138.723C642.044,139.484 642.066,139.482 636.72,142.849C627.639,148.569 627.509,148.351 626.744,148.885C623.796,150.946 623.645,150.669 621.758,151.866C620.232,152.834 606.185,160.602 600.377,164.305C600.006,164.542 580.045,174.626 580.306,175.405C580.47,175.896 581.341,175.9 581.505,176.391ZM642.646,141.969C643.089,141.971 643.065,141.864 643.498,141.866C643.566,141.866 643.926,141.868 644.338,141.977C644.487,142.017 645.904,142.393 645.512,143.504C645.404,143.81 645.214,144.35 641.534,144.321C639.468,144.305 640.618,142.689 640.637,142.672L642.646,141.969ZM279.547,567.417C279.146,567.716 278.049,567.154 278.298,569.522C278.372,570.228 279.035,572.307 279.067,572.526C279.438,575 279.306,575.009 279.868,577.441C279.943,577.763 279.863,577.77 280.465,581.524C281.486,584.482 281.482,584.489 281.497,584.485C281.963,584.372 282.122,583.71 282.218,583.24C282.335,582.674 282.101,578.889 282.077,578.511C281.922,576.006 281.433,574.997 281.236,573.516C281.028,571.956 280.902,569.78 279.547,567.417ZM279.105,451.621C279.182,451.016 279.415,451.105 279.492,450.499C279.562,449.944 279.326,449.973 279.385,449.412C279.409,449.188 279.85,449.265 280.17,443.514C280.362,440.073 279.322,434.724 279.273,434.623C277.509,430.98 277.824,435.56 277.834,435.704C277.931,437.115 278.09,437.074 278.095,437.195C278.1,437.325 277.967,437.435 277.968,437.566C277.971,437.834 278.093,438.09 278.107,438.358C278.192,440.042 277.806,443.201 277.755,443.62C277.43,445.563 277.359,445.534 277.207,447.499C277.06,449.402 277.577,449.298 277.563,449.457C277.542,449.674 277.2,449.557 276.743,451.703C276.537,452.193 276.06,452.868 275.739,454.553C275.543,455.583 273.459,466.511 273.241,467.415C271.313,475.389 269.65,488.201 267.172,493.337C263.8,500.327 262.433,501.59 263.37,502.618C263.627,502.9 267.257,502.874 267.595,502.872C267.887,502.61 268.605,503.156 269.199,501.432C269.25,501.285 269.124,501.281 269.542,499.513C270.242,496.556 269.955,496.509 270.692,493.558C271.316,491.059 271.97,487.924 272.073,487.433C273.027,482.858 273.05,482.867 273.12,482.467C273.932,477.851 274.024,477.873 274.089,477.471C274.579,474.434 275.818,469.175 275.927,468.562C277.915,457.374 278.854,456.238 279.105,451.621ZM266.515,501.951C266.288,501.665 265.788,501.701 265.562,501.416C264.617,500.226 266.341,499.561 266.5,499.5C266.727,499.412 267.762,500.313 267.696,500.52C267.508,501.109 266.703,501.361 266.515,501.951ZM577.59,177.674C577.482,177.778 577.465,177.954 577.357,178.058C576.8,178.595 576.765,178.529 576.231,179.114C572.483,183.224 570.992,182.06 570.461,183.479C569.202,186.847 573.351,184.792 573.591,184.673C576.86,183.053 578.131,180.658 579.386,178.488C579.27,178.347 578.995,178.424 578.879,178.283C578.68,178.041 578.79,177.554 578.507,177.421C578.22,177.285 577.877,177.809 577.59,177.674ZM279.265,565.407C279.372,561.911 279.118,561.936 278.465,558.502C278.358,557.938 278.172,555.572 277.857,554.321C277.594,553.274 277.005,549.588 276.387,549.696C275.101,549.923 275.101,550.195 275.113,551.5C275.131,553.45 275.867,553.329 276.281,557.521C276.533,560.079 276.947,559.994 277.169,562.483C277.189,562.703 277.395,565.005 277.704,565.199C277.811,565.266 277.819,565.214 279.265,565.407ZM547.479,207.532C547.709,207.615 550.09,208.47 550.439,208.293C551.549,207.734 551.223,206.737 551.177,206.596C550.876,205.675 550.415,205.916 549.476,203.513C549.403,203.325 548.833,201.867 547.503,201.946C547.342,201.955 546.189,202.023 546.181,203.462C546.179,203.677 546.549,206.207 546.62,206.455C546.846,207.248 547.465,207.514 547.479,207.532ZM276.406,145.478C276.31,145.797 276.333,146.144 276.238,146.463C275.469,149.032 275.265,149.083 275.551,149.459C276.533,150.75 278.342,148.693 278.506,148.507C279.323,147.579 279.574,144.381 280.97,140.614C281.733,138.556 281.346,138.482 281.782,136.658C281.881,136.248 282.939,131.829 282.576,131.443C281.789,130.603 280.806,131.617 280.7,131.726C280.331,132.106 279.495,134.52 279.383,135.491C279.269,136.481 279.654,138.07 278.894,139.688C278.215,141.136 278.349,141.18 277.679,142.62C277.207,143.632 277.132,143.573 276.684,144.577C276.491,145.012 276.603,145.035 276.406,145.478ZM260.912,171.494L260.881,174.391C260.707,174.833 260.121,175.027 259.946,175.47C259.887,175.62 259.976,175.611 259.997,177.49C260.089,185.963 259.743,185.943 259.753,194.421C259.753,194.592 259.757,198.627 261.058,196.11C261.72,194.828 261.727,190.022 264.386,180.47C264.563,179.835 264.417,179.805 266.389,172.477C266.808,170.922 266.697,170.914 267.181,169.387C267.403,168.688 267.256,168.663 269.356,160.472C270.214,157.125 270.169,156.928 270.101,156.621C269.912,155.778 268.657,155.524 268.504,155.492C268.011,155.392 268.012,155.52 267.539,155.399C266.979,155.255 267.048,155.119 266.5,154.979C265.51,154.968 265.53,154.949 264.555,154.958C263.876,154.964 263.196,154.863 262.519,154.909C262.155,154.934 261.82,155.162 261.455,155.169C261.174,155.174 260.92,154.985 260.641,154.944C258.13,154.578 259.748,158.565 259.876,160.501C259.92,161.167 259.769,161.872 259.993,162.501C260.148,162.935 260.808,163.061 260.948,163.5C260.988,163.625 260.918,170.855 260.912,171.494ZM259.984,144.497C260.719,142.908 260.672,142.89 260.778,142.782C260.882,142.673 261.516,142.018 262.531,142.085C264.021,142.185 264.975,145.319 265.775,146.269C266.974,147.692 267.173,147.514 267.218,147.668C267.29,147.909 267.144,148.166 267.117,148.417C267.094,148.628 267.188,148.877 267.067,149.052C266.927,149.256 266.631,149.289 266.423,149.425C264.972,150.37 264.873,150.189 263.458,149.978C261.827,149.736 261.403,150.018 260.968,148.441C260.937,148.328 261.306,148.099 259.984,144.497C259.752,144.887 259.226,145.04 258.994,145.429C258.904,145.58 258.774,147.104 258.857,147.446C258.949,147.824 259.301,148.128 259.323,148.516C259.343,148.854 259.009,149.134 258.975,149.471C258.952,149.697 259.221,151.973 259.843,152.164C259.922,152.188 267.548,152.588 267.56,152.585C267.812,152.528 268.008,152.325 268.214,152.168C270.12,150.723 270.563,152.135 271.51,151.51C271.977,151.203 272.205,149.62 272.229,149.447C272.455,147.88 272.847,147.018 272.891,146.436C272.956,145.562 272.451,145.384 273.471,143.48C273.981,142.527 274.232,142.606 274.258,141.53C274.265,141.216 274.137,140.91 274.145,140.596C274.39,140.041 274.487,140.114 274.729,139.568C274.872,139.244 274.735,139.214 274.898,138.892C274.996,138.699 275.216,138.587 275.321,138.397C275.375,138.301 276.225,135.934 276.365,135.456C277.072,133.043 275.193,133.336 274.712,133.721C274.682,133.746 273.983,134.854 273.629,135.571C273.519,135.795 272.326,138.215 272.267,138.385C272.178,138.641 272.231,138.932 272.142,139.187C272.097,139.367 271.951,139.511 271.907,139.691C271.563,141.072 271.63,141.072 271.129,142.421C270.348,144.523 270.602,144.594 270.317,145.247C270.26,145.378 269.683,146.7 268.744,146.095C268.575,145.986 268.573,145.726 268.442,145.572C268.302,145.407 268.061,145.335 267.944,145.152C267.813,144.948 268.075,144.821 266.6,142.433C264.547,139.11 263.917,139.7 262.668,138.332C262.552,138.205 261.469,137.018 261.407,136.593C261.395,136.506 261.541,136.53 261.503,135.5C261.48,134.883 261.345,134.919 261.323,134.313C261.877,133.853 261.781,133.727 263.62,132.71C265.95,131.421 268.412,131.375 267.243,128.622C266.634,127.189 266.23,127.123 266.942,125.739C267.718,124.232 269.398,125.066 269.593,125.163C269.916,125.323 269.908,125.335 273.551,127.329C273.817,127.705 274.354,127.829 274.62,128.205C274.69,128.304 275.506,130.267 275.581,130.447C275.7,130.733 275.6,131.196 275.881,131.326C276.106,131.43 276.209,130.899 276.452,130.85C276.678,130.803 276.888,131.144 277.109,131.075C277.204,131.046 278.114,129.879 277.341,128.612C277.214,128.402 276.989,128.268 276.842,128.073C276.184,127.198 276.106,127.292 275.357,126.496C275.14,126.131 275.52,125.396 273.198,123.941C272.868,123.734 271.144,123.357 267.285,118.671C268.868,116.861 269.621,116.949 269.047,115.728C268.994,115.615 268.574,114.722 267.503,115.507L266.358,117.904C265.497,117.573 263.419,115.97 261.918,118.709C261.13,120.147 261.136,120.147 261.071,120.237C259.198,122.809 261.581,123.277 262.021,124.645C262.121,124.958 261.879,125.317 261.98,125.629C261.724,125.835 261.738,126.274 261.482,126.479C261.106,126.782 260.593,126.86 260.167,127.088C258.719,127.861 259.658,128.381 259.194,131.434C258.923,133.222 259.031,134.422 259.026,134.792C259.032,135.012 258.835,135.207 258.841,135.428C258.868,136.45 259.256,136.363 259.293,137.402C259.302,137.648 259.195,137.629 259.07,140.465C259.025,141.488 258.612,143.066 258.918,143.545C259.175,143.947 259.727,144.096 259.984,144.497ZM264.24,130.193C263.975,130.228 263.744,130.409 263.48,130.445C262.138,130.624 261.786,129.654 261.732,129.505C261.552,129.01 263.285,127.659 264.175,129.503C264.276,129.711 264.14,129.985 264.24,130.193ZM263.764,123.298C263.702,123.023 263.581,122.764 263.519,122.489C262.878,119.644 265.516,119.825 265.684,120.313C266.055,121.393 265.924,121.423 265.493,122.495C265.391,122.748 265.431,123.099 265.214,123.265C265.121,123.335 265.112,123.267 263.764,123.298ZM530.445,203.732C530.466,203.726 531.371,203.64 532.373,203.157C533.251,202.734 542.456,197.981 547.513,195.523C548.541,195.023 550.084,193.913 555.631,190.824C560.321,188.212 564.964,184.571 565.341,184.243C566.118,183.567 566.066,183.494 566.421,183.422C566.72,183.36 567.114,183.695 567.334,183.483C567.625,183.203 566.896,180.61 564.52,181.548C563.01,182.144 563.404,182.723 560.522,184.535C560.184,184.748 560.314,184.91 556.429,187.391C546.733,193.582 542.2,195.713 533.772,199.94C531.499,201.081 530.85,201.464 530.603,201.61C530.003,202.015 530.104,202.107 529.512,202.506C529.203,202.715 529.148,202.577 528.856,202.789C528.716,202.891 527.381,204.457 527.343,204.558C527.262,204.775 527.668,204.993 527.586,205.21C528.126,205.022 528.287,205.449 529.501,204.545C530.011,204.165 529.94,204.109 530.445,203.732ZM712.483,137.531C713.165,137.709 713.21,137.511 714.675,138.102C714.814,138.158 715.474,138.424 716.5,138.53C720.152,138.91 720.12,139.054 723.673,140.026C725.042,140.401 725.019,140.421 726.388,140.802C729.176,141.577 729.595,140.955 730.21,140.981C730.223,140.981 731.446,141.379 731.554,141.414C732.156,141.61 734.902,143.312 735.517,143.439C737.204,143.788 739.542,141.876 739.633,141.55C740.276,139.24 737.025,139.765 734.508,139.375C731.742,138.948 731.752,138.9 731.512,138.865C729.395,138.553 728.677,138.964 726.553,138.322C723.523,137.407 723.428,137.86 721.526,137.183C721.152,137.05 720.805,136.845 720.426,136.726C719.886,136.556 717.236,136.376 716.61,136.22C715.062,135.834 715.081,135.805 713.502,135.554C712,135.141 712.008,135.151 711.88,135.108C711.688,135.043 711.546,134.87 711.356,134.802C710.878,134.63 708.728,134.484 708.498,134.469C708.132,134.807 708.531,135.004 708.169,135.339C708.116,135.388 707.594,135.87 707.291,135.583C706.922,135.234 707.247,134.465 706.879,134.116C706.472,134.015 706.532,133.805 705.434,133.758C701.869,133.607 701.868,133.756 701.563,133.7C701.169,133.627 700.864,133.294 700.483,133.17C700.282,133.105 700.054,133.198 699.85,133.141C699.665,133.09 699.535,132.909 699.351,132.857C697.936,132.462 694.002,132.646 693.537,132.668C692.691,132.708 692.661,132.677 692.016,133.213C690.447,134.516 693.195,134.81 693.363,134.828C698.216,135.348 698.204,134.614 698.614,134.706C698.967,134.785 699.187,135.181 699.536,135.277C699.902,135.379 700.296,135.247 700.675,135.277C701.991,135.378 702.921,136.155 703.559,136.255C704.46,136.397 704.427,135.984 705.329,136.05C706.067,136.104 706.781,136.337 707.505,136.49C710.29,137.075 710.324,136.768 710.564,136.825C710.922,136.909 711.214,137.178 711.559,137.305C711.857,137.414 712.186,137.422 712.483,137.531ZM62.5,0L71.5,0C74.445,2.181 74.172,2.482 74.43,2.666C74.705,2.861 77.28,2.924 77.432,2.951C77.815,3.021 78.179,3.174 78.559,3.258C79.624,3.493 80.51,3.337 81.502,3.368C82.809,3.408 83.303,3.717 83.422,2.417C83.44,2.225 83.428,2.238 83.5,0L84.5,0C84.723,0.48 84.801,1.02 85.025,1.5C85.177,1.826 85.456,2.081 85.618,2.402C85.934,3.031 85.845,3.058 86.18,3.689C86.713,4.693 86.646,4.754 87.587,5.407C88.39,5.964 88.199,6.126 88.51,6.492L88.795,8.309C88.932,8.44 89.165,8.225 89.353,8.205C89.584,8.181 89.899,8.353 90.05,8.177C90.109,8.108 89.976,8.066 90.317,7.076C90.359,6.955 90.496,6.883 90.538,6.762L91.501,6.747C91.895,7.36 92.637,7.695 93.031,8.308C93.416,8.908 92.388,10.547 90.423,11.187C87.737,12.061 87.437,8.698 83.499,8.394C80.596,8.17 81.178,10.737 82.496,11.504C84.73,12.805 84.73,12.986 85.231,15.542C85.584,17.346 85.558,17.343 85.636,17.438C85.769,17.599 86.149,17.441 86.231,17.633C86.318,17.838 85.966,18.031 85.982,18.253C85.993,18.414 86.213,18.481 86.302,18.615C86.454,18.848 86.522,19.135 86.7,19.35C86.841,19.518 87.087,19.573 87.234,19.736C87.402,19.923 87.453,20.198 87.626,20.381C87.786,20.548 88.054,20.588 88.208,20.76C88.379,20.954 88.371,21.283 88.573,21.445C88.767,21.6 89.151,21.429 89.295,21.631C89.479,21.888 89.292,22.272 89.381,22.575C89.47,22.879 90.552,24.416 91.732,25.006C91.767,25.023 94.052,25.575 94.238,25.83C94.696,26.454 96.428,32.232 98.454,33.567C99.159,34.031 100.607,34.624 101.444,36.524C102.882,39.788 103.946,38.423 105.403,38.926C106.493,39.302 107.2,40.673 107.803,41.127C109.058,42.07 109.325,41.854 109.95,43.295C111.057,45.847 111.087,47.158 115.367,46.026C117.422,45.482 117.52,45.644 119.252,46.869C121.043,48.135 121.401,49.12 122.412,49.665C123.353,50.172 123.524,49.903 124.823,51.22C126.575,52.996 126.83,52.665 129.186,54.807C129.715,55.288 129.705,55.268 130.252,55.756C130.437,55.92 130.565,56.15 130.772,56.285C131.597,56.82 132.3,56.628 131.815,57.468C131.014,58.851 129.67,58.215 129.496,58.132C129.132,57.96 124.896,54.757 123.309,53.927C121.616,53.041 121.572,53.133 120.113,51.886C118.129,50.19 117.889,50.509 115.336,51.009C115.138,51.048 113.033,51.461 112.954,51.816C112.929,51.927 113.476,53.2 113.636,53.352C113.943,53.645 114.095,53.308 118.599,55.225C120.221,55.915 123.157,56.913 124.444,57.63C126.638,58.853 127.13,59.449 129.558,61.405L131.543,63.353L133.156,63.445C133.732,62.67 133.088,62.709 132.5,61.942C132.218,61.575 132.037,61.137 131.755,60.77C132.386,60.516 132.89,60.002 133.52,59.748C133.828,59.624 138.566,59.616 139.421,59.878C140.472,60.2 149.908,63.941 151.678,65.226C154.057,66.954 154.096,66.918 155.906,69.223C156.428,69.889 159.508,73.16 159.671,73.306C161.496,74.952 163.471,74.525 166.441,76.577C177.175,83.993 176.751,84.538 177.725,85.115C178.094,85.334 178.743,85.253 181.195,87.78C182.573,89.2 182.514,89.401 184.46,89.747C186.014,90.023 185.958,90.148 187.4,90.809L189.223,91.833C191.072,93.237 191.395,92.459 193.552,93.352C193.646,93.391 195.634,94.44 198.439,95.638C201.089,96.77 200.828,97.309 203.589,98.177C206.81,99.19 207.557,100.203 209.501,100.093C209.866,100.072 210.227,99.895 210.59,99.947C210.963,100 211.267,100.288 211.628,100.397C211.894,100.478 212.224,100.355 212.452,100.512C213.425,101.179 213.178,101.363 213.346,102.531C213.635,104.535 213.768,104.508 213.756,106.521C213.75,107.526 213.909,107.506 213.866,108.523C213.852,108.844 213.676,109.142 213.653,109.461C213.631,109.775 213.595,110.119 213.731,110.402C213.807,110.557 214.126,110.456 214.207,110.608C214.647,111.431 214.249,111.561 214.73,112.372C215.71,114.027 215.337,114.235 215.661,115.45C215.878,116.264 217.606,118.364 219.391,116.404C219.872,115.876 219.852,115.878 220.345,115.343C220.5,115.176 221.811,113.753 222.464,113.444C222.752,113.308 223.095,113.281 223.355,113.097C223.483,113.007 223.408,112.731 223.553,112.672C223.86,112.548 224.22,112.679 224.545,112.614C225.412,112.439 228.287,110.449 229.407,110.888C229.791,111.038 230.16,111.253 230.462,111.535C230.652,111.713 230.669,112.02 230.834,112.222C230.973,112.39 231.213,112.454 231.353,112.622C231.518,112.822 231.571,113.099 231.732,113.303C232.145,113.83 235.218,116.599 234.605,119.526C234.571,119.686 233.473,122.08 235.525,122.443C236.154,122.555 236.795,122.59 237.428,122.681C238.873,122.887 238.773,123.151 240.731,124.359C240.178,124.722 240.052,125.551 239.5,125.915C239.221,126.098 238.831,125.884 238.503,125.825C237.401,125.625 237.346,125.334 236.77,125.762C236.081,126.275 235.103,127.672 234.976,127.852C234.826,128.067 234.809,128.376 234.614,128.551C234.126,128.99 232.076,128.156 228.331,134.342C226.115,138 225.377,137.909 224.779,138.733C224.62,138.953 224.667,139.295 224.478,139.49C224.405,139.565 224.315,139.412 223.36,140.173C222.766,140.646 222.119,140.782 220.731,141.839C219.636,142.673 219.635,142.651 218.479,143.476C217.89,143.896 217.554,144.397 217.491,144.491C217.357,144.69 217.291,144.935 217.136,145.118C216.978,145.305 216.703,145.38 216.567,145.584C216.425,145.796 216.496,146.114 216.337,146.315C216.177,146.519 215.861,146.542 215.672,146.72C215.324,147.049 215.081,147.478 214.744,147.82C214.408,148.161 214.104,148.581 213.661,148.762C213.583,148.793 213.589,148.636 212.612,148.689C212.163,148.713 212.199,148.841 211.739,148.866C206.381,151.268 207.157,152.758 206.279,154.381C206.175,154.572 206.085,154.495 204.799,156.663C204.132,157.788 203.46,160.948 199.36,158.753C196.485,157.214 194.375,160.106 192.482,160.342C189.669,160.693 188.74,159.723 188.515,159.488C188.013,158.964 188.261,158.807 187.769,158.259C186.145,156.45 184.994,158.499 180.5,158.527C179.459,158.533 167.952,158.606 167.5,159.069C167.002,159.579 167.043,160.474 166.545,160.984C166.081,160.626 165.971,159.924 165.507,159.565C165.058,159.217 165.001,159.429 162.501,159.415C159.479,159.398 159.367,158.624 156.499,158.539C153.512,158.45 153.527,158.468 150.567,158.113C150.402,158.093 148.629,157.88 148.505,157.869C147.201,157.761 146.574,158.33 146.447,158.445C145.978,158.871 145.356,161.657 145.952,163.386C146.085,163.772 146.358,164.105 146.462,164.5C146.546,164.823 146.422,165.177 146.507,165.5C146.544,165.844 146.358,166.188 146.395,166.532C146.426,166.83 146.55,167.121 146.707,167.377C146.805,167.536 147.027,167.587 147.135,167.74C147.787,168.669 147.613,168.766 148.336,169.637C150.364,172.079 153.356,171.428 153.504,171.469C153.521,171.474 155.384,172.578 155.391,172.587C156.203,173.673 154.705,177.331 152.522,177.24C151.598,177.201 150.343,176.183 149.19,177.24C148.662,177.724 148.823,177.81 148.824,178.524C148.827,182.323 148.852,182.322 148.793,182.605C148.411,184.426 146.424,183.92 145.932,183.182C145.859,183.073 146.039,182.989 145.193,181.716C145.131,181.623 144.62,180.853 144.392,180.574C144.275,180.431 144.074,180.368 143.972,180.215C143.809,179.973 143.752,179.673 143.613,179.417C143.143,178.548 142.664,178.552 142.543,178.449C142.381,178.313 142.344,178.063 142.182,177.927C140.854,176.815 140.641,177.538 140.537,177.449C140.326,177.269 140.547,176.861 140.392,176.631C140.297,176.49 140.139,176.661 138.806,175.222C137.046,173.321 137.42,173.101 137.078,170.524C136.636,167.195 134.61,162.319 131.522,162.656C130.909,162.723 126.903,164.175 126.541,164.106C124.883,163.794 125.234,161.409 123.303,159.714C120.77,157.49 123.31,156.288 123.147,154.524C123.048,153.455 122.564,153.59 122.523,152.499C122.481,151.413 125.687,146.112 124.105,142.693C123.831,142.101 122.485,140.586 122.453,140.561C121.84,140.089 120.404,139.911 119.45,138.538C117.08,135.125 114.212,135.623 111.477,134.558C107.288,132.927 103.503,132.088 97.584,130.247C93.673,129.031 93.595,129.633 89.511,129.388C83.54,129.03 82.935,131.232 78.593,130.136C75.738,129.415 75.717,129.485 62.5,129.487C59.762,129.488 59.785,129.48 57.483,129.597C57.396,129.362 57.18,129.19 57.094,128.955C57.039,128.808 56.625,127.685 56.978,126.995C57.083,126.79 57.314,126.669 57.421,126.466C57.748,125.846 58.206,123.695 58.258,123.45C59.139,119.307 61.766,110.122 61.811,108.493C61.863,106.585 61.661,106.61 61.679,106.447C61.72,106.09 61.946,105.774 62,105.42C62.032,105.211 61.9,104.998 61.932,104.789C61.94,104.739 62.727,103.418 62.843,100.515C62.994,96.739 63.713,96.857 63.723,95.493C63.735,93.932 61.61,91.417 60.527,95.509C59.752,98.436 59.926,98.457 59.846,101.497C59.766,104.591 59.091,104.485 58.829,107.552C58.759,108.365 58.71,108.333 58.199,110.428C57.712,112.428 58,112.472 57.382,114.455C57.128,115.269 56.775,117.785 55.191,124.435C54.525,127.233 54.906,128.962 54.902,128.992C54.875,129.226 54.543,129.35 54.515,129.584C44.417,129.123 41.146,130.248 33.493,129.574C30.551,129.315 27.438,130.336 24.706,126.365C24.542,126.127 23.338,124.376 22.452,123.546C22.283,123.388 22.037,123.326 21.874,123.162C21.697,122.984 21.606,122.736 21.449,122.539C20.494,121.34 19.87,121.052 21.051,120.066C21.961,119.307 26.474,119.23 27.513,117.509C29.318,114.518 28.127,114.309 26.512,111.492C25.532,109.782 22.943,107.443 24.245,105.375C24.495,104.979 24.446,104.954 27.249,100.353C28.463,98.361 27.477,96.876 27.312,96.628C27.251,96.535 26.762,95.799 26.451,95.539C26.275,95.392 25.951,95.468 25.812,95.286C25.436,94.797 25.896,94.547 24.782,93.262C22.768,90.94 21.707,93.015 19.523,92.383C18.462,92.076 18.314,91.74 17.53,92.527C17.45,92.607 17.643,92.72 16.803,93.746C14.332,96.764 12.825,94.501 8.386,98.369C5.427,100.947 6.772,101.612 6.526,102.507C6.472,102.703 6.096,102.611 5.979,102.778C5.789,103.049 5.823,103.428 5.672,103.722C5.418,104.217 3.946,104.43 3.652,102.459C3.364,100.523 3.688,100.502 3.252,98.58C3.21,98.391 2.98,98.421 3.109,94.505C3.213,91.352 4.799,90.478 8.473,83.484C9.43,81.663 10.667,80.656 11.538,75.506C11.606,75.104 11.822,75.163 12.641,70.53C13.013,68.423 14.328,67.178 12.562,64.455C12.513,64.38 10.626,62.52 12.271,61.157C13.045,60.516 13.416,61.05 17.464,61.732C21.29,62.376 20.263,65.122 23.507,65.401C26.743,65.68 26.166,62.616 28.577,63.092C30.059,63.385 29.956,64.245 33.541,63.833C35.703,63.584 35.74,63.726 36.428,63.363C37.998,62.534 38.185,57.867 36.449,56.568C36.108,56.313 35.4,55.947 35.306,55.899C34.656,55.563 34.568,55.728 33.286,54.764C32.806,54.403 31.566,53.817 31.412,53.744C28.02,52.139 28.353,50.742 25.456,51.288C25.247,51.328 23.156,52.182 21.328,50.708C20.027,49.66 19.587,47.509 22.509,46.523C24.247,45.936 28.969,44.444 29.183,41.547C29.286,40.163 27.754,40.053 27.578,40.04C27.235,40.015 26.898,40.168 26.554,40.177C26.374,40.181 25.094,40.212 25.014,38.535C24.998,38.18 25.183,37.842 25.212,37.487C25.33,36.036 24.383,35.954 24.261,33.502C24.104,30.34 22.902,30.789 22.5,29.5C22.182,28.483 25.08,26.518 25.467,26.413C25.698,26.351 26.57,26.114 28.443,26.715C28.84,26.842 29.195,27.077 29.584,27.228C30.626,27.633 31.474,27.511 31.488,27.521C31.708,27.675 31.482,28.096 31.64,28.315C31.793,28.527 32.135,28.514 32.329,28.688C32.505,28.846 32.553,29.109 32.715,29.281C34.479,31.155 38.718,31.388 39.136,31.849C39.844,32.631 39.307,32.727 38.663,33.558C38.02,34.387 37.426,34.3 37.886,35.245C38.403,36.307 40.658,35.105 42.351,35.813C44.546,36.732 47.368,40.196 48.747,41.131C49.205,41.44 49.714,41.667 50.177,41.968C50.28,42.034 52.107,43.638 52.78,44.048C57.159,46.715 57.377,46.319 62.5,46.288C63.345,46.283 65.341,46.403 66.812,44.787C67.523,44.006 68.012,42.005 70.333,42.944C71.9,43.578 72.009,44.105 75.472,44.68C78.512,45.185 80.332,46.948 81.444,47.579C81.672,47.709 81.943,47.766 82.149,47.928C82.32,48.063 82.385,48.302 82.547,48.449C82.725,48.612 82.982,48.676 83.154,48.847C83.324,49.016 83.373,49.284 83.549,49.447C83.741,49.624 84.029,49.67 84.228,49.838C84.39,49.976 84.447,50.214 84.613,50.347C84.825,50.515 85.122,50.552 85.335,50.719C85.559,50.895 85.41,51.125 86.428,51.609C86.698,51.738 87.005,51.787 87.258,51.946C87.535,52.119 87.392,52.328 88.393,52.734C88.778,52.89 89.158,53.091 89.57,53.143C89.868,53.181 90.16,52.98 90.46,52.998C90.629,53.008 90.588,53.11 92.534,53.382C94.038,53.592 94.264,54.121 94.591,54.317C95.556,54.897 95.561,54.865 96.528,55.463C97.525,56.079 97.86,56.549 98.422,56.681C98.746,56.757 99.11,56.605 99.419,56.727C99.565,56.784 99.481,57.072 99.615,57.153C99.647,57.172 101.399,57.617 101.483,57.627C101.638,57.644 102.836,57.778 103.404,57.315C103.566,57.184 103.45,56.845 103.624,56.729C104.367,56.238 104.574,56.736 105.267,56.179C105.433,56.045 105.498,55.814 105.654,55.668C106.2,55.16 106.228,55.214 106.668,54.621C108.107,52.678 109.492,53.507 109.694,52.6C109.992,51.266 109.657,51.201 108.39,50.714C108.166,50.628 106.655,50.471 105.546,49.454C103.682,47.745 103.455,48.105 101.365,46.716C98.965,45.121 98.519,45.942 94.695,43.227C93.72,42.535 93.203,42.352 91.72,41.21C91.373,40.943 88.648,39.148 86.779,37.219C86.615,37.049 86.514,36.822 86.338,36.664C86.157,36.503 85.895,36.446 85.723,36.275C85.553,36.106 85.508,35.835 85.336,35.667C85.161,35.497 84.882,35.46 84.708,35.289C84.537,35.121 84.504,34.843 84.33,34.678C84.147,34.504 83.862,34.469 83.671,34.303C83.507,34.159 83.456,33.912 83.289,33.771C83.204,33.698 83.143,33.796 82.14,32.963C80.515,31.613 80.859,31.33 80.279,30.683C80.129,30.515 79.872,30.471 79.72,30.306C79.549,30.119 79.542,29.795 79.332,29.651C79.104,29.495 78.708,29.687 78.52,29.485C78.317,29.265 78.492,28.87 78.359,28.602C78.153,28.185 77.77,27.879 77.527,27.482C77.147,26.863 77.242,26.819 76.756,26.279C73.48,22.635 72.973,23.022 72.399,21.535C71.778,19.927 71.904,19.861 70.219,17.709C66.51,12.971 66.037,11.938 65.779,11.376C64.923,9.51 64.574,7.475 62.589,7.206C61.03,6.994 60.957,7.199 59.641,6.309C59.437,6.171 59.308,5.938 59.104,5.798C58.915,5.669 58.482,5.743 58.48,5.515C58.476,5.253 59.025,4.179 59.082,4.067C59.241,3.757 59.337,3.837 59.501,3.516C61.017,3.845 60.972,3.933 62.47,4.296C63.373,4.516 63.674,4.45 63.618,3.519C63.6,3.224 63.491,3.254 62.5,0ZM170.409,91.45C168.535,94.805 168.186,95.649 168.378,96.56C168.569,97.47 169.864,97.289 170.109,97.097C170.131,97.08 173.522,91.162 173.818,90.646C173.95,90.416 175.769,87.242 173.496,87.352C172.554,87.398 171.308,89.973 170.409,91.45ZM40.219,86.251C40.56,85.799 43.901,81.363 44.242,80.425C44.778,78.948 43.591,77.979 42.521,78.541C42.423,78.593 39.035,83.581 37.932,84.864C35.069,88.197 37.211,88.47 37.502,88.481C37.792,88.492 38.006,88.735 40.219,86.251ZM216.231,119.608C214.833,119.679 214.854,119.702 213.532,120.094C213.226,120.185 212.908,120.234 212.592,120.277C211.26,120.456 210.704,120.111 210.558,120.11C208.684,120.093 208.189,121.947 209.198,122.86C210.199,123.766 210.323,123.065 211.582,122.6C212.018,122.439 212.015,122.503 213.48,122.423C213.777,122.407 216.738,122.245 216.669,120.506C216.656,120.173 216.244,119.941 216.231,119.608ZM77.48,84.454C81.942,82.393 81.948,82.409 82.322,82.196C84.306,81.064 83.427,79.553 82.51,79.458C81.901,79.395 81.876,79.393 75.36,82.201C75.141,82.296 72.307,83.517 74.13,84.929C75.068,85.656 77.404,84.481 77.48,84.454ZM134.571,66.457C137.052,68.588 139.142,69.059 140.48,69.637C141.383,70.027 141.361,70.442 142.28,70.046C142.406,69.992 143.847,68.393 140.706,67.298C139.592,66.91 139.677,66.759 138.621,66.224C137.601,65.707 137.615,65.711 136.584,65.196C135.567,64.688 135.517,64.172 134.583,64.811C134.243,65.044 134.24,65.412 134.24,65.472C134.236,66.011 134.575,65.922 134.571,66.457ZM133.338,133.515C133.249,133.216 133.269,132.891 133.179,132.591C132.69,130.954 132.335,131.1 131.515,128.495C131.453,128.297 130.705,125.918 129.292,127.164C127.618,128.641 129.877,131.609 130.279,133.538C130.347,133.861 130.357,134.195 130.436,134.516C131.002,136.83 133.21,136.41 133.373,134.485C133.4,134.163 133.311,133.837 133.338,133.515ZM211.664,146.441C211.902,146.332 212.201,146.68 212.439,146.571C212.895,146.361 213.139,145.839 213.561,145.568C213.713,145.471 213.992,145.65 214.098,145.504C214.253,145.291 214.655,143.107 214.542,139.497C214.442,136.329 212.256,137.309 211.92,137.818C211.183,138.931 211.62,145.752 211.664,146.441ZM188.887,96.56C189.031,96.922 188.858,97.362 189.002,97.724C189.38,98.67 189.668,98.38 193.541,100.129L194.427,98.534C194.177,97.891 191.082,96.221 189.291,96.323C189.135,96.332 189.043,96.551 188.887,96.56ZM156.749,78.755C155.298,81.083 155.308,81.069 155.182,81.27C154.784,81.907 150.718,88.41 150.662,89.5C150.554,91.651 152.39,90.652 152.542,90.57C152.829,90.414 153.668,88.782 153.752,88.618C154.982,86.226 157.771,81.845 158.139,81.267C159.172,79.644 159.057,78.824 159.099,78.679C158.595,78.553 158.925,78.116 158.419,77.989C158.338,77.969 158.139,77.919 157.406,78.255C157.156,78.369 156.999,78.64 156.749,78.755ZM76.128,107.451C76.129,107.356 76.428,105.965 75.889,105.194C75.377,104.462 75.361,104.315 74.488,104.428C72.274,104.715 71.71,115.678 72.52,116.481C72.625,116.586 73.509,117.462 74.377,116.4C74.555,116.181 74.492,116.158 74.822,113.597C75.036,111.937 76.009,107.939 76.128,107.451ZM126.25,116.093C127.337,115.347 127.496,115.499 128.114,114.321C128.282,114.001 129.677,106.896 125.508,107.548C124.935,107.637 121.861,109.163 120.356,110.313C119.017,111.337 118.745,112.063 119.03,113.572C119.671,116.965 123.435,117.433 124.676,116.931C125.227,116.708 125.699,116.316 126.25,116.093ZM126.084,112.5C125.801,112.781 125.877,113.311 125.594,113.592C125.039,114.144 121.939,114.451 121.632,114.268C120.577,113.64 121.583,112.791 121.679,112.711C122.272,112.21 122.454,112.637 123.115,112.212C123.326,112.077 123.459,111.845 123.659,111.695C124.853,110.799 125.479,111.277 125.604,111.373C125.929,111.621 125.76,112.252 126.084,112.5ZM200.625,102.461C200.305,102.024 200.36,101.196 198.475,100.692C198.292,100.643 196.159,100.072 196.249,101.527C196.284,102.101 197.664,102.917 197.812,103.005C199.42,103.956 199.414,103.941 199.644,104.105C199.905,104.292 200.113,104.554 200.395,104.707C200.58,104.808 200.824,104.754 201.012,104.851C201.148,104.92 201.337,105.262 202.354,105.658C204.169,106.362 204.828,107.305 207.498,107.326C208.256,107.332 208.287,107.364 208.867,106.871C209.48,106.349 209.742,106.288 209.333,105.586C208.571,104.278 208.196,104.904 206.476,104.719C205.769,104.643 202.804,103.435 202.528,103.298C201.922,102.997 202.049,102.833 201.442,102.566C201.047,102.392 201.014,102.632 200.625,102.461ZM120.859,89.496C120.949,91.077 120.687,91.137 121.398,92.565C121.911,93.596 126.428,95.497 125.162,89.568C123.759,83 125.81,80.904 122.472,81.021C119.776,81.115 120.132,83.268 120.176,83.536C120.284,84.191 120.526,84.816 120.663,85.465C120.948,86.818 120.803,86.816 120.859,89.496ZM111.75,59.603C110.726,62.254 109.979,63.141 112.644,64.132C115.173,65.072 116.267,63.999 117.823,62.918C119.2,61.962 119.813,62.14 119.591,60.478C119.469,59.564 119.143,59.767 116.65,58.246C116.381,58.082 113.746,56.475 112.931,56.966C112.765,57.066 111.836,59.389 111.75,59.603ZM115.418,59.702C115.437,59.969 115.871,60.084 115.891,60.351C115.903,60.522 116.024,62.143 114.537,62.018C113.314,61.916 113.677,60.693 113.715,60.564C113.729,60.518 114.095,60.161 114.129,60.128C114.8,59.473 115.317,59.735 115.418,59.702ZM99.698,105.692C99.303,106.156 95.932,109.502 97.115,110.806C97.605,111.346 99.014,112.901 104.545,105.535C106.98,102.293 103.88,101.834 102.64,102.687C102.426,102.834 99.93,105.449 99.698,105.692ZM141.21,110.34C142.811,107.183 145.958,103.481 144.907,102.191C143.371,100.306 141.897,104.219 141.193,105.302C140.882,105.781 137.971,110.262 137.685,111.526C137.654,111.663 137.366,112.937 138.519,113.07C139.455,113.178 141.049,110.601 141.21,110.34Z" style="fill:rgb(191,198,196);fill-opacity:0.98;"/>
        </g>
    </g>
</svg>
