<?xml version="1.0" encoding="UTF-8" standalone="no"?>
<!DOCTYPE svg PUBLIC "-//W3C//DTD SVG 1.1//EN" "http://www.w3.org/Graphics/SVG/1.1/DTD/svg11.dtd">
<svg width="100%" height="100%" viewBox="0 0 52 52" version="1.1" xmlns="http://www.w3.org/2000/svg" xmlns:xlink="http://www.w3.org/1999/xlink" xml:space="preserve" xmlns:serif="http://www.serif.com/" style="fill-rule:evenodd;clip-rule:evenodd;stroke-linecap:round;stroke-linejoin:round;stroke-miterlimit:1.5;">
    <g transform="matrix(1,0,0,1,-205.831766,-163.37322)">
        <g transform="matrix(0.233107,0,0,0.233107,158.315377,126.05674)">
            <circle cx="315.377" cy="271.62" r="107.247" style="fill:rgb(77,161,179);stroke:rgb(235,235,235);stroke-width:8.58px;"/>
        </g>
        <g transform="matrix(1,0,0,1,-0.129578,-1.742069)">
            <path d="M213.076,197.106L224.277,197.106L224.277,185.124L212.816,185.124" style="fill:none;stroke:rgb(235,235,235);stroke-width:3px;"/>
        </g>
        <g transform="matrix(-1,-0,0,-1,463.793109,380.488508)">
            <path d="M213.076,197.106L224.277,197.106L224.277,185.124L212.816,185.124" style="fill:none;stroke:rgb(235,235,235);stroke-width:3px;"/>
        </g>
        <g transform="matrix(1,0,0,1,-0.129578,-1.465234)">
            <path d="M236.332,177.156L227.332,177.156L231.832,168.156L236.332,177.156ZM230.332,177.156L233.332,177.156L233.332,208.698C233.332,209.526 232.66,210.198 231.832,210.198C231.004,210.198 230.332,209.526 230.332,208.698L230.332,177.156Z" style="fill:rgb(235,235,235);"/>
        </g>
    </g>
</svg>
