<?xml version="1.0" encoding="UTF-8" standalone="no"?>
<!DOCTYPE svg PUBLIC "-//W3C//DTD SVG 1.1//EN" "http://www.w3.org/Graphics/SVG/1.1/DTD/svg11.dtd">
<svg width="100%" height="100%" viewBox="0 0 70 88" version="1.1" xmlns="http://www.w3.org/2000/svg" xmlns:xlink="http://www.w3.org/1999/xlink" xml:space="preserve" xmlns:serif="http://www.serif.com/" style="fill-rule:evenodd;clip-rule:evenodd;stroke-linecap:round;stroke-linejoin:round;stroke-miterlimit:1.5;">
    <g transform="matrix(1,0,0,1,-109.749939,-265.904959)">
        <g id="pin">
            <g transform="matrix(-1,-0,0,-0.648833,343.606723,543.097816)">
                <path d="M199.018,301.162C199.018,301.162 228.448,323.631 228.448,373.524C228.448,398.558 215.261,418.882 199.018,418.882C182.775,418.882 169.588,398.558 169.588,373.524C169.588,323.631 199.018,301.162 199.018,301.162Z" style="fill:rgb(215,215,215);"/>
                <path d="M200.35,297.019C200.35,297.019 231.448,320.783 231.448,373.524C231.448,401.109 216.917,423.506 199.018,423.506C181.12,423.506 166.588,401.109 166.588,373.524C166.588,320.783 197.687,297.019 197.687,297.019L199.018,296.002L200.35,297.019ZM199.018,301.162C199.018,301.162 169.588,323.631 169.588,373.524C169.588,398.558 182.775,418.882 199.018,418.882C215.261,418.882 228.448,398.558 228.448,373.524C228.448,323.631 199.018,301.162 199.018,301.162Z" style="fill:rgb(190,190,190);"/>
            </g>
            <g transform="matrix(0.233107,0,0,0.233107,71.071941,237.845226)">
                <circle cx="315.377" cy="271.62" r="107.247" style="fill:rgb(235,235,235);stroke:rgb(235,235,235);stroke-width:12.87px;"/>
            </g>
        </g>
    </g>
</svg>
